G04 #@! TF.FileFunction,Legend,Top*
%FSLAX46Y46*%
G04 Gerber Fmt 4.6, Leading zero omitted, Abs format (unit mm)*
G04 Created by KiCad (PCBNEW 4.0.1-stable) date 2016 March 19, Saturday 17:51:25*
%MOMM*%
G01*
G04 APERTURE LIST*
%ADD10C,0.100000*%
%ADD11C,0.150000*%
G04 APERTURE END LIST*
D10*
D11*
X155735000Y-99445000D02*
X155735000Y-99945000D01*
X156685000Y-99945000D02*
X156685000Y-99445000D01*
X164715000Y-99855000D02*
X164215000Y-99855000D01*
X164215000Y-100805000D02*
X164715000Y-100805000D01*
X164842000Y-97569000D02*
X164342000Y-97569000D01*
X164342000Y-98519000D02*
X164842000Y-98519000D01*
X150215000Y-96240000D02*
X150215000Y-97790000D01*
X150495000Y-101600000D02*
X150495000Y-99060000D01*
X150495000Y-99060000D02*
X153035000Y-99060000D01*
X153315000Y-97790000D02*
X153315000Y-96240000D01*
X153315000Y-96240000D02*
X150215000Y-96240000D01*
X153035000Y-99060000D02*
X153035000Y-101600000D01*
X153035000Y-101600000D02*
X150495000Y-101600000D01*
X166725000Y-96240000D02*
X166725000Y-97790000D01*
X167005000Y-101600000D02*
X167005000Y-99060000D01*
X167005000Y-99060000D02*
X169545000Y-99060000D01*
X169825000Y-97790000D02*
X169825000Y-96240000D01*
X169825000Y-96240000D02*
X166725000Y-96240000D01*
X169545000Y-99060000D02*
X169545000Y-101600000D01*
X169545000Y-101600000D02*
X167005000Y-101600000D01*
X160455000Y-97360000D02*
G75*
G03X160455000Y-97360000I-100000J0D01*
G01*
X160905000Y-97610000D02*
X160405000Y-97610000D01*
X160905000Y-100510000D02*
X160905000Y-97610000D01*
X160405000Y-100510000D02*
X160905000Y-100510000D01*
X160405000Y-97610000D02*
X160405000Y-100510000D01*
X154867143Y-99861666D02*
X154914762Y-99909285D01*
X154962381Y-100052142D01*
X154962381Y-100147380D01*
X154914762Y-100290238D01*
X154819524Y-100385476D01*
X154724286Y-100433095D01*
X154533810Y-100480714D01*
X154390952Y-100480714D01*
X154200476Y-100433095D01*
X154105238Y-100385476D01*
X154010000Y-100290238D01*
X153962381Y-100147380D01*
X153962381Y-100052142D01*
X154010000Y-99909285D01*
X154057619Y-99861666D01*
X154962381Y-98909285D02*
X154962381Y-99480714D01*
X154962381Y-99195000D02*
X153962381Y-99195000D01*
X154105238Y-99290238D01*
X154200476Y-99385476D01*
X154248095Y-99480714D01*
X164298334Y-98987143D02*
X164250715Y-99034762D01*
X164107858Y-99082381D01*
X164012620Y-99082381D01*
X163869762Y-99034762D01*
X163774524Y-98939524D01*
X163726905Y-98844286D01*
X163679286Y-98653810D01*
X163679286Y-98510952D01*
X163726905Y-98320476D01*
X163774524Y-98225238D01*
X163869762Y-98130000D01*
X164012620Y-98082381D01*
X164107858Y-98082381D01*
X164250715Y-98130000D01*
X164298334Y-98177619D01*
X164679286Y-98177619D02*
X164726905Y-98130000D01*
X164822143Y-98082381D01*
X165060239Y-98082381D01*
X165155477Y-98130000D01*
X165203096Y-98177619D01*
X165250715Y-98272857D01*
X165250715Y-98368095D01*
X165203096Y-98510952D01*
X164631667Y-99082381D01*
X165250715Y-99082381D01*
X164425334Y-96701143D02*
X164377715Y-96748762D01*
X164234858Y-96796381D01*
X164139620Y-96796381D01*
X163996762Y-96748762D01*
X163901524Y-96653524D01*
X163853905Y-96558286D01*
X163806286Y-96367810D01*
X163806286Y-96224952D01*
X163853905Y-96034476D01*
X163901524Y-95939238D01*
X163996762Y-95844000D01*
X164139620Y-95796381D01*
X164234858Y-95796381D01*
X164377715Y-95844000D01*
X164425334Y-95891619D01*
X164758667Y-95796381D02*
X165377715Y-95796381D01*
X165044381Y-96177333D01*
X165187239Y-96177333D01*
X165282477Y-96224952D01*
X165330096Y-96272571D01*
X165377715Y-96367810D01*
X165377715Y-96605905D01*
X165330096Y-96701143D01*
X165282477Y-96748762D01*
X165187239Y-96796381D01*
X164901524Y-96796381D01*
X164806286Y-96748762D01*
X164758667Y-96701143D01*
X157317381Y-98528095D02*
X156317381Y-98528095D01*
X156317381Y-98147142D01*
X156365000Y-98051904D01*
X156412619Y-98004285D01*
X156507857Y-97956666D01*
X156650714Y-97956666D01*
X156745952Y-98004285D01*
X156793571Y-98051904D01*
X156841190Y-98147142D01*
X156841190Y-98528095D01*
X157317381Y-97004285D02*
X157317381Y-97575714D01*
X157317381Y-97290000D02*
X156317381Y-97290000D01*
X156460238Y-97385238D01*
X156555476Y-97480476D01*
X156603095Y-97575714D01*
X173827381Y-98528095D02*
X172827381Y-98528095D01*
X172827381Y-98147142D01*
X172875000Y-98051904D01*
X172922619Y-98004285D01*
X173017857Y-97956666D01*
X173160714Y-97956666D01*
X173255952Y-98004285D01*
X173303571Y-98051904D01*
X173351190Y-98147142D01*
X173351190Y-98528095D01*
X172922619Y-97575714D02*
X172875000Y-97528095D01*
X172827381Y-97432857D01*
X172827381Y-97194761D01*
X172875000Y-97099523D01*
X172922619Y-97051904D01*
X173017857Y-97004285D01*
X173113095Y-97004285D01*
X173255952Y-97051904D01*
X173827381Y-97623333D01*
X173827381Y-97004285D01*
X159843095Y-95962381D02*
X159843095Y-96771905D01*
X159890714Y-96867143D01*
X159938333Y-96914762D01*
X160033571Y-96962381D01*
X160224048Y-96962381D01*
X160319286Y-96914762D01*
X160366905Y-96867143D01*
X160414524Y-96771905D01*
X160414524Y-95962381D01*
X161414524Y-96962381D02*
X160843095Y-96962381D01*
X161128809Y-96962381D02*
X161128809Y-95962381D01*
X161033571Y-96105238D01*
X160938333Y-96200476D01*
X160843095Y-96248095D01*
M02*
