%FSLAX25Y25*%
%MOIN*%
G70*
G01*
G75*
G04 Layer_Color=8421504*
%ADD10C,0.01500*%
%ADD11C,0.02000*%
%ADD12C,0.01000*%
%ADD13C,0.00700*%
%ADD14C,0.05000*%
%ADD15R,0.03740X0.03937*%
%ADD16R,0.02000X0.02000*%
%ADD17R,0.04724X0.03347*%
%ADD18R,0.03937X0.03937*%
%ADD19R,0.02000X0.02000*%
%ADD20R,0.02165X0.05709*%
%ADD21R,0.02165X0.05709*%
%ADD22R,0.01500X0.05400*%
%ADD23O,0.02756X0.09843*%
%ADD24R,0.07874X0.03937*%
%ADD25R,0.05906X0.04500*%
%ADD26R,0.06575X0.06693*%
%ADD27R,0.08661X0.07874*%
%ADD28C,0.03000*%
%ADD29C,0.03200*%
%ADD30R,0.44900X0.10200*%
%ADD31C,0.04724*%
%ADD32O,0.05906X0.07480*%
%ADD33C,0.03150*%
%ADD34C,0.06900*%
%ADD35R,0.06900X0.06900*%
%ADD36C,0.02362*%
%ADD37R,0.44900X0.09800*%
%ADD38C,0.00500*%
%ADD39C,0.00787*%
%ADD40C,0.00394*%
%ADD41C,0.00984*%
%ADD42C,0.01181*%
%ADD43C,0.00018*%
%ADD44C,0.00800*%
%ADD45C,0.01200*%
%ADD46R,0.09572X0.00759*%
%ADD47R,0.00900X0.40700*%
%ADD48R,0.09743X0.00900*%
%ADD49R,0.01433X0.08858*%
%ADD50R,0.01433X0.08858*%
%ADD51R,0.10236X0.04035*%
%ADD52R,0.02500X0.02900*%
D15*
X-19740Y-93329D02*
D03*
X-12260Y-93329D02*
D03*
X-16000Y-84471D02*
D03*
Y-112929D02*
D03*
X-19740Y-104071D02*
D03*
X-12260Y-104071D02*
D03*
D16*
X-45000Y5000D02*
D03*
X-41000D02*
D03*
Y15000D02*
D03*
X-45000D02*
D03*
X-20000Y-75600D02*
D03*
X-16000D02*
D03*
X45000Y-35000D02*
D03*
X41000D02*
D03*
X45000Y-25000D02*
D03*
X41000D02*
D03*
X45000Y-15000D02*
D03*
X41000D02*
D03*
X-45000Y-5000D02*
D03*
X-41000D02*
D03*
X-45900Y-125800D02*
D03*
X-41900D02*
D03*
X-9200Y-98600D02*
D03*
X-13200D02*
D03*
X-18700D02*
D03*
X-22700D02*
D03*
X-41000Y-95000D02*
D03*
X-45000D02*
D03*
D17*
X-2199Y-50738D02*
D03*
X4199D02*
D03*
Y-55462D02*
D03*
X-2199D02*
D03*
D18*
X-42950Y-131977D02*
D03*
X-49250D02*
D03*
D19*
X-32300Y-110200D02*
D03*
Y-106200D02*
D03*
X-19740Y-56000D02*
D03*
Y-52000D02*
D03*
X-12260Y-56000D02*
D03*
Y-52000D02*
D03*
X28500D02*
D03*
Y-56000D02*
D03*
X23500Y-52000D02*
D03*
Y-56000D02*
D03*
X30000Y-110200D02*
D03*
Y-106200D02*
D03*
X-27400Y-110200D02*
D03*
Y-106200D02*
D03*
X33500Y-94000D02*
D03*
Y-98000D02*
D03*
X28500Y-94000D02*
D03*
Y-98000D02*
D03*
X18500Y-56000D02*
D03*
Y-52000D02*
D03*
X12000D02*
D03*
Y-56000D02*
D03*
X-8000D02*
D03*
Y-52000D02*
D03*
X-39300Y19300D02*
D03*
Y23300D02*
D03*
D20*
X-19740Y-61768D02*
D03*
X-12260D02*
D03*
Y-70232D02*
D03*
X-16000D02*
D03*
D21*
X-19740Y-70232D02*
D03*
D22*
X-2550Y-119000D02*
D03*
X0D02*
D03*
X-5100D02*
D03*
X2550D02*
D03*
X5100D02*
D03*
D23*
X8500Y-65354D02*
D03*
X13500D02*
D03*
X-1500Y-84646D02*
D03*
X3500D02*
D03*
X8500D02*
D03*
X13500D02*
D03*
X18500D02*
D03*
X23500D02*
D03*
X28500D02*
D03*
X33500D02*
D03*
X-1500Y-65354D02*
D03*
X3500D02*
D03*
X18500D02*
D03*
X23500D02*
D03*
X28500D02*
D03*
X33500D02*
D03*
D24*
X-31496Y-40911D02*
D03*
X31496Y-41069D02*
D03*
Y-33037D02*
D03*
Y-25321D02*
D03*
Y-17368D02*
D03*
Y-9258D02*
D03*
Y-1463D02*
D03*
Y6490D02*
D03*
Y14285D02*
D03*
X-31496Y14167D02*
D03*
Y6411D02*
D03*
Y-1463D02*
D03*
Y-9218D02*
D03*
Y-17250D02*
D03*
Y-25163D02*
D03*
Y-32998D02*
D03*
D25*
X30000Y-132169D02*
D03*
Y-115831D02*
D03*
X-30000Y-132169D02*
D03*
Y-115831D02*
D03*
D26*
X-30100Y-93036D02*
D03*
Y-77564D02*
D03*
D27*
X-30000Y-67905D02*
D03*
Y-56094D02*
D03*
D52*
X5610Y-134550D02*
D03*
X1870D02*
D03*
X-1870D02*
D03*
X-5610D02*
D03*
X-9350D02*
D03*
X9350D02*
D03*
X5610Y-129850D02*
D03*
Y-125150D02*
D03*
X1870Y-129850D02*
D03*
Y-125150D02*
D03*
X-1870Y-129850D02*
D03*
Y-125150D02*
D03*
X-5610Y-129850D02*
D03*
Y-125150D02*
D03*
X-9350Y-129850D02*
D03*
X9350D02*
D03*
Y-125150D02*
D03*
X-9350D02*
D03*
M02*
