M48
;Layer_Color=9474304
;FILE_FORMAT=2:5
INCH,LZ
;TYPE=PLATED
T1F00S00C0.01181
T2F00S00C0.02750
T4F00S00C0.03500
%
T01
X000765Y-01344
Y-01305
Y-01266
X00051Y-01235
Y-01148
X0006317Y-01118
X0010033
X001375
X0017467
X0021183
X00249
X00337Y-01116
X003685
X004
X00444Y-01148
X00474Y-01177
X004615Y-01243
X0043
X003985
Y-01344
X00367
X0043
X004615
X00493
X00314Y-01283
X00286
X00244Y-01344
X00213
X00182
X00194Y-01005
X00167
X001235Y-01012
X00092
X000605
X00047Y-01048
X0026Y-01005
X0036
X00366Y-01035
X00336Y-01052
X00373Y-00972
Y-0093767
Y-0090333
Y-00869
X00372Y-00749
X00341
X0031
X00279
X00248
X00179Y-00766
X001475
X00116
X00148Y-00732
X00064
X0011Y-00597
X00152Y-00585
Y-00541
Y-00497
X00138Y-00464
X00104
X00071
X00194Y-00479
X00214Y-00498
X00319Y-005185
X00343
Y-0055
X00319
X0033516Y-0058504
X00367Y-00585
X00461Y-00583
Y-00436
X0037596Y-0040116
X00372Y-00687
X00484Y-01044
Y-01069
X00017Y-01048
X00029Y-01012
X0002Y-00973
X00045
Y-0093329
X0002
X-0006071Y-0093329
X-00086Y-00933
X-00096Y-00875
Y-00849
X-00099Y-00756
X-00127
X-0016Y-00655
X-0016016Y-00627
Y-00601
X-00057Y-00611
Y-006425
Y-00674
X00001Y-00732
X000325
X00014Y-00588
X0000967Y-00464
X0004117
X-00022
X-00054
X-0007984Y-0048504
X-0012244
X-00132Y-0045
Y-004185
X-00188
Y-0045
X-0019724Y-0048504
X-00267Y-00625
X-003
X-0033316
X-0039Y-00638
Y-00609
Y-0058
X-00359Y-0068
Y-00708
X-00368Y-00836
X-00367Y-00868
X-00427Y-00877
Y-00905
Y-0100825
Y-010535
Y-0109875
Y-01144
X-00493Y-0113
Y-01043
X-00299Y-01037
X-0032Y-01016
X-00198Y-0112929
X-002095Y-012
X-00234
X-00185
X-00182Y-01344
X-002145
X-00247
X-00286Y-01283
X-00314
X-00355Y-01344
X-00081
X-000495
X-00018
X000135
X00045
Y-01305
X000135
X-00018
X-000495
X-00081
Y-01266
X-000495
X-00018
X000135
X00045
X00026Y-01118
X-00046
Y-0103
Y-01004
X-0016Y-00889
X-00233Y-00694
X-00468Y-00771
X-00456Y-00234
X-0039Y-00242
Y-00271
Y-00213
X-00456Y-00098
X-00485Y-0005
X-00495Y00013
X-00485Y0005
X-00385Y00013
X-00172Y000045
Y-00027
Y00036
Y000675
Y00099
Y001305
Y00162
Y001935
Y00225
X-001405
X-00109
X-000775
X-00046
X-000145
X00017
X-002035
X-00235
X-002665
X-00298
X-003295
X-00361
X-00424
X-004555
X-00487
X-0025218Y-0009218
X-00193Y-00092
X-00168
X-001435Y-00122
X-00112
X-000805
X-00049
X-000175
X-00026Y-00213
X00004
X-00017Y-0029
X-000305Y-003555
X00001
X000325
X-00062
X-00132
Y-00387
X-00188
Y-003555
Y-003075
Y-00276
X-00132
Y-003075
X-00188Y-00144
X00052Y-00142
X0008367
X0011533
X00147
X001475Y-00247
X00116
X00192Y-00289
X00193Y-00328
X00221Y-00306
Y-00351
X00285Y-0037573
X0031512
X0034416
X00485Y-0035
X00287Y-00213
X00262
Y-00173
X00237
X00101Y0
X000485Y00036
Y000675
Y00099
Y001305
Y00162
Y001935
Y00225
X0008
X001115
X00143
X001745
X00206
X002375
X00269
X003005
X00332
X003635
X00395
X004265
X00458
X004895
Y00171
X00458
X004265
X00395
X00394Y0007
X00428Y00097
X00464Y00123
X00199Y00162
X0014Y00106
X000955Y-003555
X00064
T02
X000955Y-0119
X-000955
T04
X0055Y-012
Y-011
Y-01
Y-009
Y-008
Y-007
Y-006
Y-005
Y-004
X-0055
Y-005
Y-006
Y-007
Y-008
Y-009
Y-01
Y-011
Y-012
Y-003
Y-002
Y-001
Y0
Y001
Y002
X0055
Y001
Y0
Y-001
Y-002
Y-003
M30
