%FSLAX25Y25*%
%MOIN*%
G70*
G01*
G75*
G04 Layer_Color=2752767*
%ADD10C,0.01500*%
%ADD11C,0.02000*%
%ADD12C,0.01000*%
%ADD13C,0.00700*%
%ADD14C,0.05000*%
%ADD15R,0.03740X0.03937*%
%ADD16R,0.02000X0.02000*%
%ADD17R,0.04724X0.03347*%
%ADD18R,0.03937X0.03937*%
%ADD19R,0.02000X0.02000*%
%ADD20R,0.02165X0.05709*%
%ADD21R,0.02165X0.05709*%
%ADD22R,0.01500X0.05400*%
%ADD23O,0.02756X0.09843*%
%ADD24R,0.07874X0.03937*%
%ADD25R,0.05906X0.04500*%
%ADD26R,0.06575X0.06693*%
%ADD27R,0.08661X0.07874*%
%ADD28C,0.03000*%
%ADD29C,0.03200*%
%ADD30R,0.44900X0.10200*%
%ADD31C,0.04724*%
%ADD32O,0.05906X0.07480*%
%ADD33C,0.03150*%
%ADD34C,0.06900*%
%ADD35R,0.06900X0.06900*%
%ADD36C,0.02362*%
%ADD37R,0.44900X0.09800*%
%ADD38C,0.00500*%
%ADD39C,0.00787*%
%ADD40C,0.00394*%
%ADD41C,0.00984*%
%ADD42C,0.01181*%
%ADD43C,0.00018*%
%ADD44C,0.00800*%
%ADD45C,0.01200*%
%ADD46R,0.09572X0.00759*%
%ADD47R,0.00900X0.40700*%
%ADD48R,0.09743X0.00900*%
%ADD49R,0.01433X0.08858*%
%ADD50R,0.01433X0.08858*%
%ADD51R,0.10236X0.04035*%
%ADD52R,0.02500X0.02900*%
%ADD53R,0.21200X0.12300*%
%ADD54R,0.04540X0.04737*%
%ADD55R,0.02800X0.02800*%
%ADD56R,0.05524X0.04147*%
%ADD57R,0.04737X0.04737*%
%ADD58R,0.02800X0.02800*%
%ADD59R,0.02965X0.06509*%
%ADD60R,0.02965X0.06509*%
%ADD61R,0.02300X0.06200*%
%ADD62O,0.03556X0.10642*%
%ADD63R,0.08674X0.04737*%
%ADD64R,0.06706X0.05300*%
%ADD65R,0.07375X0.07493*%
%ADD66R,0.09461X0.08674*%
%ADD67C,0.05524*%
%ADD68O,0.06706X0.08280*%
%ADD69C,0.03950*%
%ADD70C,0.07700*%
%ADD71R,0.07700X0.07700*%
%ADD72C,0.00057*%
%ADD73R,0.01568X0.07788*%
%ADD74C,0.01600*%
%ADD75C,0.01400*%
D12*
X81699Y-67402D02*
X77700D01*
Y-73400D01*
X81699D01*
X77700Y-70401D02*
X79699D01*
X134499Y-73400D02*
X130500D01*
X134499Y-69401D01*
Y-68402D01*
X133499Y-67402D01*
X131500D01*
X130500Y-68402D01*
X140497Y-67402D02*
X138497Y-68402D01*
X136498Y-70401D01*
Y-72400D01*
X137498Y-73400D01*
X139497D01*
X140497Y-72400D01*
Y-71401D01*
X139497Y-70401D01*
X136498D01*
X146495Y-67402D02*
X144495Y-68402D01*
X142496Y-70401D01*
Y-72400D01*
X143496Y-73400D01*
X145495D01*
X146495Y-72400D01*
Y-71401D01*
X145495Y-70401D01*
X142496D01*
X200081Y-73400D02*
X202081D01*
X201081D01*
Y-67402D01*
X200081Y-68402D01*
X205080Y-73400D02*
X207079D01*
X206079D01*
Y-67402D01*
X205080Y-68402D01*
X210078Y-73400D02*
Y-72400D01*
X211078D01*
Y-73400D01*
X210078D01*
X215076Y-68402D02*
X216076Y-67402D01*
X218075D01*
X219075Y-68402D01*
Y-69401D01*
X218075Y-70401D01*
X219075Y-71401D01*
Y-72400D01*
X218075Y-73400D01*
X216076D01*
X215076Y-72400D01*
Y-71401D01*
X216076Y-70401D01*
X215076Y-69401D01*
Y-68402D01*
X216076Y-70401D02*
X218075D01*
X221075Y-73400D02*
X223074D01*
X222074D01*
Y-67402D01*
X221075Y-68402D01*
X226073Y-73400D02*
X228072D01*
X227073D01*
Y-67402D01*
X226073Y-68402D01*
X231071Y-73400D02*
Y-69401D01*
X232071D01*
X233071Y-70401D01*
Y-73400D01*
Y-70401D01*
X234070Y-69401D01*
X235070Y-70401D01*
Y-73400D01*
X237069D02*
X239069D01*
X238069D01*
Y-69401D01*
X237069D01*
X242068Y-73400D02*
X244067D01*
X243067D01*
Y-67402D01*
X242068D01*
X255064Y-73400D02*
X253064Y-71401D01*
Y-69401D01*
X255064Y-67402D01*
X258063Y-68402D02*
X259062Y-67402D01*
X261062D01*
X262061Y-68402D01*
Y-72400D01*
X261062Y-73400D01*
X259062D01*
X258063Y-72400D01*
Y-68402D01*
X264061Y-73400D02*
Y-72400D01*
X265060D01*
Y-73400D01*
X264061D01*
X269059Y-68402D02*
X270059Y-67402D01*
X272058D01*
X273058Y-68402D01*
Y-69401D01*
X272058Y-70401D01*
X271058D01*
X272058D01*
X273058Y-71401D01*
Y-72400D01*
X272058Y-73400D01*
X270059D01*
X269059Y-72400D01*
X275057Y-73400D02*
Y-69401D01*
X276057D01*
X277056Y-70401D01*
Y-73400D01*
Y-70401D01*
X278056Y-69401D01*
X279056Y-70401D01*
Y-73400D01*
X281055D02*
Y-69401D01*
X282055D01*
X283054Y-70401D01*
Y-73400D01*
Y-70401D01*
X284054Y-69401D01*
X285054Y-70401D01*
Y-73400D01*
X287053D02*
X289053Y-71401D01*
Y-69401D01*
X287053Y-67402D01*
X569573Y-73400D02*
Y-67402D01*
X572573D01*
X573572Y-68402D01*
Y-70401D01*
X572573Y-71401D01*
X569573D01*
X575571Y-67402D02*
X579570D01*
X577571D01*
Y-73400D01*
X581569Y-67402D02*
Y-73400D01*
Y-70401D01*
X585568D01*
Y-67402D01*
Y-73400D01*
X619961D02*
Y-67402D01*
X622960D01*
X623960Y-68402D01*
Y-70401D01*
X622960Y-71401D01*
X619961D01*
X621960D02*
X623960Y-73400D01*
X626959D02*
X628958D01*
X629958Y-72400D01*
Y-70401D01*
X628958Y-69401D01*
X626959D01*
X625959Y-70401D01*
Y-72400D01*
X626959Y-73400D01*
X631957Y-69401D02*
Y-72400D01*
X632957Y-73400D01*
X635956D01*
Y-69401D01*
X637955Y-73400D02*
Y-69401D01*
X640954D01*
X641954Y-70401D01*
Y-73400D01*
X647952Y-67402D02*
Y-73400D01*
X644953D01*
X643953Y-72400D01*
Y-70401D01*
X644953Y-69401D01*
X647952D01*
X77700Y-85400D02*
Y-81401D01*
X79699Y-79402D01*
X81699Y-81401D01*
Y-85400D01*
Y-82401D01*
X77700D01*
X134499Y-85400D02*
X130500D01*
X134499Y-81401D01*
Y-80402D01*
X133499Y-79402D01*
X131500D01*
X130500Y-80402D01*
X204080Y-85400D02*
X200081D01*
X204080Y-81401D01*
Y-80402D01*
X203080Y-79402D01*
X201081D01*
X200081Y-80402D01*
X206079Y-79402D02*
X210078D01*
Y-80402D01*
X206079Y-84400D01*
Y-85400D01*
X212077D02*
Y-84400D01*
X213077D01*
Y-85400D01*
X212077D01*
X221075Y-79402D02*
X217076D01*
Y-82401D01*
X219075Y-81401D01*
X220075D01*
X221075Y-82401D01*
Y-84400D01*
X220075Y-85400D01*
X218075D01*
X217076Y-84400D01*
X223074Y-85400D02*
Y-81401D01*
X224074D01*
X225073Y-82401D01*
Y-85400D01*
Y-82401D01*
X226073Y-81401D01*
X227073Y-82401D01*
Y-85400D01*
X229072D02*
X231071D01*
X230072D01*
Y-81401D01*
X229072D01*
X234070Y-85400D02*
X236070D01*
X235070D01*
Y-79402D01*
X234070D01*
X247066Y-85400D02*
X245067Y-83401D01*
Y-81401D01*
X247066Y-79402D01*
X250065Y-80402D02*
X251065Y-79402D01*
X253064D01*
X254064Y-80402D01*
Y-84400D01*
X253064Y-85400D01*
X251065D01*
X250065Y-84400D01*
Y-80402D01*
X256063Y-85400D02*
Y-84400D01*
X257063D01*
Y-85400D01*
X256063D01*
X265060Y-79402D02*
X263061Y-80402D01*
X261062Y-82401D01*
Y-84400D01*
X262061Y-85400D01*
X264061D01*
X265060Y-84400D01*
Y-83401D01*
X264061Y-82401D01*
X261062D01*
X267060Y-84400D02*
X268059Y-85400D01*
X270059D01*
X271058Y-84400D01*
Y-80402D01*
X270059Y-79402D01*
X268059D01*
X267060Y-80402D01*
Y-81401D01*
X268059Y-82401D01*
X271058D01*
X273058Y-80402D02*
X274057Y-79402D01*
X276057D01*
X277056Y-80402D01*
Y-81401D01*
X276057Y-82401D01*
X277056Y-83401D01*
Y-84400D01*
X276057Y-85400D01*
X274057D01*
X273058Y-84400D01*
Y-83401D01*
X274057Y-82401D01*
X273058Y-81401D01*
Y-80402D01*
X274057Y-82401D02*
X276057D01*
X283054Y-79402D02*
X279056D01*
Y-82401D01*
X281055Y-81401D01*
X282055D01*
X283054Y-82401D01*
Y-84400D01*
X282055Y-85400D01*
X280055D01*
X279056Y-84400D01*
X285054Y-85400D02*
Y-81401D01*
X286053D01*
X287053Y-82401D01*
Y-85400D01*
Y-82401D01*
X288053Y-81401D01*
X289053Y-82401D01*
Y-85400D01*
X291052D02*
Y-81401D01*
X292052D01*
X293051Y-82401D01*
Y-85400D01*
Y-82401D01*
X294051Y-81401D01*
X295051Y-82401D01*
Y-85400D01*
X297050D02*
X299049Y-83401D01*
Y-81401D01*
X297050Y-79402D01*
X569573Y-85400D02*
Y-79402D01*
X572573D01*
X573572Y-80402D01*
Y-82401D01*
X572573Y-83401D01*
X569573D01*
X575571Y-79402D02*
X579570D01*
X577571D01*
Y-85400D01*
X581569Y-79402D02*
Y-85400D01*
Y-82401D01*
X585568D01*
Y-79402D01*
Y-85400D01*
X619961D02*
Y-79402D01*
X622960D01*
X623960Y-80402D01*
Y-82401D01*
X622960Y-83401D01*
X619961D01*
X621960D02*
X623960Y-85400D01*
X626959D02*
X628958D01*
X629958Y-84400D01*
Y-82401D01*
X628958Y-81401D01*
X626959D01*
X625959Y-82401D01*
Y-84400D01*
X626959Y-85400D01*
X631957Y-81401D02*
Y-84400D01*
X632957Y-85400D01*
X635956D01*
Y-81401D01*
X637955Y-85400D02*
Y-81401D01*
X640954D01*
X641954Y-82401D01*
Y-85400D01*
X647952Y-79402D02*
Y-85400D01*
X644953D01*
X643953Y-84400D01*
Y-82401D01*
X644953Y-81401D01*
X647952D01*
X81699Y-92402D02*
X80699Y-91402D01*
X78700D01*
X77700Y-92402D01*
Y-96400D01*
X78700Y-97400D01*
X80699D01*
X81699Y-96400D01*
X133499Y-97400D02*
Y-91402D01*
X130500Y-94401D01*
X134499D01*
X200081Y-92402D02*
X201081Y-91402D01*
X203080D01*
X204080Y-92402D01*
Y-93401D01*
X203080Y-94401D01*
X202081D01*
X203080D01*
X204080Y-95401D01*
Y-96400D01*
X203080Y-97400D01*
X201081D01*
X200081Y-96400D01*
X206079Y-97400D02*
X208079D01*
X207079D01*
Y-91402D01*
X206079Y-92402D01*
X211078Y-97400D02*
Y-96400D01*
X212077D01*
Y-97400D01*
X211078D01*
X219075D02*
Y-91402D01*
X216076Y-94401D01*
X220075D01*
X222074Y-96400D02*
X223074Y-97400D01*
X225073D01*
X226073Y-96400D01*
Y-92402D01*
X225073Y-91402D01*
X223074D01*
X222074Y-92402D01*
Y-93401D01*
X223074Y-94401D01*
X226073D01*
X232071Y-91402D02*
X230072Y-92402D01*
X228072Y-94401D01*
Y-96400D01*
X229072Y-97400D01*
X231071D01*
X232071Y-96400D01*
Y-95401D01*
X231071Y-94401D01*
X228072D01*
X234070Y-97400D02*
Y-93401D01*
X235070D01*
X236070Y-94401D01*
Y-97400D01*
Y-94401D01*
X237069Y-93401D01*
X238069Y-94401D01*
Y-97400D01*
X240068D02*
X242068D01*
X241068D01*
Y-93401D01*
X240068D01*
X245067Y-97400D02*
X247066D01*
X246066D01*
Y-91402D01*
X245067D01*
X258063Y-97400D02*
X256063Y-95401D01*
Y-93401D01*
X258063Y-91402D01*
X261062Y-92402D02*
X262061Y-91402D01*
X264061D01*
X265060Y-92402D01*
Y-96400D01*
X264061Y-97400D01*
X262061D01*
X261062Y-96400D01*
Y-92402D01*
X267060Y-97400D02*
Y-96400D01*
X268059D01*
Y-97400D01*
X267060D01*
X272058Y-92402D02*
X273058Y-91402D01*
X275057D01*
X276057Y-92402D01*
Y-93401D01*
X275057Y-94401D01*
X276057Y-95401D01*
Y-96400D01*
X275057Y-97400D01*
X273058D01*
X272058Y-96400D01*
Y-95401D01*
X273058Y-94401D01*
X272058Y-93401D01*
Y-92402D01*
X273058Y-94401D02*
X275057D01*
X278056Y-97400D02*
Y-93401D01*
X279056D01*
X280055Y-94401D01*
Y-97400D01*
Y-94401D01*
X281055Y-93401D01*
X282055Y-94401D01*
Y-97400D01*
X284054D02*
Y-93401D01*
X285054D01*
X286053Y-94401D01*
Y-97400D01*
Y-94401D01*
X287053Y-93401D01*
X288053Y-94401D01*
Y-97400D01*
X290052D02*
X292052Y-95401D01*
Y-93401D01*
X290052Y-91402D01*
X569573Y-97400D02*
Y-91402D01*
X573572Y-97400D01*
Y-91402D01*
X575571Y-97400D02*
Y-91402D01*
X578571D01*
X579570Y-92402D01*
Y-94401D01*
X578571Y-95401D01*
X575571D01*
X581569Y-91402D02*
X585568D01*
X583569D01*
Y-97400D01*
X587568Y-91402D02*
Y-97400D01*
Y-94401D01*
X591566D01*
Y-91402D01*
Y-97400D01*
X619961D02*
Y-91402D01*
X622960D01*
X623960Y-92402D01*
Y-94401D01*
X622960Y-95401D01*
X619961D01*
X621960D02*
X623960Y-97400D01*
X626959D02*
X628958D01*
X629958Y-96400D01*
Y-94401D01*
X628958Y-93401D01*
X626959D01*
X625959Y-94401D01*
Y-96400D01*
X626959Y-97400D01*
X631957Y-93401D02*
Y-96400D01*
X632957Y-97400D01*
X635956D01*
Y-93401D01*
X637955Y-97400D02*
Y-93401D01*
X640954D01*
X641954Y-94401D01*
Y-97400D01*
X647952Y-91402D02*
Y-97400D01*
X644953D01*
X643953Y-96400D01*
Y-94401D01*
X644953Y-93401D01*
X647952D01*
X77700Y-103402D02*
Y-109400D01*
X80699D01*
X81699Y-108400D01*
Y-104402D01*
X80699Y-103402D01*
X77700D01*
X130500Y-104402D02*
X131500Y-103402D01*
X133499D01*
X134499Y-104402D01*
Y-105401D01*
X133499Y-106401D01*
X132499D01*
X133499D01*
X134499Y-107401D01*
Y-108400D01*
X133499Y-109400D01*
X131500D01*
X130500Y-108400D01*
X136498Y-104402D02*
X137498Y-103402D01*
X139497D01*
X140497Y-104402D01*
Y-108400D01*
X139497Y-109400D01*
X137498D01*
X136498Y-108400D01*
Y-104402D01*
X200081D02*
X201081Y-103402D01*
X203080D01*
X204080Y-104402D01*
Y-105401D01*
X203080Y-106401D01*
X202081D01*
X203080D01*
X204080Y-107401D01*
Y-108400D01*
X203080Y-109400D01*
X201081D01*
X200081Y-108400D01*
X210078Y-103402D02*
X206079D01*
Y-106401D01*
X208079Y-105401D01*
X209079D01*
X210078Y-106401D01*
Y-108400D01*
X209079Y-109400D01*
X207079D01*
X206079Y-108400D01*
X212077Y-109400D02*
Y-105401D01*
X213077D01*
X214077Y-106401D01*
Y-109400D01*
Y-106401D01*
X215076Y-105401D01*
X216076Y-106401D01*
Y-109400D01*
X218075D02*
X220075D01*
X219075D01*
Y-105401D01*
X218075D01*
X223074Y-109400D02*
X225073D01*
X224074D01*
Y-103402D01*
X223074D01*
X236070Y-109400D02*
X234070Y-107401D01*
Y-105401D01*
X236070Y-103402D01*
X239069Y-104402D02*
X240068Y-103402D01*
X242068D01*
X243068Y-104402D01*
Y-108400D01*
X242068Y-109400D01*
X240068D01*
X239069Y-108400D01*
Y-104402D01*
X245067Y-109400D02*
Y-108400D01*
X246066D01*
Y-109400D01*
X245067D01*
X250065Y-104402D02*
X251065Y-103402D01*
X253064D01*
X254064Y-104402D01*
Y-105401D01*
X253064Y-106401D01*
X254064Y-107401D01*
Y-108400D01*
X253064Y-109400D01*
X251065D01*
X250065Y-108400D01*
Y-107401D01*
X251065Y-106401D01*
X250065Y-105401D01*
Y-104402D01*
X251065Y-106401D02*
X253064D01*
X256063Y-104402D02*
X257063Y-103402D01*
X259062D01*
X260062Y-104402D01*
Y-105401D01*
X259062Y-106401D01*
X260062Y-107401D01*
Y-108400D01*
X259062Y-109400D01*
X257063D01*
X256063Y-108400D01*
Y-107401D01*
X257063Y-106401D01*
X256063Y-105401D01*
Y-104402D01*
X257063Y-106401D02*
X259062D01*
X262061Y-108400D02*
X263061Y-109400D01*
X265060D01*
X266060Y-108400D01*
Y-104402D01*
X265060Y-103402D01*
X263061D01*
X262061Y-104402D01*
Y-105401D01*
X263061Y-106401D01*
X266060D01*
X268059Y-109400D02*
Y-105401D01*
X269059D01*
X270059Y-106401D01*
Y-109400D01*
Y-106401D01*
X271058Y-105401D01*
X272058Y-106401D01*
Y-109400D01*
X274057D02*
Y-105401D01*
X275057D01*
X276057Y-106401D01*
Y-109400D01*
Y-106401D01*
X277056Y-105401D01*
X278056Y-106401D01*
Y-109400D01*
X280055D02*
X282055Y-107401D01*
Y-105401D01*
X280055Y-103402D01*
X569573Y-109400D02*
Y-103402D01*
X572573D01*
X573572Y-104402D01*
Y-106401D01*
X572573Y-107401D01*
X569573D01*
X575571Y-103402D02*
X579570D01*
X577571D01*
Y-109400D01*
X581569Y-103402D02*
Y-109400D01*
Y-106401D01*
X585568D01*
Y-103402D01*
Y-109400D01*
X619961D02*
Y-103402D01*
X622960D01*
X623960Y-104402D01*
Y-106401D01*
X622960Y-107401D01*
X619961D01*
X621960D02*
X623960Y-109400D01*
X626959D02*
X628958D01*
X629958Y-108400D01*
Y-106401D01*
X628958Y-105401D01*
X626959D01*
X625959Y-106401D01*
Y-108400D01*
X626959Y-109400D01*
X631957Y-105401D02*
Y-108400D01*
X632957Y-109400D01*
X635956D01*
Y-105401D01*
X637955Y-109400D02*
Y-105401D01*
X640954D01*
X641954Y-106401D01*
Y-109400D01*
X647952Y-103402D02*
Y-109400D01*
X644953D01*
X643953Y-108400D01*
Y-106401D01*
X644953Y-105401D01*
X647952D01*
X77700Y-115402D02*
Y-121400D01*
X80699D01*
X81699Y-120400D01*
Y-119401D01*
X80699Y-118401D01*
X77700D01*
X80699D01*
X81699Y-117401D01*
Y-116402D01*
X80699Y-115402D01*
X77700D01*
X134499Y-121400D02*
X130500D01*
X134499Y-117401D01*
Y-116402D01*
X133499Y-115402D01*
X131500D01*
X130500Y-116402D01*
X204080Y-121400D02*
X200081D01*
X204080Y-117401D01*
Y-116402D01*
X203080Y-115402D01*
X201081D01*
X200081Y-116402D01*
X206079Y-115402D02*
X210078D01*
Y-116402D01*
X206079Y-120400D01*
Y-121400D01*
X212077D02*
Y-120400D01*
X213077D01*
Y-121400D01*
X212077D01*
X221075Y-115402D02*
X217076D01*
Y-118401D01*
X219075Y-117401D01*
X220075D01*
X221075Y-118401D01*
Y-120400D01*
X220075Y-121400D01*
X218075D01*
X217076Y-120400D01*
X227073Y-115402D02*
X223074D01*
Y-118401D01*
X225073Y-117401D01*
X226073D01*
X227073Y-118401D01*
Y-120400D01*
X226073Y-121400D01*
X224074D01*
X223074Y-120400D01*
X229072D02*
X230072Y-121400D01*
X232071D01*
X233071Y-120400D01*
Y-116402D01*
X232071Y-115402D01*
X230072D01*
X229072Y-116402D01*
Y-117401D01*
X230072Y-118401D01*
X233071D01*
X235070Y-121400D02*
Y-117401D01*
X236070D01*
X237069Y-118401D01*
Y-121400D01*
Y-118401D01*
X238069Y-117401D01*
X239069Y-118401D01*
Y-121400D01*
X241068D02*
X243068D01*
X242068D01*
Y-117401D01*
X241068D01*
X246066Y-121400D02*
X248066D01*
X247066D01*
Y-115402D01*
X246066D01*
X259062Y-121400D02*
X257063Y-119401D01*
Y-117401D01*
X259062Y-115402D01*
X262061Y-116402D02*
X263061Y-115402D01*
X265060D01*
X266060Y-116402D01*
Y-120400D01*
X265060Y-121400D01*
X263061D01*
X262061Y-120400D01*
Y-116402D01*
X268059Y-121400D02*
Y-120400D01*
X269059D01*
Y-121400D01*
X268059D01*
X273058Y-115402D02*
X277056D01*
Y-116402D01*
X273058Y-120400D01*
Y-121400D01*
X279056D02*
Y-117401D01*
X280055D01*
X281055Y-118401D01*
Y-121400D01*
Y-118401D01*
X282055Y-117401D01*
X283054Y-118401D01*
Y-121400D01*
X285054D02*
Y-117401D01*
X286053D01*
X287053Y-118401D01*
Y-121400D01*
Y-118401D01*
X288053Y-117401D01*
X289053Y-118401D01*
Y-121400D01*
X291052D02*
X293051Y-119401D01*
Y-117401D01*
X291052Y-115402D01*
X337441Y-121400D02*
Y-115402D01*
X334442Y-118401D01*
X338440D01*
X340440Y-116402D02*
X341440Y-115402D01*
X343439D01*
X344439Y-116402D01*
Y-117401D01*
X343439Y-118401D01*
X342439D01*
X343439D01*
X344439Y-119401D01*
Y-120400D01*
X343439Y-121400D01*
X341440D01*
X340440Y-120400D01*
X346438Y-121400D02*
Y-120400D01*
X347438D01*
Y-121400D01*
X346438D01*
X351436Y-116402D02*
X352436Y-115402D01*
X354435D01*
X355435Y-116402D01*
Y-117401D01*
X354435Y-118401D01*
X353436D01*
X354435D01*
X355435Y-119401D01*
Y-120400D01*
X354435Y-121400D01*
X352436D01*
X351436Y-120400D01*
X357434Y-116402D02*
X358434Y-115402D01*
X360433D01*
X361433Y-116402D01*
Y-120400D01*
X360433Y-121400D01*
X358434D01*
X357434Y-120400D01*
Y-116402D01*
X363432Y-115402D02*
X367431D01*
Y-116402D01*
X363432Y-120400D01*
Y-121400D01*
X369430D02*
Y-117401D01*
X370430D01*
X371430Y-118401D01*
Y-121400D01*
Y-118401D01*
X372429Y-117401D01*
X373429Y-118401D01*
Y-121400D01*
X375429D02*
X377428D01*
X376428D01*
Y-117401D01*
X375429D01*
X380427Y-121400D02*
X382426D01*
X381427D01*
Y-115402D01*
X380427D01*
X393423Y-121400D02*
X391423Y-119401D01*
Y-117401D01*
X393423Y-115402D01*
X396422Y-121400D02*
X398421D01*
X397421D01*
Y-115402D01*
X396422Y-116402D01*
X401420Y-121400D02*
Y-120400D01*
X402420D01*
Y-121400D01*
X401420D01*
X406419D02*
X408418D01*
X407418D01*
Y-115402D01*
X406419Y-116402D01*
X411417Y-121400D02*
Y-117401D01*
X412417D01*
X413416Y-118401D01*
Y-121400D01*
Y-118401D01*
X414416Y-117401D01*
X415415Y-118401D01*
Y-121400D01*
X417415D02*
Y-117401D01*
X418415D01*
X419414Y-118401D01*
Y-121400D01*
Y-118401D01*
X420414Y-117401D01*
X421414Y-118401D01*
Y-121400D01*
X423413D02*
X425412Y-119401D01*
Y-117401D01*
X423413Y-115402D01*
X448409Y-121400D02*
X450408D01*
X449408D01*
Y-115402D01*
X448409Y-116402D01*
X457406Y-115402D02*
X453407D01*
Y-118401D01*
X455407Y-117401D01*
X456406D01*
X457406Y-118401D01*
Y-120400D01*
X456406Y-121400D01*
X454407D01*
X453407Y-120400D01*
X459405Y-121400D02*
Y-120400D01*
X460405D01*
Y-121400D01*
X459405D01*
X464404Y-115402D02*
X468402D01*
Y-116402D01*
X464404Y-120400D01*
Y-121400D01*
X473401D02*
Y-115402D01*
X470402Y-118401D01*
X474400D01*
X476400Y-116402D02*
X477399Y-115402D01*
X479399D01*
X480398Y-116402D01*
Y-117401D01*
X479399Y-118401D01*
X480398Y-119401D01*
Y-120400D01*
X479399Y-121400D01*
X477399D01*
X476400Y-120400D01*
Y-119401D01*
X477399Y-118401D01*
X476400Y-117401D01*
Y-116402D01*
X477399Y-118401D02*
X479399D01*
X482398Y-121400D02*
Y-117401D01*
X483397D01*
X484397Y-118401D01*
Y-121400D01*
Y-118401D01*
X485397Y-117401D01*
X486397Y-118401D01*
Y-121400D01*
X488396D02*
X490395D01*
X489396D01*
Y-117401D01*
X488396D01*
X493394Y-121400D02*
X495394D01*
X494394D01*
Y-115402D01*
X493394D01*
X506390Y-121400D02*
X504391Y-119401D01*
Y-117401D01*
X506390Y-115402D01*
X509389Y-116402D02*
X510389Y-115402D01*
X512388D01*
X513388Y-116402D01*
Y-120400D01*
X512388Y-121400D01*
X510389D01*
X509389Y-120400D01*
Y-116402D01*
X515387Y-121400D02*
Y-120400D01*
X516387D01*
Y-121400D01*
X515387D01*
X523385D02*
Y-115402D01*
X520386Y-118401D01*
X524384D01*
X526383Y-121400D02*
Y-117401D01*
X527383D01*
X528383Y-118401D01*
Y-121400D01*
Y-118401D01*
X529383Y-117401D01*
X530382Y-118401D01*
Y-121400D01*
X532382D02*
Y-117401D01*
X533381D01*
X534381Y-118401D01*
Y-121400D01*
Y-118401D01*
X535381Y-117401D01*
X536380Y-118401D01*
Y-121400D01*
X538380D02*
X540379Y-119401D01*
Y-117401D01*
X538380Y-115402D01*
X569573Y-121400D02*
Y-115402D01*
X572573D01*
X573572Y-116402D01*
Y-118401D01*
X572573Y-119401D01*
X569573D01*
X575571Y-115402D02*
X579570D01*
X577571D01*
Y-121400D01*
X581569Y-115402D02*
Y-121400D01*
Y-118401D01*
X585568D01*
Y-115402D01*
Y-121400D01*
X623960Y-116402D02*
X622960Y-115402D01*
X620961D01*
X619961Y-116402D01*
Y-117401D01*
X620961Y-118401D01*
X622960D01*
X623960Y-119401D01*
Y-120400D01*
X622960Y-121400D01*
X620961D01*
X619961Y-120400D01*
X625959Y-121400D02*
X627958D01*
X626959D01*
Y-115402D01*
X625959D01*
X631957Y-121400D02*
X633956D01*
X634956Y-120400D01*
Y-118401D01*
X633956Y-117401D01*
X631957D01*
X630957Y-118401D01*
Y-120400D01*
X631957Y-121400D01*
X637955Y-116402D02*
Y-117401D01*
X636955D01*
X638955D01*
X637955D01*
Y-120400D01*
X638955Y-121400D01*
X130500Y-128402D02*
X131500Y-127402D01*
X133499D01*
X134499Y-128402D01*
Y-129401D01*
X133499Y-130401D01*
X132499D01*
X133499D01*
X134499Y-131401D01*
Y-132400D01*
X133499Y-133400D01*
X131500D01*
X130500Y-132400D01*
X136498Y-128402D02*
X137498Y-127402D01*
X139497D01*
X140497Y-128402D01*
Y-132400D01*
X139497Y-133400D01*
X137498D01*
X136498Y-132400D01*
Y-128402D01*
X145495Y-133400D02*
Y-127402D01*
X142496Y-130401D01*
X146495D01*
X157295Y-127402D02*
X161293D01*
X159294D01*
Y-133400D01*
X164293D02*
X166292D01*
X167292Y-132400D01*
Y-130401D01*
X166292Y-129401D01*
X164293D01*
X163293Y-130401D01*
Y-132400D01*
X164293Y-133400D01*
X170291Y-128402D02*
Y-129401D01*
X169291D01*
X171290D01*
X170291D01*
Y-132400D01*
X171290Y-133400D01*
X175289Y-129401D02*
X177288D01*
X178288Y-130401D01*
Y-133400D01*
X175289D01*
X174289Y-132400D01*
X175289Y-131401D01*
X178288D01*
X180287Y-133400D02*
X182287D01*
X181287D01*
Y-127402D01*
X180287D01*
X285038Y-143401D02*
X289036D01*
X285038Y-141401D02*
X289036D01*
X301032Y-140402D02*
X300033Y-139402D01*
X298033D01*
X297034Y-140402D01*
Y-144400D01*
X298033Y-145400D01*
X300033D01*
X301032Y-144400D01*
X304031Y-141401D02*
X306031D01*
X307031Y-142401D01*
Y-145400D01*
X304031D01*
X303032Y-144400D01*
X304031Y-143401D01*
X307031D01*
X309030Y-145400D02*
X311029D01*
X310030D01*
Y-139402D01*
X309030D01*
X318027Y-141401D02*
X315028D01*
X314028Y-142401D01*
Y-144400D01*
X315028Y-145400D01*
X318027D01*
X320026Y-141401D02*
Y-144400D01*
X321026Y-145400D01*
X324025D01*
Y-141401D01*
X326024Y-145400D02*
X328024D01*
X327024D01*
Y-139402D01*
X326024D01*
X332022Y-141401D02*
X334022D01*
X335021Y-142401D01*
Y-145400D01*
X332022D01*
X331023Y-144400D01*
X332022Y-143401D01*
X335021D01*
X338020Y-140402D02*
Y-141401D01*
X337021D01*
X339020D01*
X338020D01*
Y-144400D01*
X339020Y-145400D01*
X345018D02*
X343019D01*
X342019Y-144400D01*
Y-142401D01*
X343019Y-141401D01*
X345018D01*
X346018Y-142401D01*
Y-143401D01*
X342019D01*
X352016Y-139402D02*
Y-145400D01*
X349017D01*
X348017Y-144400D01*
Y-142401D01*
X349017Y-141401D01*
X352016D01*
X361013Y-145400D02*
Y-140402D01*
Y-142401D01*
X360013D01*
X362013D01*
X361013D01*
Y-140402D01*
X362013Y-139402D01*
X365012Y-141401D02*
Y-145400D01*
Y-143401D01*
X366011Y-142401D01*
X367011Y-141401D01*
X368011D01*
X372009Y-145400D02*
X374009D01*
X375009Y-144400D01*
Y-142401D01*
X374009Y-141401D01*
X372009D01*
X371010Y-142401D01*
Y-144400D01*
X372009Y-145400D01*
X377008D02*
Y-141401D01*
X378008D01*
X379007Y-142401D01*
Y-145400D01*
Y-142401D01*
X380007Y-141401D01*
X381007Y-142401D01*
Y-145400D01*
X390004Y-140402D02*
Y-141401D01*
X389004D01*
X391003D01*
X390004D01*
Y-144400D01*
X391003Y-145400D01*
X395002D02*
X397001D01*
X398001Y-144400D01*
Y-142401D01*
X397001Y-141401D01*
X395002D01*
X394002Y-142401D01*
Y-144400D01*
X395002Y-145400D01*
X401000D02*
X402999D01*
X403999Y-144400D01*
Y-142401D01*
X402999Y-141401D01*
X401000D01*
X400000Y-142401D01*
Y-144400D01*
X401000Y-145400D01*
X405998D02*
X407998D01*
X406998D01*
Y-139402D01*
X405998D01*
X416995Y-145400D02*
X419994D01*
X420994Y-144400D01*
X419994Y-143401D01*
X417994D01*
X416995Y-142401D01*
X417994Y-141401D01*
X420994D01*
X423993Y-140402D02*
Y-141401D01*
X422993D01*
X424992D01*
X423993D01*
Y-144400D01*
X424992Y-145400D01*
X428991Y-141401D02*
X430990D01*
X431990Y-142401D01*
Y-145400D01*
X428991D01*
X427991Y-144400D01*
X428991Y-143401D01*
X431990D01*
X433989Y-141401D02*
Y-145400D01*
Y-143401D01*
X434989Y-142401D01*
X435989Y-141401D01*
X436988D01*
X440987Y-140402D02*
Y-141401D01*
X439987D01*
X441987D01*
X440987D01*
Y-144400D01*
X441987Y-145400D01*
X454983Y-141401D02*
X451984D01*
X450984Y-142401D01*
Y-144400D01*
X451984Y-145400D01*
X454983D01*
X459981D02*
X457982D01*
X456982Y-144400D01*
Y-142401D01*
X457982Y-141401D01*
X459981D01*
X460981Y-142401D01*
Y-143401D01*
X456982D01*
X462980Y-145400D02*
Y-141401D01*
X465979D01*
X466979Y-142401D01*
Y-145400D01*
X469978Y-140402D02*
Y-141401D01*
X468978D01*
X470977D01*
X469978D01*
Y-144400D01*
X470977Y-145400D01*
X473976Y-141401D02*
Y-145400D01*
Y-143401D01*
X474976Y-142401D01*
X475976Y-141401D01*
X476975D01*
X482973Y-145400D02*
X480974D01*
X479975Y-144400D01*
Y-142401D01*
X480974Y-141401D01*
X482973D01*
X483973Y-142401D01*
Y-143401D01*
X479975D01*
X491971Y-147399D02*
Y-141401D01*
X494970D01*
X495969Y-142401D01*
Y-144400D01*
X494970Y-145400D01*
X491971D01*
X498968D02*
X500968D01*
X501967Y-144400D01*
Y-142401D01*
X500968Y-141401D01*
X498968D01*
X497969Y-142401D01*
Y-144400D01*
X498968Y-145400D01*
X503967D02*
X506966D01*
X507965Y-144400D01*
X506966Y-143401D01*
X504966D01*
X503967Y-142401D01*
X504966Y-141401D01*
X507965D01*
X509965Y-145400D02*
X511964D01*
X510964D01*
Y-141401D01*
X509965D01*
X515963Y-140402D02*
Y-141401D01*
X514963D01*
X516962D01*
X515963D01*
Y-144400D01*
X516962Y-145400D01*
X519962D02*
X521961D01*
X520961D01*
Y-141401D01*
X519962D01*
X525960Y-145400D02*
X527959D01*
X528959Y-144400D01*
Y-142401D01*
X527959Y-141401D01*
X525960D01*
X524960Y-142401D01*
Y-144400D01*
X525960Y-145400D01*
X530958D02*
Y-141401D01*
X533957D01*
X534957Y-142401D01*
Y-145400D01*
X543954Y-140402D02*
Y-141401D01*
X542954D01*
X544953D01*
X543954D01*
Y-144400D01*
X544953Y-145400D01*
X548952D02*
X550951D01*
X551951Y-144400D01*
Y-142401D01*
X550951Y-141401D01*
X548952D01*
X547953Y-142401D01*
Y-144400D01*
X548952Y-145400D01*
X560948Y-140402D02*
Y-141401D01*
X559949D01*
X561948D01*
X560948D01*
Y-144400D01*
X561948Y-145400D01*
X565947D02*
X567946D01*
X568946Y-144400D01*
Y-142401D01*
X567946Y-141401D01*
X565947D01*
X564947Y-142401D01*
Y-144400D01*
X565947Y-145400D01*
X571945D02*
X573944D01*
X574944Y-144400D01*
Y-142401D01*
X573944Y-141401D01*
X571945D01*
X570945Y-142401D01*
Y-144400D01*
X571945Y-145400D01*
X576943D02*
X578942D01*
X577943D01*
Y-139402D01*
X576943D01*
X590939Y-145400D02*
X588939D01*
X587940Y-144400D01*
Y-142401D01*
X588939Y-141401D01*
X590939D01*
X591938Y-142401D01*
Y-143401D01*
X587940D01*
X593938Y-145400D02*
Y-141401D01*
X596937D01*
X597936Y-142401D01*
Y-145400D01*
X603934Y-139402D02*
Y-145400D01*
X600935D01*
X599936Y-144400D01*
Y-142401D01*
X600935Y-141401D01*
X603934D01*
X615931D02*
X612931D01*
X611932Y-142401D01*
Y-144400D01*
X612931Y-145400D01*
X615931D01*
X620929D02*
X618929D01*
X617930Y-144400D01*
Y-142401D01*
X618929Y-141401D01*
X620929D01*
X621929Y-142401D01*
Y-143401D01*
X617930D01*
X623928Y-145400D02*
Y-141401D01*
X626927D01*
X627927Y-142401D01*
Y-145400D01*
X630926Y-140402D02*
Y-141401D01*
X629926D01*
X631925D01*
X630926D01*
Y-144400D01*
X631925Y-145400D01*
X634924Y-141401D02*
Y-145400D01*
Y-143401D01*
X635924Y-142401D01*
X636924Y-141401D01*
X637923D01*
X643921Y-145400D02*
X641922D01*
X640922Y-144400D01*
Y-142401D01*
X641922Y-141401D01*
X643921D01*
X644921Y-142401D01*
Y-143401D01*
X640922D01*
X652918Y-147399D02*
Y-141401D01*
X655918D01*
X656917Y-142401D01*
Y-144400D01*
X655918Y-145400D01*
X652918D01*
X659916D02*
X661916D01*
X662915Y-144400D01*
Y-142401D01*
X661916Y-141401D01*
X659916D01*
X658917Y-142401D01*
Y-144400D01*
X659916Y-145400D01*
X664915D02*
X667914D01*
X668913Y-144400D01*
X667914Y-143401D01*
X665914D01*
X664915Y-142401D01*
X665914Y-141401D01*
X668913D01*
X670913Y-145400D02*
X672912D01*
X671912D01*
Y-141401D01*
X670913D01*
X676911Y-140402D02*
Y-141401D01*
X675911D01*
X677910D01*
X676911D01*
Y-144400D01*
X677910Y-145400D01*
X680909D02*
X682909D01*
X681909D01*
Y-141401D01*
X680909D01*
X686907Y-145400D02*
X688907D01*
X689907Y-144400D01*
Y-142401D01*
X688907Y-141401D01*
X686907D01*
X685908Y-142401D01*
Y-144400D01*
X686907Y-145400D01*
X691906D02*
Y-141401D01*
X694905D01*
X695905Y-142401D01*
Y-145400D01*
X697904D02*
Y-144400D01*
X698904D01*
Y-145400D01*
X697904D01*
X285038Y-155401D02*
X289036D01*
X285038Y-153401D02*
X289036D01*
X297034Y-157400D02*
Y-151402D01*
X300033D01*
X301032Y-152402D01*
Y-154401D01*
X300033Y-155401D01*
X297034D01*
X299033D02*
X301032Y-157400D01*
X304031D02*
X306031D01*
X307031Y-156400D01*
Y-154401D01*
X306031Y-153401D01*
X304031D01*
X303032Y-154401D01*
Y-156400D01*
X304031Y-157400D01*
X309030Y-153401D02*
Y-156400D01*
X310030Y-157400D01*
X313029D01*
Y-153401D01*
X316028Y-152402D02*
Y-153401D01*
X315028D01*
X317027D01*
X316028D01*
Y-156400D01*
X317027Y-157400D01*
X326024D02*
Y-151402D01*
X329023D01*
X330023Y-152402D01*
Y-154401D01*
X329023Y-155401D01*
X326024D01*
X333022Y-153401D02*
X335021D01*
X336021Y-154401D01*
Y-157400D01*
X333022D01*
X332022Y-156400D01*
X333022Y-155401D01*
X336021D01*
X339020Y-152402D02*
Y-153401D01*
X338020D01*
X340020D01*
X339020D01*
Y-156400D01*
X340020Y-157400D01*
X343019Y-151402D02*
Y-157400D01*
Y-154401D01*
X344019Y-153401D01*
X346018D01*
X347018Y-154401D01*
Y-157400D01*
X355015Y-151402D02*
Y-157400D01*
X359014D01*
X364012D02*
X362013D01*
X361013Y-156400D01*
Y-154401D01*
X362013Y-153401D01*
X364012D01*
X365012Y-154401D01*
Y-155401D01*
X361013D01*
X367011Y-157400D02*
Y-153401D01*
X370010D01*
X371010Y-154401D01*
Y-157400D01*
X375009Y-159399D02*
X376008D01*
X377008Y-158400D01*
Y-153401D01*
X374009D01*
X373009Y-154401D01*
Y-156400D01*
X374009Y-157400D01*
X377008D01*
X380007Y-152402D02*
Y-153401D01*
X379007D01*
X381007D01*
X380007D01*
Y-156400D01*
X381007Y-157400D01*
X384005Y-151402D02*
Y-157400D01*
Y-154401D01*
X385005Y-153401D01*
X387005D01*
X388004Y-154401D01*
Y-157400D01*
X396002Y-154401D02*
X400000D01*
X398001Y-152402D02*
Y-156400D01*
X407998Y-151402D02*
X411997D01*
X409997D01*
Y-157400D01*
X414995D02*
X416995D01*
X417995Y-156400D01*
Y-154401D01*
X416995Y-153401D01*
X414995D01*
X413996Y-154401D01*
Y-156400D01*
X414995Y-157400D01*
X420994D02*
X422993D01*
X423993Y-156400D01*
Y-154401D01*
X422993Y-153401D01*
X420994D01*
X419994Y-154401D01*
Y-156400D01*
X420994Y-157400D01*
X425992D02*
X427991D01*
X426992D01*
Y-151402D01*
X425992D01*
X440987Y-152402D02*
X439987Y-151402D01*
X437988D01*
X436988Y-152402D01*
Y-153401D01*
X437988Y-154401D01*
X439987D01*
X440987Y-155401D01*
Y-156400D01*
X439987Y-157400D01*
X437988D01*
X436988Y-156400D01*
X442986Y-157400D02*
X444986D01*
X443986D01*
Y-153401D01*
X442986D01*
X447985D02*
X451984D01*
X447985Y-157400D01*
X451984D01*
X456982D02*
X454983D01*
X453983Y-156400D01*
Y-154401D01*
X454983Y-153401D01*
X456982D01*
X457982Y-154401D01*
Y-155401D01*
X453983D01*
X465979D02*
X469978D01*
X465979Y-153401D02*
X469978D01*
X481974Y-152402D02*
X480974Y-151402D01*
X478975D01*
X477975Y-152402D01*
Y-153401D01*
X478975Y-154401D01*
X480974D01*
X481974Y-155401D01*
Y-156400D01*
X480974Y-157400D01*
X478975D01*
X477975Y-156400D01*
X483973Y-157400D02*
X485973D01*
X484973D01*
Y-151402D01*
X483973D01*
X489971Y-157400D02*
X491971D01*
X492970Y-156400D01*
Y-154401D01*
X491971Y-153401D01*
X489971D01*
X488972Y-154401D01*
Y-156400D01*
X489971Y-157400D01*
X495969Y-152402D02*
Y-153401D01*
X494970D01*
X496969D01*
X495969D01*
Y-156400D01*
X496969Y-157400D01*
X505966D02*
X507965D01*
X506966D01*
Y-151402D01*
X505966D01*
X513964Y-157400D02*
X511964D01*
X510964Y-156400D01*
Y-154401D01*
X511964Y-153401D01*
X513964D01*
X514963Y-154401D01*
Y-155401D01*
X510964D01*
X516962Y-157400D02*
Y-153401D01*
X519962D01*
X520961Y-154401D01*
Y-157400D01*
X524960Y-159399D02*
X525960D01*
X526959Y-158400D01*
Y-153401D01*
X523960D01*
X522961Y-154401D01*
Y-156400D01*
X523960Y-157400D01*
X526959D01*
X529958Y-152402D02*
Y-153401D01*
X528959D01*
X530958D01*
X529958D01*
Y-156400D01*
X530958Y-157400D01*
X533957Y-151402D02*
Y-157400D01*
Y-154401D01*
X534957Y-153401D01*
X536956D01*
X537956Y-154401D01*
Y-157400D01*
X546953Y-153401D02*
X548952D01*
X549952Y-154401D01*
Y-157400D01*
X546953D01*
X545953Y-156400D01*
X546953Y-155401D01*
X549952D01*
X551951Y-157400D02*
X554950D01*
X555950Y-156400D01*
X554950Y-155401D01*
X552951D01*
X551951Y-154401D01*
X552951Y-153401D01*
X555950D01*
X567946Y-151402D02*
Y-157400D01*
X564947D01*
X563947Y-156400D01*
Y-154401D01*
X564947Y-153401D01*
X567946D01*
X572944Y-157400D02*
X570945D01*
X569945Y-156400D01*
Y-154401D01*
X570945Y-153401D01*
X572944D01*
X573944Y-154401D01*
Y-155401D01*
X569945D01*
X576943Y-157400D02*
Y-152402D01*
Y-154401D01*
X575944D01*
X577943D01*
X576943D01*
Y-152402D01*
X577943Y-151402D01*
X580942Y-157400D02*
X582941D01*
X581942D01*
Y-153401D01*
X580942D01*
X585940Y-157400D02*
Y-153401D01*
X588939D01*
X589939Y-154401D01*
Y-157400D01*
X594937D02*
X592938D01*
X591938Y-156400D01*
Y-154401D01*
X592938Y-153401D01*
X594937D01*
X595937Y-154401D01*
Y-155401D01*
X591938D01*
X601935Y-151402D02*
Y-157400D01*
X598936D01*
X597936Y-156400D01*
Y-154401D01*
X598936Y-153401D01*
X601935D01*
X609932Y-157400D02*
X611932D01*
X610932D01*
Y-153401D01*
X609932D01*
X614931Y-157400D02*
Y-153401D01*
X617930D01*
X618929Y-154401D01*
Y-157400D01*
X627927Y-152402D02*
Y-153401D01*
X626927D01*
X628926D01*
X627927D01*
Y-156400D01*
X628926Y-157400D01*
X631925Y-151402D02*
Y-157400D01*
Y-154401D01*
X632925Y-153401D01*
X634924D01*
X635924Y-154401D01*
Y-157400D01*
X640922D02*
X638923D01*
X637923Y-156400D01*
Y-154401D01*
X638923Y-153401D01*
X640922D01*
X641922Y-154401D01*
Y-155401D01*
X637923D01*
X649920Y-157400D02*
Y-151402D01*
X652918D01*
X653918Y-152402D01*
Y-154401D01*
X652918Y-155401D01*
X649920D01*
X659916Y-152402D02*
X658917Y-151402D01*
X656917D01*
X655918Y-152402D01*
Y-156400D01*
X656917Y-157400D01*
X658917D01*
X659916Y-156400D01*
X661916Y-151402D02*
Y-157400D01*
X664915D01*
X665914Y-156400D01*
Y-155401D01*
X664915Y-154401D01*
X661916D01*
X664915D01*
X665914Y-153401D01*
Y-152402D01*
X664915Y-151402D01*
X661916D01*
X673912Y-157400D02*
X675911D01*
X674911D01*
Y-151402D01*
X673912D01*
X679910Y-153401D02*
X681909D01*
X682909Y-154401D01*
Y-157400D01*
X679910D01*
X678910Y-156400D01*
X679910Y-155401D01*
X682909D01*
X684908Y-153401D02*
Y-156400D01*
X685908Y-157400D01*
X688907D01*
Y-158400D01*
X687907Y-159399D01*
X686907D01*
X688907Y-157400D02*
Y-153401D01*
X691906Y-157400D02*
X693905D01*
X694905Y-156400D01*
Y-154401D01*
X693905Y-153401D01*
X691906D01*
X690906Y-154401D01*
Y-156400D01*
X691906Y-157400D01*
X696904Y-153401D02*
Y-156400D01*
X697904Y-157400D01*
X700903D01*
Y-153401D01*
X703902Y-152402D02*
Y-153401D01*
X702902D01*
X704902D01*
X703902D01*
Y-156400D01*
X704902Y-157400D01*
D38*
X9550Y-119000D02*
Y-115668D01*
X11216Y-114002D01*
X12882Y-115668D01*
Y-119000D01*
Y-116501D01*
X9550D01*
X-9550Y-119000D02*
Y-115668D01*
X-7884Y-114002D01*
X-6218Y-115668D01*
Y-119000D01*
Y-116501D01*
X-9550D01*
X-14300Y-124402D02*
Y-129400D01*
X-11801D01*
X-10968Y-128567D01*
Y-127734D01*
X-11801Y-126901D01*
X-14300D01*
X-11801D01*
X-10968Y-126068D01*
Y-125235D01*
X-11801Y-124402D01*
X-14300D01*
X14300D02*
Y-129400D01*
X16799D01*
X17632Y-128567D01*
Y-127734D01*
X16799Y-126901D01*
X14300D01*
X16799D01*
X17632Y-126068D01*
Y-125235D01*
X16799Y-124402D01*
X14300D01*
X29789Y-119835D02*
X28956Y-119002D01*
X27290D01*
X26457Y-119835D01*
Y-123167D01*
X27290Y-124000D01*
X28956D01*
X29789Y-123167D01*
X36876Y-119835D02*
X36042Y-119002D01*
X34376D01*
X33543Y-119835D01*
Y-123167D01*
X34376Y-124000D01*
X36042D01*
X36876Y-123167D01*
X-30211Y-119835D02*
X-31044Y-119002D01*
X-32710D01*
X-33543Y-119835D01*
Y-123167D01*
X-32710Y-124000D01*
X-31044D01*
X-30211Y-123167D01*
X-23124Y-119835D02*
X-23957Y-119002D01*
X-25624D01*
X-26457Y-119835D01*
Y-123167D01*
X-25624Y-124000D01*
X-23957D01*
X-23124Y-123167D01*
X55000Y24998D02*
Y20000D01*
X57499D01*
X58332Y20833D01*
Y24165D01*
X57499Y24998D01*
X55000D01*
Y-15002D02*
Y-20000D01*
X57499D01*
X58332Y-19167D01*
Y-15835D01*
X57499Y-15002D01*
X55000D01*
Y-5002D02*
Y-10000D01*
X57499D01*
X58332Y-9167D01*
Y-5835D01*
X57499Y-5002D01*
X55000D01*
Y4998D02*
Y0D01*
X57499D01*
X58332Y833D01*
Y4165D01*
X57499Y4998D01*
X55000D01*
Y14998D02*
Y10000D01*
X57499D01*
X58332Y10833D01*
Y14165D01*
X57499Y14998D01*
X55000D01*
Y-25002D02*
Y-30000D01*
X57499D01*
X58332Y-29167D01*
Y-25835D01*
X57499Y-25002D01*
X55000D01*
Y-35002D02*
Y-40000D01*
X57499D01*
X58332Y-39167D01*
Y-35835D01*
X57499Y-35002D01*
X55000D01*
Y-45002D02*
Y-50000D01*
X57499D01*
X58332Y-49167D01*
Y-45835D01*
X57499Y-45002D01*
X55000D01*
Y-55002D02*
Y-60000D01*
X57499D01*
X58332Y-59167D01*
Y-55835D01*
X57499Y-55002D01*
X55000D01*
Y-115002D02*
Y-120000D01*
X57499D01*
X58332Y-119167D01*
Y-115835D01*
X57499Y-115002D01*
X55000D01*
Y-105002D02*
Y-110000D01*
X57499D01*
X58332Y-109167D01*
Y-105835D01*
X57499Y-105002D01*
X55000D01*
Y-95002D02*
Y-100000D01*
X57499D01*
X58332Y-99167D01*
Y-95835D01*
X57499Y-95002D01*
X55000D01*
Y-85002D02*
Y-90000D01*
X57499D01*
X58332Y-89167D01*
Y-85835D01*
X57499Y-85002D01*
X55000D01*
Y-75002D02*
Y-80000D01*
X57499D01*
X58332Y-79167D01*
Y-75835D01*
X57499Y-75002D01*
X55000D01*
Y-65002D02*
Y-70000D01*
X57499D01*
X58332Y-69167D01*
Y-65835D01*
X57499Y-65002D01*
X55000D01*
X-55000Y24998D02*
Y20000D01*
X-52501D01*
X-51668Y20833D01*
Y24165D01*
X-52501Y24998D01*
X-55000D01*
Y-15002D02*
Y-20000D01*
X-52501D01*
X-51668Y-19167D01*
Y-15835D01*
X-52501Y-15002D01*
X-55000D01*
Y-5002D02*
Y-10000D01*
X-52501D01*
X-51668Y-9167D01*
Y-5835D01*
X-52501Y-5002D01*
X-55000D01*
Y4998D02*
Y0D01*
X-52501D01*
X-51668Y833D01*
Y4165D01*
X-52501Y4998D01*
X-55000D01*
Y14998D02*
Y10000D01*
X-52501D01*
X-51668Y10833D01*
Y14165D01*
X-52501Y14998D01*
X-55000D01*
Y-25002D02*
Y-30000D01*
X-52501D01*
X-51668Y-29167D01*
Y-25835D01*
X-52501Y-25002D01*
X-55000D01*
Y-35002D02*
Y-40000D01*
X-52501D01*
X-51668Y-39167D01*
Y-35835D01*
X-52501Y-35002D01*
X-55000D01*
Y-45002D02*
Y-50000D01*
X-52501D01*
X-51668Y-49167D01*
Y-45835D01*
X-52501Y-45002D01*
X-55000D01*
Y-55002D02*
Y-60000D01*
X-52501D01*
X-51668Y-59167D01*
Y-55835D01*
X-52501Y-55002D01*
X-55000D01*
Y-115002D02*
Y-120000D01*
X-52501D01*
X-51668Y-119167D01*
Y-115835D01*
X-52501Y-115002D01*
X-55000D01*
Y-105002D02*
Y-110000D01*
X-52501D01*
X-51668Y-109167D01*
Y-105835D01*
X-52501Y-105002D01*
X-55000D01*
Y-95002D02*
Y-100000D01*
X-52501D01*
X-51668Y-99167D01*
Y-95835D01*
X-52501Y-95002D01*
X-55000D01*
Y-85002D02*
Y-90000D01*
X-52501D01*
X-51668Y-89167D01*
Y-85835D01*
X-52501Y-85002D01*
X-55000D01*
Y-75002D02*
Y-80000D01*
X-52501D01*
X-51668Y-79167D01*
Y-75835D01*
X-52501Y-75002D01*
X-55000D01*
Y-65002D02*
Y-70000D01*
X-52501D01*
X-51668Y-69167D01*
Y-65835D01*
X-52501Y-65002D01*
X-55000D01*
X-43468Y-72102D02*
X-46800D01*
Y-77100D01*
X-43468D01*
X-46800Y-74601D02*
X-45134D01*
X-1268Y-106802D02*
X-4600D01*
Y-111800D01*
X-1268D01*
X-4600Y-109301D02*
X-2934D01*
X-45968Y-99302D02*
X-49300D01*
Y-104300D01*
X-45968D01*
X-49300Y-101801D02*
X-47634D01*
X-45968Y-108002D02*
X-49300D01*
Y-113000D01*
X-45968D01*
X-49300Y-110501D02*
X-47634D01*
X-39368Y-104877D02*
X-42700D01*
Y-109875D01*
X-39368D01*
X-42700Y-107376D02*
X-41034D01*
X-39368Y-95827D02*
X-42700D01*
Y-100825D01*
X-39368D01*
X-42700Y-98326D02*
X-41034D01*
X-39368Y-100352D02*
X-42700D01*
Y-105350D01*
X-39368D01*
X-42700Y-102851D02*
X-41034D01*
X51732Y-101902D02*
X48400D01*
Y-106900D01*
X51732D01*
X48400Y-104401D02*
X50066D01*
X50732Y-112702D02*
X47400D01*
Y-117700D01*
X50732D01*
X47400Y-115201D02*
X49066D01*
X49482Y-119302D02*
X46150D01*
Y-124300D01*
X49482D01*
X46150Y-121801D02*
X47816D01*
X46332Y-119302D02*
X43000D01*
Y-124300D01*
X46332D01*
X43000Y-121801D02*
X44666D01*
X43182Y-119302D02*
X39850D01*
Y-124300D01*
X43182D01*
X39850Y-121801D02*
X41516D01*
X47732Y-109802D02*
X44400D01*
Y-114800D01*
X47732D01*
X44400Y-112301D02*
X46066D01*
X45982Y22098D02*
X42650D01*
Y17100D01*
X45982D01*
X42650Y19599D02*
X44316D01*
X49132Y22098D02*
X45800D01*
Y17100D01*
X49132D01*
X45800Y19599D02*
X47466D01*
X52282Y22098D02*
X48950D01*
Y17100D01*
X52282D01*
X48950Y19599D02*
X50616D01*
X28232Y-106802D02*
X24900D01*
Y-111800D01*
X28232D01*
X24900Y-109301D02*
X26566D01*
X24516Y-106802D02*
X21183D01*
Y-111800D01*
X24516D01*
X21183Y-109301D02*
X22849D01*
X-39368Y-109402D02*
X-42700D01*
Y-114400D01*
X-39368D01*
X-42700Y-111901D02*
X-41034D01*
X18032Y-9202D02*
X14700D01*
Y-14200D01*
X18032D01*
X14700Y-11701D02*
X16366D01*
X14932Y-19702D02*
X11600D01*
Y-24700D01*
X14932D01*
X11600Y-22201D02*
X13266D01*
X18082Y-19702D02*
X14750D01*
Y-24700D01*
X18082D01*
X14750Y-22201D02*
X16416D01*
X5932Y-106802D02*
X2600D01*
Y-111800D01*
X5932D01*
X2600Y-109301D02*
X4266D01*
X-9868Y-25752D02*
X-13200D01*
Y-30750D01*
X-9868D01*
X-13200Y-28251D02*
X-11534D01*
X-15468Y-25752D02*
X-18800D01*
Y-30750D01*
X-15468D01*
X-18800Y-28251D02*
X-17134D01*
X18532Y-44702D02*
X15200D01*
Y-49700D01*
X18532D01*
X15200Y-47201D02*
X16866D01*
X18532Y-49102D02*
X15200D01*
Y-54100D01*
X18532D01*
X15200Y-51601D02*
X16866D01*
X-15468Y-22602D02*
X-18800D01*
Y-27600D01*
X-15468D01*
X-18800Y-25101D02*
X-17134D01*
X-9868Y-22602D02*
X-13200D01*
Y-27600D01*
X-9868D01*
X-13200Y-25101D02*
X-11534D01*
X-9868Y-30552D02*
X-13200D01*
Y-35550D01*
X-9868D01*
X-13200Y-33051D02*
X-11534D01*
X-15468Y-30552D02*
X-18800D01*
Y-35550D01*
X-15468D01*
X-18800Y-33051D02*
X-17134D01*
X-39368Y-85502D02*
X-42700D01*
Y-90500D01*
X-39368D01*
X-42700Y-88001D02*
X-41034D01*
X-6268Y-79902D02*
X-9600D01*
Y-84900D01*
X-6268D01*
X-9600Y-82401D02*
X-7934D01*
X22732Y-95502D02*
X19400D01*
Y-100500D01*
X22732D01*
X19400Y-98001D02*
X21066D01*
X8032Y-99802D02*
X4700D01*
Y-104800D01*
X8032D01*
X4700Y-102301D02*
X6366D01*
X-6268Y-82502D02*
X-9600D01*
Y-87500D01*
X-6268D01*
X-9600Y-85001D02*
X-7934D01*
X-12668Y-83902D02*
X-16000D01*
Y-88900D01*
X-12668D01*
X-16000Y-86401D02*
X-14334D01*
X20032Y-95502D02*
X16700D01*
Y-100500D01*
X20032D01*
X16700Y-98001D02*
X18366D01*
X5032Y-99802D02*
X1700D01*
Y-104800D01*
X5032D01*
X1700Y-102301D02*
X3366D01*
X34732Y-123302D02*
X31400D01*
Y-128300D01*
X34732D01*
X31400Y-125801D02*
X33066D01*
X31932Y-123302D02*
X28600D01*
Y-128300D01*
X31932D01*
X28600Y-125801D02*
X30266D01*
X-28068Y-123302D02*
X-31400D01*
Y-128300D01*
X-28068D01*
X-31400Y-125801D02*
X-29734D01*
X-25268Y-123302D02*
X-28600D01*
Y-128300D01*
X-25268D01*
X-28600Y-125801D02*
X-26934D01*
X8432Y-109802D02*
X5100D01*
Y-114800D01*
X8432D01*
X5100Y-112301D02*
X6766D01*
X10982Y-129402D02*
X7650D01*
Y-134400D01*
X10982D01*
X7650Y-131901D02*
X9316D01*
X7832Y-129402D02*
X4500D01*
Y-134400D01*
X7832D01*
X4500Y-131901D02*
X6166D01*
X4682Y-129402D02*
X1350D01*
Y-134400D01*
X4682D01*
X1350Y-131901D02*
X3016D01*
X1532Y-129402D02*
X-1800D01*
Y-134400D01*
X1532D01*
X-1800Y-131901D02*
X-134D01*
X-1618Y-129402D02*
X-4950D01*
Y-134400D01*
X-1618D01*
X-4950Y-131901D02*
X-3284D01*
X-4768Y-129402D02*
X-8100D01*
Y-134400D01*
X-4768D01*
X-8100Y-131901D02*
X-6434D01*
X10982Y-125502D02*
X7650D01*
Y-130500D01*
X10982D01*
X7650Y-128001D02*
X9316D01*
X7832Y-125502D02*
X4500D01*
Y-130500D01*
X7832D01*
X4500Y-128001D02*
X6166D01*
X4682Y-125502D02*
X1350D01*
Y-130500D01*
X4682D01*
X1350Y-128001D02*
X3016D01*
X1532Y-125502D02*
X-1800D01*
Y-130500D01*
X1532D01*
X-1800Y-128001D02*
X-134D01*
X-1618Y-125502D02*
X-4950D01*
Y-130500D01*
X-1618D01*
X-4950Y-128001D02*
X-3284D01*
X-4768Y-125502D02*
X-8100D01*
Y-130500D01*
X-4768D01*
X-8100Y-128001D02*
X-6434D01*
X8432Y-118502D02*
X5100D01*
Y-123500D01*
X8432D01*
X5100Y-121001D02*
X6766D01*
X-20068Y-115002D02*
X-23400D01*
Y-120000D01*
X-20068D01*
X-23400Y-117501D02*
X-21734D01*
X-35668Y-22102D02*
X-39000D01*
Y-27100D01*
X-35668D01*
X-39000Y-24601D02*
X-37334D01*
X-35668Y-16302D02*
X-39000D01*
Y-21300D01*
X-35668D01*
X-39000Y-18801D02*
X-37334D01*
X-35668Y-53002D02*
X-39000D01*
Y-58000D01*
X-35668D01*
X-39000Y-55501D02*
X-37334D01*
X-35668Y-58802D02*
X-39000D01*
Y-63800D01*
X-35668D01*
X-39000Y-61301D02*
X-37334D01*
X-26568Y-98702D02*
X-29900D01*
Y-103700D01*
X-26568D01*
X-29900Y-101201D02*
X-28234D01*
X-16468Y-107931D02*
X-19800D01*
Y-112929D01*
X-16468D01*
X-19800Y-110430D02*
X-18134D01*
X-9368Y-70602D02*
X-12700D01*
Y-75600D01*
X-9368D01*
X-12700Y-73101D02*
X-11034D01*
X-6568Y-70602D02*
X-9900D01*
Y-75600D01*
X-6568D01*
X-9900Y-73101D02*
X-8234D01*
X29332Y-95502D02*
X26000D01*
Y-100500D01*
X29332D01*
X26000Y-98001D02*
X27666D01*
X-1268Y-95402D02*
X-4600D01*
Y-100400D01*
X-1268D01*
X-4600Y-97901D02*
X-2934D01*
X-1268Y-98002D02*
X-4600D01*
Y-103000D01*
X-1268D01*
X-4600Y-100501D02*
X-2934D01*
X7832Y-92302D02*
X4500D01*
Y-97300D01*
X7832D01*
X4500Y-94801D02*
X6166D01*
X-5268Y-88302D02*
X-8600D01*
Y-93300D01*
X-5268D01*
X-8600Y-90801D02*
X-6934D01*
X-2739Y-88331D02*
X-6071D01*
Y-93329D01*
X-2739D01*
X-6071Y-90830D02*
X-4405D01*
X7832Y-88331D02*
X4500D01*
Y-93329D01*
X7832D01*
X4500Y-90830D02*
X6166D01*
X5332Y-88331D02*
X2000D01*
Y-93329D01*
X5332D01*
X2000Y-90830D02*
X3666D01*
X5332Y-92302D02*
X2000D01*
Y-97300D01*
X5332D01*
X2000Y-94801D02*
X3666D01*
X29532Y-12302D02*
X26200D01*
Y-17300D01*
X29532D01*
X26200Y-14801D02*
X27866D01*
X27032Y-12302D02*
X23700D01*
Y-17300D01*
X27032D01*
X23700Y-14801D02*
X25366D01*
X29532Y-16302D02*
X26200D01*
Y-21300D01*
X29532D01*
X26200Y-18801D02*
X27866D01*
X32032Y-16302D02*
X28700D01*
Y-21300D01*
X32032D01*
X28700Y-18801D02*
X30366D01*
X732Y-16302D02*
X-2600D01*
Y-21300D01*
X732D01*
X-2600Y-18801D02*
X-934D01*
X3732Y-16302D02*
X400D01*
Y-21300D01*
X3732D01*
X400Y-18801D02*
X2066D01*
X49432Y-53302D02*
X46100D01*
Y-58300D01*
X49432D01*
X46100Y-55801D02*
X47766D01*
X49432Y-38602D02*
X46100D01*
Y-43600D01*
X49432D01*
X46100Y-41101D02*
X47766D01*
X25432Y-30102D02*
X22100D01*
Y-35100D01*
X25432D01*
X22100Y-32601D02*
X23766D01*
X24732Y-44802D02*
X21400D01*
Y-49800D01*
X24732D01*
X21400Y-47301D02*
X23066D01*
X22532Y-23902D02*
X19200D01*
Y-28900D01*
X22532D01*
X19200Y-26401D02*
X20866D01*
X37632Y-50002D02*
X34300D01*
Y-55000D01*
X37632D01*
X34300Y-52501D02*
X35966D01*
X22732Y-42902D02*
X19400D01*
Y-47900D01*
X22732D01*
X19400Y-45401D02*
X21066D01*
X25432Y-25602D02*
X22100D01*
Y-30600D01*
X25432D01*
X22100Y-28101D02*
X23766D01*
X22632Y-27802D02*
X19300D01*
Y-32800D01*
X22632D01*
X19300Y-30301D02*
X20966D01*
X37632Y-46852D02*
X34300D01*
Y-51850D01*
X37632D01*
X34300Y-49351D02*
X35966D01*
X35232Y-46852D02*
X31900D01*
Y-51850D01*
X35232D01*
X31900Y-49351D02*
X33566D01*
X35232Y-50002D02*
X31900D01*
Y-55000D01*
X35232D01*
X31900Y-52501D02*
X33566D01*
X51832Y-30002D02*
X48500D01*
Y-35000D01*
X51832D01*
X48500Y-32501D02*
X50166D01*
X-12684Y-55102D02*
X-16016D01*
Y-60100D01*
X-12684D01*
X-16016Y-57601D02*
X-14350D01*
X-12684Y-57702D02*
X-16016D01*
Y-62700D01*
X-12684D01*
X-16016Y-60201D02*
X-14350D01*
X42832Y22098D02*
X39500D01*
Y17100D01*
X42832D01*
X39500Y19599D02*
X41166D01*
X23232Y21198D02*
X19900D01*
Y16200D01*
X23232D01*
X19900Y18699D02*
X21566D01*
X13432Y4998D02*
X10100D01*
Y0D01*
X13432D01*
X10100Y2499D02*
X11766D01*
X1632Y-24002D02*
X-1700D01*
Y-29000D01*
X1632D01*
X-1700Y-26501D02*
X-34D01*
X-15468Y-9402D02*
X-18800D01*
Y-14400D01*
X-15468D01*
X-18800Y-11901D02*
X-17134D01*
X17332Y15598D02*
X14000D01*
Y10600D01*
X17332D01*
X14000Y13099D02*
X15666D01*
X-42268Y-18402D02*
X-45600D01*
Y-23400D01*
X-42268D01*
X-45600Y-20901D02*
X-43934D01*
X10432Y-41402D02*
X7100D01*
Y-46400D01*
X10432D01*
X7100Y-43901D02*
X8766D01*
X17132Y-41402D02*
X13800D01*
Y-46400D01*
X17132D01*
X13800Y-43901D02*
X15466D01*
X-15968Y-4202D02*
X-19300D01*
Y-9200D01*
X-15968D01*
X-19300Y-6701D02*
X-17634D01*
X-21886Y-4220D02*
X-25218D01*
Y-9218D01*
X-21886D01*
X-25218Y-6719D02*
X-23552D01*
X43332Y-106602D02*
X40000D01*
Y-111600D01*
X43332D01*
X40000Y-109101D02*
X41666D01*
X40182Y-106602D02*
X36850D01*
Y-111600D01*
X40182D01*
X36850Y-109101D02*
X38516D01*
X37032Y-106602D02*
X33700D01*
Y-111600D01*
X37032D01*
X33700Y-109101D02*
X35366D01*
X36932Y-100202D02*
X33600D01*
Y-105200D01*
X36932D01*
X33600Y-102701D02*
X35266D01*
X39932Y-98502D02*
X36600D01*
Y-103500D01*
X39932D01*
X36600Y-101001D02*
X38266D01*
X51732Y-99402D02*
X48400D01*
Y-104400D01*
X51732D01*
X48400Y-101901D02*
X50066D01*
X-39368Y-82702D02*
X-42700D01*
Y-87700D01*
X-39368D01*
X-42700Y-85201D02*
X-41034D01*
X39332Y-95502D02*
X36000D01*
Y-100500D01*
X39332D01*
X36000Y-98001D02*
X37666D01*
X-19968Y-64402D02*
X-23300D01*
Y-69400D01*
X-19968D01*
X-23300Y-66901D02*
X-21634D01*
X-35668Y-55902D02*
X-39000D01*
Y-60900D01*
X-35668D01*
X-39000Y-58401D02*
X-37334D01*
X14332Y-54702D02*
X11000D01*
Y-59700D01*
X14332D01*
X11000Y-57201D02*
X12666D01*
X31832Y-32574D02*
X28500D01*
Y-37573D01*
X31832D01*
X28500Y-35074D02*
X30166D01*
X37748Y-32574D02*
X34416D01*
Y-37573D01*
X37748D01*
X34416Y-35074D02*
X36082D01*
X34844Y-32574D02*
X31512D01*
Y-37573D01*
X34844D01*
X31512Y-35074D02*
X33178D01*
X40928Y-35117D02*
X37596D01*
Y-40116D01*
X40928D01*
X37596Y-37617D02*
X39262D01*
X-45168Y9998D02*
X-48500D01*
Y5000D01*
X-45168D01*
X-48500Y7499D02*
X-46834D01*
X-45168Y-2D02*
X-48500D01*
Y-5000D01*
X-45168D01*
X-48500Y-2501D02*
X-46834D01*
X-33468Y-78602D02*
X-36800D01*
Y-83600D01*
X-33468D01*
X-36800Y-81101D02*
X-35134D01*
X-42268Y-4802D02*
X-45600D01*
Y-9800D01*
X-42268D01*
X-45600Y-7301D02*
X-43934D01*
X-12668Y-60502D02*
X-16000D01*
Y-65500D01*
X-12668D01*
X-16000Y-63001D02*
X-14334D01*
X-29983Y-57502D02*
X-33316D01*
Y-62500D01*
X-29983D01*
X-33316Y-60001D02*
X-31650D01*
X-32568Y-63002D02*
X-35900D01*
Y-68000D01*
X-32568D01*
X-35900Y-65501D02*
X-34234D01*
X-32568Y-65802D02*
X-35900D01*
Y-70800D01*
X-32568D01*
X-35900Y-68301D02*
X-34234D01*
X-26668Y-57502D02*
X-30000D01*
Y-62500D01*
X-26668D01*
X-30000Y-60001D02*
X-28334D01*
X-23368Y-57502D02*
X-26700D01*
Y-62500D01*
X-23368D01*
X-26700Y-60001D02*
X-25034D01*
X4732Y-53802D02*
X1400D01*
Y-58800D01*
X4732D01*
X1400Y-56301D02*
X3066D01*
X-4652Y-43506D02*
X-7984D01*
Y-48504D01*
X-4652D01*
X-7984Y-46005D02*
X-6318D01*
X-8912Y-43506D02*
X-12244D01*
Y-48504D01*
X-8912D01*
X-12244Y-46005D02*
X-10578D01*
X-16392Y-43506D02*
X-19724D01*
Y-48504D01*
X-16392D01*
X-19724Y-46005D02*
X-18058D01*
X36848Y-53506D02*
X33516D01*
Y-58504D01*
X36848D01*
X33516Y-56005D02*
X35182D01*
X-35668Y-19202D02*
X-39000D01*
Y-24200D01*
X-35668D01*
X-39000Y-21701D02*
X-37334D01*
X28132Y-69902D02*
X24800D01*
Y-74900D01*
X28132D01*
X24800Y-72401D02*
X26466D01*
X31232Y-69902D02*
X27900D01*
Y-74900D01*
X31232D01*
X27900Y-72401D02*
X29566D01*
X34332Y-69902D02*
X31000D01*
Y-74900D01*
X34332D01*
X31000Y-72401D02*
X32666D01*
X18532Y-53502D02*
X15200D01*
Y-58500D01*
X18532D01*
X15200Y-56001D02*
X16866D01*
X13366Y-106802D02*
X10033D01*
Y-111800D01*
X13366D01*
X10033Y-109301D02*
X11699D01*
X-15468Y-33702D02*
X-18800D01*
Y-38700D01*
X-15468D01*
X-18800Y-36201D02*
X-17134D01*
X-15468Y-36852D02*
X-18800D01*
Y-41850D01*
X-15468D01*
X-18800Y-39351D02*
X-17134D01*
X-15468Y-40002D02*
X-18800D01*
Y-45000D01*
X-15468D01*
X-18800Y-42501D02*
X-17134D01*
X-9868Y-33702D02*
X-13200D01*
Y-38700D01*
X-9868D01*
X-13200Y-36201D02*
X-11534D01*
X-9868Y-36852D02*
X-13200D01*
Y-41850D01*
X-9868D01*
X-13200Y-39351D02*
X-11534D01*
X-9868Y-40002D02*
X-13200D01*
Y-45000D01*
X-9868D01*
X-13200Y-42501D02*
X-11534D01*
X-2368Y-56102D02*
X-5700D01*
Y-61100D01*
X-2368D01*
X-5700Y-58601D02*
X-4034D01*
X-2368Y-59252D02*
X-5700D01*
Y-64250D01*
X-2368D01*
X-5700Y-61751D02*
X-4034D01*
X-2368Y-62402D02*
X-5700D01*
Y-67400D01*
X-2368D01*
X-5700Y-64901D02*
X-4034D01*
X4299Y-41402D02*
X967D01*
Y-46400D01*
X4299D01*
X967Y-43901D02*
X2633D01*
X7449Y-41402D02*
X4117D01*
Y-46400D01*
X7449D01*
X4117Y-43901D02*
X5783D01*
X1132Y-41402D02*
X-2200D01*
Y-46400D01*
X1132D01*
X-2200Y-43901D02*
X-534D01*
X-35168Y6298D02*
X-38500D01*
Y1300D01*
X-35168D01*
X-38500Y3799D02*
X-36834D01*
X-46168Y6298D02*
X-49500D01*
Y1300D01*
X-46168D01*
X-49500Y3799D02*
X-47834D01*
X14866Y-9202D02*
X11533D01*
Y-14200D01*
X14866D01*
X11533Y-11701D02*
X13199D01*
X11699Y-9202D02*
X8367D01*
Y-14200D01*
X11699D01*
X8367Y-11701D02*
X10033D01*
X8532Y-9202D02*
X5200D01*
Y-14200D01*
X8532D01*
X5200Y-11701D02*
X6866D01*
X3432Y-68202D02*
X100D01*
Y-73200D01*
X3432D01*
X100Y-70701D02*
X1766D01*
X6582Y-68202D02*
X3250D01*
Y-73200D01*
X6582D01*
X3250Y-70701D02*
X4916D01*
X9732Y-68202D02*
X6400D01*
Y-73200D01*
X9732D01*
X6400Y-70701D02*
X8066D01*
X14932Y-71602D02*
X11600D01*
Y-76600D01*
X14932D01*
X11600Y-74101D02*
X13266D01*
X18082Y-71602D02*
X14750D01*
Y-76600D01*
X18082D01*
X14750Y-74101D02*
X16416D01*
X21232Y-71602D02*
X17900D01*
Y-76600D01*
X21232D01*
X17900Y-74101D02*
X19566D01*
X18132Y-68202D02*
X14800D01*
Y-73200D01*
X18132D01*
X14800Y-70701D02*
X16466D01*
X40032Y-53502D02*
X36700D01*
Y-58500D01*
X40032D01*
X36700Y-56001D02*
X38366D01*
X40532Y-63702D02*
X37200D01*
Y-68700D01*
X40532D01*
X37200Y-66201D02*
X38866D01*
X40532Y-69902D02*
X37200D01*
Y-74900D01*
X40532D01*
X37200Y-72401D02*
X38866D01*
X37432Y-69902D02*
X34100D01*
Y-74900D01*
X37432D01*
X34100Y-72401D02*
X35766D01*
X40632Y-85335D02*
X37300D01*
Y-90333D01*
X40632D01*
X37300Y-87834D02*
X38966D01*
X-1568Y-7202D02*
X-4900D01*
Y-12200D01*
X-1568D01*
X-4900Y-9701D02*
X-3234D01*
X-4718Y-7202D02*
X-8050D01*
Y-12200D01*
X-4718D01*
X-8050Y-9701D02*
X-6384D01*
X-7868Y-7202D02*
X-11200D01*
Y-12200D01*
X-7868D01*
X-11200Y-9701D02*
X-9534D01*
X-11018Y-7202D02*
X-14350D01*
Y-12200D01*
X-11018D01*
X-14350Y-9701D02*
X-12684D01*
X20799Y-106802D02*
X17467D01*
Y-111800D01*
X20799D01*
X17467Y-109301D02*
X19133D01*
X6582Y-30552D02*
X3250D01*
Y-35550D01*
X6582D01*
X3250Y-33051D02*
X4916D01*
X3432Y-30552D02*
X100D01*
Y-35550D01*
X3432D01*
X100Y-33051D02*
X1766D01*
X282Y-30552D02*
X-3050D01*
Y-35550D01*
X282D01*
X-3050Y-33051D02*
X-1384D01*
X-2868Y-30552D02*
X-6200D01*
Y-35550D01*
X-2868D01*
X-6200Y-33051D02*
X-4534D01*
X1582Y-7202D02*
X-1750D01*
Y-12200D01*
X1582D01*
X-1750Y-9701D02*
X-84D01*
X49732Y17298D02*
X46400D01*
Y12300D01*
X49732D01*
X46400Y14799D02*
X48066D01*
X46132Y14698D02*
X42800D01*
Y9700D01*
X46132D01*
X42800Y12199D02*
X44466D01*
X42732Y11998D02*
X39400D01*
Y7000D01*
X42732D01*
X39400Y9499D02*
X41066D01*
X12882Y-30552D02*
X9550D01*
Y-35550D01*
X12882D01*
X9550Y-33051D02*
X11216D01*
X9732Y-30552D02*
X6400D01*
Y-35550D01*
X9732D01*
X6400Y-33051D02*
X8066D01*
X9649Y-106802D02*
X6317D01*
Y-111800D01*
X9649D01*
X6317Y-109301D02*
X7983D01*
X15682Y-96202D02*
X12350D01*
Y-101200D01*
X15682D01*
X12350Y-98701D02*
X14016D01*
X12532Y-96202D02*
X9200D01*
Y-101200D01*
X12532D01*
X9200Y-98701D02*
X10866D01*
X9382Y-96202D02*
X6050D01*
Y-101200D01*
X9382D01*
X6050Y-98701D02*
X7716D01*
X6232Y-96202D02*
X2900D01*
Y-101200D01*
X6232D01*
X2900Y-98701D02*
X4566D01*
X40032Y-129402D02*
X36700D01*
Y-134400D01*
X40032D01*
X36700Y-131901D02*
X38366D01*
X43182Y-129402D02*
X39850D01*
Y-134400D01*
X43182D01*
X39850Y-131901D02*
X41516D01*
X46332Y-129402D02*
X43000D01*
Y-134400D01*
X46332D01*
X43000Y-131901D02*
X44666D01*
X49482Y-129402D02*
X46150D01*
Y-134400D01*
X49482D01*
X46150Y-131901D02*
X47816D01*
X52632Y-129402D02*
X49300D01*
Y-134400D01*
X52632D01*
X49300Y-131901D02*
X50966D01*
X-13868Y27498D02*
X-17200D01*
Y22500D01*
X-13868D01*
X-17200Y24999D02*
X-15534D01*
X-10718Y27498D02*
X-14050D01*
Y22500D01*
X-10718D01*
X-14050Y24999D02*
X-12384D01*
X-7568Y27498D02*
X-10900D01*
Y22500D01*
X-7568D01*
X-10900Y24999D02*
X-9234D01*
X-4418Y27498D02*
X-7750D01*
Y22500D01*
X-4418D01*
X-7750Y24999D02*
X-6084D01*
X-29618Y27498D02*
X-32950D01*
Y22500D01*
X-29618D01*
X-32950Y24999D02*
X-31284D01*
X-26468Y27498D02*
X-29800D01*
Y22500D01*
X-26468D01*
X-29800Y24999D02*
X-28134D01*
X-23318Y27498D02*
X-26650D01*
Y22500D01*
X-23318D01*
X-26650Y24999D02*
X-24984D01*
X-20168Y27498D02*
X-23500D01*
Y22500D01*
X-20168D01*
X-23500Y24999D02*
X-21834D01*
X-45368Y27498D02*
X-48700D01*
Y22500D01*
X-45368D01*
X-48700Y24999D02*
X-47034D01*
X-42218Y27498D02*
X-45550D01*
Y22500D01*
X-42218D01*
X-45550Y24999D02*
X-43884D01*
X-39068Y27498D02*
X-42400D01*
Y22500D01*
X-39068D01*
X-42400Y24999D02*
X-40734D01*
X-32768Y27498D02*
X-36100D01*
Y22500D01*
X-32768D01*
X-36100Y24999D02*
X-34434D01*
X30232Y27498D02*
X26900D01*
Y22500D01*
X30232D01*
X26900Y24999D02*
X28566D01*
X33382Y27498D02*
X30050D01*
Y22500D01*
X33382D01*
X30050Y24999D02*
X31716D01*
X36532Y27498D02*
X33200D01*
Y22500D01*
X36532D01*
X33200Y24999D02*
X34866D01*
X39682Y27498D02*
X36350D01*
Y22500D01*
X39682D01*
X36350Y24999D02*
X38016D01*
X14482Y27498D02*
X11150D01*
Y22500D01*
X14482D01*
X11150Y24999D02*
X12816D01*
X17632Y27498D02*
X14300D01*
Y22500D01*
X17632D01*
X14300Y24999D02*
X15966D01*
X20782Y27498D02*
X17450D01*
Y22500D01*
X20782D01*
X17450Y24999D02*
X19116D01*
X23932Y27498D02*
X20600D01*
Y22500D01*
X23932D01*
X20600Y24999D02*
X22266D01*
X27082Y27498D02*
X23750D01*
Y22500D01*
X27082D01*
X23750Y24999D02*
X25416D01*
X-1268Y27498D02*
X-4600D01*
Y22500D01*
X-1268D01*
X-4600Y24999D02*
X-2934D01*
X1882Y27498D02*
X-1450D01*
Y22500D01*
X1882D01*
X-1450Y24999D02*
X216D01*
X5032Y27498D02*
X1700D01*
Y22500D01*
X5032D01*
X1700Y24999D02*
X3366D01*
X11332Y27498D02*
X8000D01*
Y22500D01*
X11332D01*
X8000Y24999D02*
X9666D01*
X45982Y27498D02*
X42650D01*
Y22500D01*
X45982D01*
X42650Y24999D02*
X44316D01*
X42832Y27498D02*
X39500D01*
Y22500D01*
X42832D01*
X39500Y24999D02*
X41166D01*
X49132Y27498D02*
X45800D01*
Y22500D01*
X49132D01*
X45800Y24999D02*
X47466D01*
X52282Y27498D02*
X48950D01*
Y22500D01*
X52282D01*
X48950Y24999D02*
X50616D01*
X-13868Y5448D02*
X-17200D01*
Y450D01*
X-13868D01*
X-17200Y2949D02*
X-15534D01*
X-13868Y2298D02*
X-17200D01*
Y-2700D01*
X-13868D01*
X-17200Y-201D02*
X-15534D01*
X-13868Y11748D02*
X-17200D01*
Y6750D01*
X-13868D01*
X-17200Y9249D02*
X-15534D01*
X-13868Y8598D02*
X-17200D01*
Y3600D01*
X-13868D01*
X-17200Y6099D02*
X-15534D01*
X-17018Y27498D02*
X-20350D01*
Y22500D01*
X-17018D01*
X-20350Y24999D02*
X-18684D01*
X-13868Y14898D02*
X-17200D01*
Y9900D01*
X-13868D01*
X-17200Y12399D02*
X-15534D01*
X-13868Y18048D02*
X-17200D01*
Y13050D01*
X-13868D01*
X-17200Y15549D02*
X-15534D01*
X-13868Y21198D02*
X-17200D01*
Y16200D01*
X-13868D01*
X-17200Y18699D02*
X-15534D01*
X-13868Y24348D02*
X-17200D01*
Y19350D01*
X-13868D01*
X-17200Y21849D02*
X-15534D01*
X-2068Y-41402D02*
X-5400D01*
Y-46400D01*
X-2068D01*
X-5400Y-43901D02*
X-3734D01*
X13732Y-41402D02*
X10400D01*
Y-46400D01*
X13732D01*
X10400Y-43901D02*
X12066D01*
X8182Y11748D02*
X4850D01*
Y6750D01*
X8182D01*
X4850Y9249D02*
X6516D01*
X8182Y8598D02*
X4850D01*
Y3600D01*
X8182D01*
X4850Y6099D02*
X6516D01*
X8182Y27498D02*
X4850D01*
Y22500D01*
X8182D01*
X4850Y24999D02*
X6516D01*
X8182Y14898D02*
X4850D01*
Y9900D01*
X8182D01*
X4850Y12399D02*
X6516D01*
X8182Y18048D02*
X4850D01*
Y13050D01*
X8182D01*
X4850Y15549D02*
X6516D01*
X8182Y21198D02*
X4850D01*
Y16200D01*
X8182D01*
X4850Y18699D02*
X6516D01*
X8182Y24348D02*
X4850D01*
Y19350D01*
X8182D01*
X4850Y21849D02*
X6516D01*
X40632Y-88768D02*
X37300D01*
Y-93767D01*
X40632D01*
X37300Y-91268D02*
X38966D01*
X40632Y-81902D02*
X37300D01*
Y-86900D01*
X40632D01*
X37300Y-84401D02*
X38966D01*
X40632Y-92202D02*
X37300D01*
Y-97200D01*
X40632D01*
X37300Y-94701D02*
X38966D01*
X17082Y-106802D02*
X13750D01*
Y-111800D01*
X17082D01*
X13750Y-109301D02*
X15416D01*
X-17618Y-115002D02*
X-20950D01*
Y-120000D01*
X-17618D01*
X-20950Y-117501D02*
X-19284D01*
X-15168Y-115002D02*
X-18500D01*
Y-120000D01*
X-15168D01*
X-18500Y-117501D02*
X-16834D01*
X-33368Y-81802D02*
X-36700D01*
Y-86800D01*
X-33368D01*
X-36700Y-84301D02*
X-35034D01*
X-13468Y-4202D02*
X-16800D01*
Y-9200D01*
X-13468D01*
X-16800Y-6701D02*
X-15134D01*
X-32168Y-129402D02*
X-35500D01*
Y-134400D01*
X-32168D01*
X-35500Y-131901D02*
X-33834D01*
X-21368Y-129402D02*
X-24700D01*
Y-134400D01*
X-21368D01*
X-24700Y-131901D02*
X-23034D01*
X-18118Y-129402D02*
X-21450D01*
Y-134400D01*
X-18118D01*
X-21450Y-131901D02*
X-19784D01*
X-14868Y-129402D02*
X-18200D01*
Y-134400D01*
X-14868D01*
X-18200Y-131901D02*
X-16534D01*
X21532Y-129402D02*
X18200D01*
Y-134400D01*
X21532D01*
X18200Y-131901D02*
X19866D01*
X24632Y-129402D02*
X21300D01*
Y-134400D01*
X24632D01*
X21300Y-131901D02*
X22966D01*
X27732Y-129402D02*
X24400D01*
Y-134400D01*
X27732D01*
X24400Y-131901D02*
X26066D01*
X-4768Y-121602D02*
X-8100D01*
Y-126600D01*
X-4768D01*
X-8100Y-124101D02*
X-6434D01*
X-1618Y-121602D02*
X-4950D01*
Y-126600D01*
X-1618D01*
X-4950Y-124101D02*
X-3284D01*
X1532Y-121602D02*
X-1800D01*
Y-126600D01*
X1532D01*
X-1800Y-124101D02*
X-134D01*
X4682Y-121602D02*
X1350D01*
Y-126600D01*
X4682D01*
X1350Y-124101D02*
X3016D01*
X7832Y-121602D02*
X4500D01*
Y-126600D01*
X7832D01*
X4500Y-124101D02*
X6166D01*
X10982Y-121602D02*
X7650D01*
Y-126600D01*
X10982D01*
X7650Y-124101D02*
X9316D01*
X-28668Y-96602D02*
X-32000D01*
Y-101600D01*
X-28668D01*
X-32000Y-99101D02*
X-30334D01*
D74*
X82499Y-53002D02*
X81299Y-51802D01*
X78900D01*
X77700Y-53002D01*
Y-54202D01*
X78900Y-55401D01*
X81299D01*
X82499Y-56601D01*
Y-57800D01*
X81299Y-59000D01*
X78900D01*
X77700Y-57800D01*
X84898Y-54202D02*
Y-57800D01*
X86097Y-59000D01*
X89696D01*
Y-60200D01*
X88497Y-61399D01*
X87297D01*
X89696Y-59000D02*
Y-54202D01*
X92095Y-59000D02*
Y-54202D01*
X93295D01*
X94495Y-55401D01*
Y-59000D01*
Y-55401D01*
X95694Y-54202D01*
X96894Y-55401D01*
Y-59000D01*
X99293Y-51802D02*
Y-59000D01*
X102892D01*
X104092Y-57800D01*
Y-56601D01*
Y-55401D01*
X102892Y-54202D01*
X99293D01*
X107690Y-59000D02*
X110090D01*
X111289Y-57800D01*
Y-55401D01*
X110090Y-54202D01*
X107690D01*
X106491Y-55401D01*
Y-57800D01*
X107690Y-59000D01*
X113688D02*
X116088D01*
X114888D01*
Y-51802D01*
X113688D01*
X130500D02*
Y-59000D01*
Y-55401D01*
X135299D01*
Y-51802D01*
Y-59000D01*
X137698D02*
X140097D01*
X138897D01*
Y-54202D01*
X137698D01*
X144895Y-53002D02*
Y-54202D01*
X143696D01*
X146095D01*
X144895D01*
Y-57800D01*
X146095Y-59000D01*
X161690Y-53002D02*
X160490Y-51802D01*
X158091D01*
X156892Y-53002D01*
Y-57800D01*
X158091Y-59000D01*
X160490D01*
X161690Y-57800D01*
X165289Y-59000D02*
X167688D01*
X168888Y-57800D01*
Y-55401D01*
X167688Y-54202D01*
X165289D01*
X164089Y-55401D01*
Y-57800D01*
X165289Y-59000D01*
X171287Y-54202D02*
Y-57800D01*
X172486Y-59000D01*
X176085D01*
Y-54202D01*
X178484Y-59000D02*
Y-54202D01*
X182083D01*
X183283Y-55401D01*
Y-59000D01*
X186882Y-53002D02*
Y-54202D01*
X185682D01*
X188081D01*
X186882D01*
Y-57800D01*
X188081Y-59000D01*
X204880Y-51802D02*
X200081D01*
Y-55401D01*
X202481D01*
X200081D01*
Y-59000D01*
X207279D02*
X209678D01*
X208479D01*
Y-54202D01*
X207279D01*
X213277Y-59000D02*
Y-54202D01*
X216876D01*
X218075Y-55401D01*
Y-59000D01*
X220475D02*
X222874D01*
X221674D01*
Y-54202D01*
X220475D01*
X226473Y-59000D02*
X230072D01*
X231271Y-57800D01*
X230072Y-56601D01*
X227672D01*
X226473Y-55401D01*
X227672Y-54202D01*
X231271D01*
X233670Y-51802D02*
Y-59000D01*
Y-55401D01*
X234870Y-54202D01*
X237269D01*
X238469Y-55401D01*
Y-59000D01*
X244467D02*
X242068D01*
X240868Y-57800D01*
Y-55401D01*
X242068Y-54202D01*
X244467D01*
X245667Y-55401D01*
Y-56601D01*
X240868D01*
X252864Y-51802D02*
Y-59000D01*
X249265D01*
X248066Y-57800D01*
Y-55401D01*
X249265Y-54202D01*
X252864D01*
X262461Y-51802D02*
Y-59000D01*
Y-55401D01*
X267260D01*
Y-51802D01*
Y-59000D01*
X270858D02*
X273258D01*
X274457Y-57800D01*
Y-55401D01*
X273258Y-54202D01*
X270858D01*
X269659Y-55401D01*
Y-57800D01*
X270858Y-59000D01*
X276856D02*
X279256D01*
X278056D01*
Y-51802D01*
X276856D01*
X286453Y-59000D02*
X284054D01*
X282855Y-57800D01*
Y-55401D01*
X284054Y-54202D01*
X286453D01*
X287653Y-55401D01*
Y-56601D01*
X282855D01*
X302048Y-53002D02*
X300849Y-51802D01*
X298449D01*
X297250Y-53002D01*
Y-54202D01*
X298449Y-55401D01*
X300849D01*
X302048Y-56601D01*
Y-57800D01*
X300849Y-59000D01*
X298449D01*
X297250Y-57800D01*
X304448Y-59000D02*
X306847D01*
X305647D01*
Y-54202D01*
X304448D01*
X310446D02*
X315244D01*
X310446Y-59000D01*
X315244D01*
X321242D02*
X318843D01*
X317643Y-57800D01*
Y-55401D01*
X318843Y-54202D01*
X321242D01*
X322442Y-55401D01*
Y-56601D01*
X317643D01*
X334442Y-59000D02*
Y-51802D01*
X338041D01*
X339240Y-53002D01*
Y-55401D01*
X338041Y-56601D01*
X334442D01*
X341639Y-51802D02*
Y-59000D01*
Y-55401D01*
X342839Y-54202D01*
X345238D01*
X346438Y-55401D01*
Y-59000D01*
X348837Y-54202D02*
Y-57800D01*
X350037Y-59000D01*
X353636D01*
Y-60200D01*
X352436Y-61399D01*
X351236D01*
X353636Y-59000D02*
Y-54202D01*
X356035Y-59000D02*
X359634D01*
X360833Y-57800D01*
X359634Y-56601D01*
X357234D01*
X356035Y-55401D01*
X357234Y-54202D01*
X360833D01*
X363232Y-59000D02*
X365632D01*
X364432D01*
Y-54202D01*
X363232D01*
X374029D02*
X370430D01*
X369231Y-55401D01*
Y-57800D01*
X370430Y-59000D01*
X374029D01*
X377628Y-54202D02*
X380027D01*
X381227Y-55401D01*
Y-59000D01*
X377628D01*
X376428Y-57800D01*
X377628Y-56601D01*
X381227D01*
X383626Y-59000D02*
X386025D01*
X384825D01*
Y-51802D01*
X383626D01*
X396822D02*
Y-59000D01*
X401620D01*
X407618D02*
X405219D01*
X404019Y-57800D01*
Y-55401D01*
X405219Y-54202D01*
X407618D01*
X408818Y-55401D01*
Y-56601D01*
X404019D01*
X411217Y-59000D02*
Y-54202D01*
X414816D01*
X416015Y-55401D01*
Y-59000D01*
X420814Y-61399D02*
X422013D01*
X423213Y-60200D01*
Y-54202D01*
X419614D01*
X418415Y-55401D01*
Y-57800D01*
X419614Y-59000D01*
X423213D01*
X426812Y-53002D02*
Y-54202D01*
X425612D01*
X428012D01*
X426812D01*
Y-57800D01*
X428012Y-59000D01*
X431610Y-51802D02*
Y-59000D01*
Y-55401D01*
X432810Y-54202D01*
X435209D01*
X436409Y-55401D01*
Y-59000D01*
X448409D02*
Y-51802D01*
X452008D01*
X453207Y-53002D01*
Y-55401D01*
X452008Y-56601D01*
X448409D01*
X450808D02*
X453207Y-59000D01*
X456806D02*
X459205D01*
X460405Y-57800D01*
Y-55401D01*
X459205Y-54202D01*
X456806D01*
X455606Y-55401D01*
Y-57800D01*
X456806Y-59000D01*
X462804Y-54202D02*
Y-57800D01*
X464004Y-59000D01*
X467602D01*
Y-54202D01*
X471201Y-53002D02*
Y-54202D01*
X470002D01*
X472401D01*
X471201D01*
Y-57800D01*
X472401Y-59000D01*
X483197D02*
Y-51802D01*
X486796D01*
X487996Y-53002D01*
Y-55401D01*
X486796Y-56601D01*
X483197D01*
X491595Y-54202D02*
X493994D01*
X495194Y-55401D01*
Y-59000D01*
X491595D01*
X490395Y-57800D01*
X491595Y-56601D01*
X495194D01*
X498793Y-53002D02*
Y-54202D01*
X497593D01*
X499992D01*
X498793D01*
Y-57800D01*
X499992Y-59000D01*
X503591Y-51802D02*
Y-59000D01*
Y-55401D01*
X504790Y-54202D01*
X507190D01*
X508389Y-55401D01*
Y-59000D01*
X517986Y-51802D02*
Y-59000D01*
X522785D01*
X528783D02*
X526383D01*
X525184Y-57800D01*
Y-55401D01*
X526383Y-54202D01*
X528783D01*
X529982Y-55401D01*
Y-56601D01*
X525184D01*
X532382Y-59000D02*
Y-54202D01*
X535980D01*
X537180Y-55401D01*
Y-59000D01*
X541979Y-61399D02*
X543178D01*
X544378Y-60200D01*
Y-54202D01*
X540779D01*
X539579Y-55401D01*
Y-57800D01*
X540779Y-59000D01*
X544378D01*
X547976Y-53002D02*
Y-54202D01*
X546777D01*
X549176D01*
X547976D01*
Y-57800D01*
X549176Y-59000D01*
X552775Y-51802D02*
Y-59000D01*
Y-55401D01*
X553975Y-54202D01*
X556374D01*
X557573Y-55401D01*
Y-59000D01*
X569573D02*
Y-51802D01*
X573172D01*
X574372Y-53002D01*
Y-55401D01*
X573172Y-56601D01*
X569573D01*
X576771Y-59000D02*
X579170D01*
X577971D01*
Y-51802D01*
X576771D01*
X583969Y-54202D02*
X586368D01*
X587568Y-55401D01*
Y-59000D01*
X583969D01*
X582769Y-57800D01*
X583969Y-56601D01*
X587568D01*
X591166Y-53002D02*
Y-54202D01*
X589967D01*
X592366D01*
X591166D01*
Y-57800D01*
X592366Y-59000D01*
X599564D02*
X597164D01*
X595965Y-57800D01*
Y-55401D01*
X597164Y-54202D01*
X599564D01*
X600763Y-55401D01*
Y-56601D01*
X595965D01*
X607961Y-51802D02*
Y-59000D01*
X604362D01*
X603163Y-57800D01*
Y-55401D01*
X604362Y-54202D01*
X607961D01*
X619961Y-51802D02*
Y-59000D01*
Y-55401D01*
X624759D01*
Y-51802D01*
Y-59000D01*
X628358D02*
X630758D01*
X631957Y-57800D01*
Y-55401D01*
X630758Y-54202D01*
X628358D01*
X627159Y-55401D01*
Y-57800D01*
X628358Y-59000D01*
X634356D02*
X636756D01*
X635556D01*
Y-51802D01*
X634356D01*
X643953Y-59000D02*
X641554D01*
X640354Y-57800D01*
Y-55401D01*
X641554Y-54202D01*
X643953D01*
X645153Y-55401D01*
Y-56601D01*
X640354D01*
X654750Y-51802D02*
X659548D01*
X657149D01*
Y-59000D01*
X661947Y-54202D02*
Y-57800D01*
X663147Y-59000D01*
X666746D01*
Y-60200D01*
X665546Y-61399D01*
X664347D01*
X666746Y-59000D02*
Y-54202D01*
X669145Y-61399D02*
Y-54202D01*
X672744D01*
X673944Y-55401D01*
Y-57800D01*
X672744Y-59000D01*
X669145D01*
X679942D02*
X677542D01*
X676343Y-57800D01*
Y-55401D01*
X677542Y-54202D01*
X679942D01*
X681141Y-55401D01*
Y-56601D01*
X676343D01*
X68900Y-48200D02*
X693141D01*
X68900Y-64400D02*
X693141D01*
X68900Y-48200D02*
Y-136400D01*
X693141Y-48200D02*
Y-136400D01*
X126100Y-48200D02*
Y-136400D01*
X195681Y-48200D02*
Y-136400D01*
X330042Y-48200D02*
Y-136400D01*
X444009Y-48200D02*
Y-136400D01*
X565173Y-48200D02*
Y-136400D01*
X615561Y-48200D02*
Y-136400D01*
X68900Y-124400D02*
X693141D01*
X68900Y-136400D02*
X693141D01*
D75*
X81699Y-140402D02*
X80699Y-139402D01*
X78700D01*
X77700Y-140402D01*
Y-141401D01*
X78700Y-142401D01*
X80699D01*
X81699Y-143401D01*
Y-144400D01*
X80699Y-145400D01*
X78700D01*
X77700Y-144400D01*
X83698Y-145400D02*
X85697D01*
X84698D01*
Y-139402D01*
X83698D01*
X89696Y-145400D02*
X91695D01*
X92695Y-144400D01*
Y-142401D01*
X91695Y-141401D01*
X89696D01*
X88696Y-142401D01*
Y-144400D01*
X89696Y-145400D01*
X95694Y-140402D02*
Y-141401D01*
X94695D01*
X96694D01*
X95694D01*
Y-144400D01*
X96694Y-145400D01*
X109690Y-139402D02*
Y-145400D01*
X106691D01*
X105691Y-144400D01*
Y-142401D01*
X106691Y-141401D01*
X109690D01*
X114688Y-145400D02*
X112689D01*
X111689Y-144400D01*
Y-142401D01*
X112689Y-141401D01*
X114688D01*
X115688Y-142401D01*
Y-143401D01*
X111689D01*
X118687Y-145400D02*
Y-140402D01*
Y-142401D01*
X117687D01*
X119686D01*
X118687D01*
Y-140402D01*
X119686Y-139402D01*
X122685Y-145400D02*
X124685D01*
X123685D01*
Y-141401D01*
X122685D01*
X127684Y-145400D02*
Y-141401D01*
X130683D01*
X131683Y-142401D01*
Y-145400D01*
X133682D02*
X135681D01*
X134682D01*
Y-141401D01*
X133682D01*
X139680Y-140402D02*
Y-141401D01*
X138680D01*
X140680D01*
X139680D01*
Y-144400D01*
X140680Y-145400D01*
X143679D02*
X145678D01*
X144678D01*
Y-141401D01*
X143679D01*
X149677Y-145400D02*
X151676D01*
X152676Y-144400D01*
Y-142401D01*
X151676Y-141401D01*
X149677D01*
X148677Y-142401D01*
Y-144400D01*
X149677Y-145400D01*
X154675D02*
Y-141401D01*
X157674D01*
X158674Y-142401D01*
Y-145400D01*
X160673D02*
X163672D01*
X164672Y-144400D01*
X163672Y-143401D01*
X161673D01*
X160673Y-142401D01*
X161673Y-141401D01*
X164672D01*
X172669D02*
X173669D01*
Y-142401D01*
X172669D01*
Y-141401D01*
Y-144400D02*
X173669D01*
Y-145400D01*
X172669D01*
Y-144400D01*
X185269Y-145400D02*
Y-139402D01*
X188268D01*
X189268Y-140402D01*
Y-142401D01*
X188268Y-143401D01*
X185269D01*
X187268D02*
X189268Y-145400D01*
X192267D02*
X194266D01*
X195266Y-144400D01*
Y-142401D01*
X194266Y-141401D01*
X192267D01*
X191267Y-142401D01*
Y-144400D01*
X192267Y-145400D01*
X197265Y-141401D02*
Y-144400D01*
X198265Y-145400D01*
X201264D01*
Y-141401D01*
X204263Y-140402D02*
Y-141401D01*
X203263D01*
X205262D01*
X204263D01*
Y-144400D01*
X205262Y-145400D01*
X214260D02*
Y-139402D01*
X217259D01*
X218258Y-140402D01*
Y-142401D01*
X217259Y-143401D01*
X214260D01*
X221257Y-141401D02*
X223257D01*
X224256Y-142401D01*
Y-145400D01*
X221257D01*
X220258Y-144400D01*
X221257Y-143401D01*
X224256D01*
X227255Y-140402D02*
Y-141401D01*
X226256D01*
X228255D01*
X227255D01*
Y-144400D01*
X228255Y-145400D01*
X231254Y-139402D02*
Y-145400D01*
Y-142401D01*
X232254Y-141401D01*
X234253D01*
X235253Y-142401D01*
Y-145400D01*
X243250Y-139402D02*
Y-145400D01*
X247249D01*
X252247D02*
X250248D01*
X249248Y-144400D01*
Y-142401D01*
X250248Y-141401D01*
X252247D01*
X253247Y-142401D01*
Y-143401D01*
X249248D01*
X255246Y-145400D02*
Y-141401D01*
X258245D01*
X259245Y-142401D01*
Y-145400D01*
X263244Y-147399D02*
X264243D01*
X265243Y-146400D01*
Y-141401D01*
X262244D01*
X261244Y-142401D01*
Y-144400D01*
X262244Y-145400D01*
X265243D01*
X268242Y-140402D02*
Y-141401D01*
X267242D01*
X269242D01*
X268242D01*
Y-144400D01*
X269242Y-145400D01*
X272241Y-139402D02*
Y-145400D01*
Y-142401D01*
X273240Y-141401D01*
X275240D01*
X276239Y-142401D01*
Y-145400D01*
X185269Y-157400D02*
Y-151402D01*
X188268D01*
X189268Y-152402D01*
Y-154401D01*
X188268Y-155401D01*
X185269D01*
X191267Y-151402D02*
Y-157400D01*
Y-154401D01*
X192267Y-153401D01*
X194266D01*
X195266Y-154401D01*
Y-157400D01*
X197265Y-153401D02*
Y-156400D01*
X198265Y-157400D01*
X201264D01*
Y-158400D01*
X200264Y-159399D01*
X199264D01*
X201264Y-157400D02*
Y-153401D01*
X203263Y-157400D02*
X206262D01*
X207262Y-156400D01*
X206262Y-155401D01*
X204263D01*
X203263Y-154401D01*
X204263Y-153401D01*
X207262D01*
X209261Y-157400D02*
X211261D01*
X210261D01*
Y-153401D01*
X209261D01*
X218258D02*
X215259D01*
X214260Y-154401D01*
Y-156400D01*
X215259Y-157400D01*
X218258D01*
X221257Y-153401D02*
X223257D01*
X224256Y-154401D01*
Y-157400D01*
X221257D01*
X220258Y-156400D01*
X221257Y-155401D01*
X224256D01*
X226256Y-157400D02*
X228255D01*
X227255D01*
Y-151402D01*
X226256D01*
X237252D02*
Y-157400D01*
X241251D01*
X246249D02*
X244250D01*
X243250Y-156400D01*
Y-154401D01*
X244250Y-153401D01*
X246249D01*
X247249Y-154401D01*
Y-155401D01*
X243250D01*
X249248Y-157400D02*
Y-153401D01*
X252247D01*
X253247Y-154401D01*
Y-157400D01*
X257246Y-159399D02*
X258245D01*
X259245Y-158400D01*
Y-153401D01*
X256246D01*
X255246Y-154401D01*
Y-156400D01*
X256246Y-157400D01*
X259245D01*
X262244Y-152402D02*
Y-153401D01*
X261244D01*
X263244D01*
X262244D01*
Y-156400D01*
X263244Y-157400D01*
X266243Y-151402D02*
Y-157400D01*
Y-154401D01*
X267242Y-153401D01*
X269242D01*
X270241Y-154401D01*
Y-157400D01*
M02*
