%FSLAX25Y25*%
%MOIN*%
G70*
G01*
G75*
G04 Layer_Physical_Order=2*
G04 Layer_Color=16711680*
%ADD10C,0.01500*%
%ADD11C,0.02000*%
%ADD12C,0.01000*%
%ADD13C,0.00700*%
%ADD14C,0.05000*%
%ADD15R,0.03740X0.03937*%
%ADD16R,0.02000X0.02000*%
%ADD17R,0.04724X0.03347*%
%ADD18R,0.03937X0.03937*%
%ADD19R,0.02000X0.02000*%
%ADD20R,0.02165X0.05709*%
%ADD21R,0.02165X0.05709*%
%ADD22R,0.01500X0.05400*%
%ADD23O,0.02756X0.09843*%
%ADD24R,0.07874X0.03937*%
%ADD25R,0.05906X0.04500*%
%ADD26R,0.06575X0.06693*%
%ADD27R,0.08661X0.07874*%
%ADD28C,0.03000*%
%ADD29C,0.03200*%
%ADD30R,0.44900X0.10200*%
%ADD31C,0.04724*%
%ADD32O,0.05906X0.07480*%
%ADD33C,0.03150*%
%ADD34C,0.06900*%
%ADD35R,0.06900X0.06900*%
%ADD36C,0.02362*%
%ADD37R,0.44900X0.09800*%
G36*
X52952Y24510D02*
X52504Y24324D01*
X51470Y23530D01*
X50676Y22496D01*
X50177Y21292D01*
X50007Y20000D01*
X50177Y18708D01*
X50676Y17504D01*
X51470Y16470D01*
X52504Y15676D01*
X53532Y15250D01*
Y14750D01*
X52504Y14324D01*
X51470Y13530D01*
X50676Y12496D01*
X50177Y11292D01*
X50007Y10000D01*
X50177Y8708D01*
X50676Y7504D01*
X51470Y6470D01*
X52504Y5676D01*
X53532Y5250D01*
Y4750D01*
X52504Y4324D01*
X51470Y3530D01*
X50676Y2496D01*
X50177Y1292D01*
X50007Y0D01*
X50177Y-1292D01*
X50676Y-2496D01*
X51470Y-3530D01*
X52504Y-4324D01*
X53532Y-4750D01*
Y-5250D01*
X52504Y-5676D01*
X51470Y-6470D01*
X50676Y-7504D01*
X50177Y-8708D01*
X50007Y-10000D01*
X50177Y-11292D01*
X50676Y-12496D01*
X51470Y-13530D01*
X52504Y-14324D01*
X53532Y-14750D01*
Y-15250D01*
X52504Y-15676D01*
X51470Y-16470D01*
X50676Y-17504D01*
X50177Y-18708D01*
X50007Y-20000D01*
X50177Y-21292D01*
X50676Y-22496D01*
X51470Y-23530D01*
X52504Y-24324D01*
X53532Y-24750D01*
Y-25250D01*
X52504Y-25676D01*
X51470Y-26470D01*
X50676Y-27504D01*
X50177Y-28708D01*
X50007Y-30000D01*
X50177Y-31292D01*
X50676Y-32496D01*
X51470Y-33530D01*
X52504Y-34324D01*
X53708Y-34823D01*
X55000Y-34993D01*
X56292Y-34823D01*
X57496Y-34324D01*
X58430Y-33607D01*
X58878Y-33828D01*
Y-36967D01*
X58405Y-37128D01*
X58174Y-36826D01*
X57244Y-36113D01*
X56162Y-35664D01*
X55500Y-35577D01*
Y-40000D01*
Y-44423D01*
X56162Y-44335D01*
X57244Y-43887D01*
X58174Y-43174D01*
X58405Y-42873D01*
X58878Y-43033D01*
Y-46172D01*
X58430Y-46393D01*
X57496Y-45676D01*
X56292Y-45177D01*
X55000Y-45007D01*
X53708Y-45177D01*
X52504Y-45676D01*
X51470Y-46470D01*
X50676Y-47504D01*
X50177Y-48708D01*
X50007Y-50000D01*
X50177Y-51292D01*
X50676Y-52496D01*
X51470Y-53530D01*
X52504Y-54324D01*
X53532Y-54750D01*
Y-55250D01*
X52504Y-55676D01*
X51470Y-56470D01*
X50676Y-57504D01*
X50177Y-58708D01*
X50007Y-60000D01*
X50177Y-61292D01*
X50676Y-62496D01*
X51470Y-63530D01*
X52504Y-64324D01*
X53532Y-64750D01*
Y-65250D01*
X52504Y-65676D01*
X51470Y-66470D01*
X50676Y-67504D01*
X50177Y-68708D01*
X50007Y-70000D01*
X50177Y-71292D01*
X50676Y-72496D01*
X51470Y-73530D01*
X52504Y-74324D01*
X53532Y-74750D01*
Y-75250D01*
X52504Y-75676D01*
X51470Y-76470D01*
X50676Y-77504D01*
X50177Y-78708D01*
X50007Y-80000D01*
X50177Y-81292D01*
X50676Y-82496D01*
X51470Y-83530D01*
X52504Y-84324D01*
X53532Y-84750D01*
Y-85250D01*
X52504Y-85676D01*
X51470Y-86470D01*
X50676Y-87504D01*
X50177Y-88708D01*
X50007Y-90000D01*
X50177Y-91292D01*
X50676Y-92496D01*
X51470Y-93530D01*
X52504Y-94324D01*
X53532Y-94750D01*
Y-95250D01*
X52504Y-95676D01*
X51470Y-96470D01*
X50676Y-97504D01*
X50177Y-98708D01*
X50007Y-100000D01*
X50177Y-101292D01*
X50676Y-102496D01*
X51470Y-103530D01*
X52504Y-104324D01*
X53708Y-104823D01*
X55000Y-104993D01*
X56292Y-104823D01*
X57496Y-104324D01*
X58430Y-103607D01*
X58878Y-103829D01*
Y-106967D01*
X58405Y-107127D01*
X58174Y-106826D01*
X57244Y-106113D01*
X56162Y-105665D01*
X55500Y-105577D01*
Y-110000D01*
Y-114423D01*
X56162Y-114336D01*
X57244Y-113887D01*
X58174Y-113174D01*
X58405Y-112873D01*
X58878Y-113033D01*
Y-115050D01*
X52609D01*
X52147Y-114695D01*
X52069Y-114617D01*
X52046Y-114590D01*
X52043Y-114592D01*
X44426Y-106974D01*
X43863Y-106599D01*
X43200Y-106467D01*
X6379D01*
X6143Y-106026D01*
X6472Y-105534D01*
X6618Y-104800D01*
X6472Y-104066D01*
X6056Y-103444D01*
X5434Y-103028D01*
X4700Y-102882D01*
X3966Y-103028D01*
X3527Y-103322D01*
X2873D01*
X2434Y-103028D01*
X1700Y-102882D01*
X966Y-103028D01*
X527Y-103322D01*
X-1065D01*
X-2682Y-103000D01*
X-2828Y-102266D01*
X-3122Y-101827D01*
Y-101573D01*
X-2828Y-101134D01*
X-2725Y-100616D01*
X-888Y-98778D01*
X827D01*
X1266Y-99072D01*
X2000Y-99218D01*
X2734Y-99072D01*
X3173Y-98778D01*
X3327D01*
X3766Y-99072D01*
X4500Y-99218D01*
X5234Y-99072D01*
X5856Y-98656D01*
X6272Y-98034D01*
X6418Y-97300D01*
X6272Y-96566D01*
X5856Y-95944D01*
X5289Y-95565D01*
Y-95065D01*
X5856Y-94685D01*
X6272Y-94063D01*
X6418Y-93329D01*
X6333Y-92900D01*
X6774Y-92664D01*
X14825Y-100716D01*
X14928Y-101234D01*
X15344Y-101856D01*
X15966Y-102272D01*
X16700Y-102418D01*
X17434Y-102272D01*
X17873Y-101978D01*
X18227D01*
X18666Y-102272D01*
X19400Y-102418D01*
X20134Y-102272D01*
X20756Y-101856D01*
X21172Y-101234D01*
X21318Y-100500D01*
X21172Y-99766D01*
X20756Y-99144D01*
X20134Y-98728D01*
X19400Y-98582D01*
X18666Y-98728D01*
X18227Y-99022D01*
X17873D01*
X17434Y-98728D01*
X16916Y-98625D01*
X7545Y-89255D01*
X7066Y-88934D01*
X6500Y-88822D01*
X-7636D01*
X-7663Y-88782D01*
X-7775Y-88219D01*
X-7713Y-87911D01*
X-7762Y-87901D01*
X-7682Y-87500D01*
X-7828Y-86766D01*
X-8122Y-86327D01*
Y-86073D01*
X-7828Y-85634D01*
X-7682Y-84900D01*
X-7828Y-84166D01*
X-8244Y-83544D01*
X-8866Y-83128D01*
X-9600Y-82982D01*
X-10334Y-83128D01*
X-10956Y-83544D01*
X-11372Y-84166D01*
X-11518Y-84900D01*
X-11372Y-85634D01*
X-11078Y-86073D01*
Y-86327D01*
X-11372Y-86766D01*
X-11518Y-87500D01*
X-11372Y-88234D01*
X-11078Y-88673D01*
Y-89084D01*
X-10966Y-89650D01*
X-10645Y-90130D01*
X-9561Y-91215D01*
X-9598Y-91598D01*
X-9727Y-91791D01*
X-9956Y-91944D01*
X-10372Y-92566D01*
X-10518Y-93300D01*
X-10372Y-94034D01*
X-9956Y-94656D01*
X-9334Y-95072D01*
X-8600Y-95218D01*
X-7866Y-95072D01*
X-7470Y-94807D01*
X-7244D01*
X-6805Y-95101D01*
X-6071Y-95247D01*
X-5337Y-95101D01*
X-4898Y-94807D01*
X827D01*
X1211Y-95065D01*
Y-95565D01*
X827Y-95822D01*
X-1500D01*
X-2066Y-95934D01*
X-2545Y-96255D01*
X-4816Y-98525D01*
X-5334Y-98628D01*
X-5956Y-99044D01*
X-6372Y-99666D01*
X-6518Y-100400D01*
X-6372Y-101134D01*
X-6078Y-101573D01*
Y-101827D01*
X-6372Y-102266D01*
X-6518Y-103000D01*
X-6372Y-103734D01*
X-6341Y-103781D01*
X-6577Y-104222D01*
X-7788D01*
X-14522Y-97488D01*
Y-90073D01*
X-14228Y-89634D01*
X-14082Y-88900D01*
X-14228Y-88166D01*
X-14644Y-87544D01*
X-15266Y-87128D01*
X-15784Y-87025D01*
X-17822Y-84988D01*
Y-58612D01*
X-14970Y-55761D01*
X-14650Y-55282D01*
X-14537Y-54716D01*
Y-17128D01*
X-13988Y-16578D01*
X788D01*
X2555Y-18345D01*
X3034Y-18666D01*
X3600Y-18778D01*
X22527D01*
X22966Y-19072D01*
X23700Y-19218D01*
X24434Y-19072D01*
X24873Y-18778D01*
X25027D01*
X25433Y-19050D01*
Y-19550D01*
X25027Y-19822D01*
X1573D01*
X1134Y-19528D01*
X400Y-19382D01*
X-334Y-19528D01*
X-773Y-19822D01*
X-1427D01*
X-1866Y-19528D01*
X-2600Y-19382D01*
X-3334Y-19528D01*
X-3956Y-19944D01*
X-4372Y-20566D01*
X-4518Y-21300D01*
X-4372Y-22034D01*
X-3956Y-22656D01*
X-3334Y-23072D01*
X-2600Y-23218D01*
X-1866Y-23072D01*
X-1427Y-22778D01*
X-773D01*
X-334Y-23072D01*
X400Y-23218D01*
X1134Y-23072D01*
X1573Y-22778D01*
X25027D01*
X25466Y-23072D01*
X26200Y-23218D01*
X26934Y-23072D01*
X27373Y-22778D01*
X27527D01*
X27966Y-23072D01*
X28700Y-23218D01*
X29434Y-23072D01*
X30056Y-22656D01*
X30472Y-22034D01*
X30618Y-21300D01*
X30472Y-20566D01*
X30056Y-19944D01*
X29434Y-19528D01*
X28700Y-19382D01*
X27966Y-19528D01*
X27527Y-19822D01*
X27373D01*
X26967Y-19550D01*
Y-19050D01*
X27556Y-18656D01*
X27972Y-18034D01*
X28118Y-17300D01*
X27972Y-16566D01*
X27556Y-15944D01*
X26934Y-15528D01*
X26200Y-15382D01*
X25466Y-15528D01*
X25027Y-15822D01*
X24873D01*
X24434Y-15528D01*
X23700Y-15382D01*
X22966Y-15528D01*
X22527Y-15822D01*
X4212D01*
X2445Y-14055D01*
X1966Y-13734D01*
X1400Y-13622D01*
X-14600D01*
X-15072Y-13715D01*
X-15166Y-13734D01*
X-15645Y-14055D01*
X-17061Y-15470D01*
X-17382Y-15950D01*
X-17494Y-16516D01*
Y-54103D01*
X-20345Y-56955D01*
X-20666Y-57434D01*
X-20778Y-58000D01*
Y-85600D01*
X-20666Y-86166D01*
X-20345Y-86645D01*
X-17875Y-89116D01*
X-17772Y-89634D01*
X-17478Y-90073D01*
Y-98017D01*
X-17864Y-98177D01*
X-17954Y-98195D01*
X-21567Y-94582D01*
Y-70192D01*
X-21528Y-70134D01*
X-21382Y-69400D01*
X-21528Y-68666D01*
X-21944Y-68044D01*
X-22566Y-67628D01*
X-23300Y-67482D01*
X-24034Y-67628D01*
X-24656Y-68044D01*
X-25072Y-68666D01*
X-25218Y-69400D01*
X-25072Y-70134D01*
X-25033Y-70192D01*
Y-95300D01*
X-24901Y-95963D01*
X-24526Y-96526D01*
X-11626Y-109426D01*
X-11626Y-109426D01*
X-11063Y-109801D01*
X-10400Y-109933D01*
X42482D01*
X49592Y-117043D01*
X49589Y-117046D01*
X49617Y-117069D01*
X49695Y-117147D01*
X50050Y-117609D01*
Y-124950D01*
X58446D01*
X58786Y-125317D01*
X58741Y-125890D01*
X58307Y-127698D01*
X57595Y-129416D01*
X56623Y-131002D01*
X55416Y-132416D01*
X54002Y-133623D01*
X52416Y-134595D01*
X50698Y-135307D01*
X48890Y-135741D01*
X47139Y-135878D01*
X-47037D01*
X-47066Y-135884D01*
X-48890Y-135741D01*
X-50698Y-135307D01*
X-52416Y-134595D01*
X-54002Y-133623D01*
X-55416Y-132416D01*
X-56623Y-131002D01*
X-57595Y-129416D01*
X-58307Y-127698D01*
X-58741Y-125890D01*
X-58786Y-125317D01*
X-58446Y-124950D01*
X-50050D01*
Y-122243D01*
X-36594D01*
X-36316Y-122659D01*
X-36539Y-123197D01*
X-36645Y-124000D01*
X-36539Y-124803D01*
X-36229Y-125551D01*
X-35736Y-126193D01*
X-35094Y-126686D01*
X-34346Y-126996D01*
X-33543Y-127101D01*
X-32741Y-126996D01*
X-31993Y-126686D01*
X-31350Y-126193D01*
X-30858Y-125551D01*
X-30548Y-124803D01*
X-30442Y-124000D01*
X-30548Y-123197D01*
X-30771Y-122659D01*
X-30493Y-122243D01*
X-29507D01*
X-29229Y-122659D01*
X-29452Y-123197D01*
X-29558Y-124000D01*
X-29452Y-124803D01*
X-29142Y-125551D01*
X-28650Y-126193D01*
X-28007Y-126686D01*
X-27259Y-126996D01*
X-26457Y-127101D01*
X-25654Y-126996D01*
X-24906Y-126686D01*
X-24264Y-126193D01*
X-23771Y-125551D01*
X-23461Y-124803D01*
X-23355Y-124000D01*
X-23461Y-123197D01*
X-23684Y-122659D01*
X-23406Y-122243D01*
X-18500D01*
X-17642Y-122072D01*
X-16914Y-121586D01*
X-16428Y-120858D01*
X-16257Y-120000D01*
X-16428Y-119142D01*
X-16914Y-118414D01*
X-17642Y-117928D01*
X-18500Y-117757D01*
X-50050D01*
Y-115050D01*
X-58878D01*
Y-113033D01*
X-58405Y-112873D01*
X-58174Y-113174D01*
X-57244Y-113887D01*
X-56162Y-114336D01*
X-55500Y-114423D01*
Y-110000D01*
Y-105577D01*
X-56162Y-105665D01*
X-57244Y-106113D01*
X-58174Y-106826D01*
X-58405Y-107127D01*
X-58878Y-106967D01*
Y-103829D01*
X-58430Y-103607D01*
X-57496Y-104324D01*
X-56292Y-104823D01*
X-55000Y-104993D01*
X-53708Y-104823D01*
X-52504Y-104324D01*
X-51470Y-103530D01*
X-50676Y-102496D01*
X-50177Y-101292D01*
X-50007Y-100000D01*
X-50177Y-98708D01*
X-50676Y-97504D01*
X-51470Y-96470D01*
X-52504Y-95676D01*
X-53532Y-95250D01*
Y-94750D01*
X-52504Y-94324D01*
X-51470Y-93530D01*
X-50676Y-92496D01*
X-50177Y-91292D01*
X-50007Y-90000D01*
X-50177Y-88708D01*
X-50676Y-87504D01*
X-51470Y-86470D01*
X-52504Y-85676D01*
X-53532Y-85250D01*
Y-84750D01*
X-52504Y-84324D01*
X-51470Y-83530D01*
X-50676Y-82496D01*
X-50177Y-81292D01*
X-50007Y-80000D01*
X-50177Y-78708D01*
X-50276Y-78470D01*
X-50232Y-78404D01*
X-49128Y-77300D01*
X-48649Y-77445D01*
X-48572Y-77834D01*
X-48156Y-78456D01*
X-47534Y-78872D01*
X-47016Y-78975D01*
X-44745Y-81245D01*
X-44266Y-81566D01*
X-43700Y-81678D01*
X-41012D01*
X-38625Y-84065D01*
X-38572Y-84334D01*
X-38178Y-84923D01*
Y-85627D01*
X-38472Y-86066D01*
X-38618Y-86800D01*
X-38472Y-87534D01*
X-38056Y-88156D01*
X-37434Y-88572D01*
X-36700Y-88718D01*
X-35966Y-88572D01*
X-35344Y-88156D01*
X-34928Y-87534D01*
X-34782Y-86800D01*
X-34928Y-86066D01*
X-35222Y-85627D01*
Y-84624D01*
X-35028Y-84334D01*
X-34882Y-83600D01*
X-35028Y-82866D01*
X-35444Y-82244D01*
X-36066Y-81828D01*
X-36800Y-81682D01*
X-36800Y-81671D01*
X-36815Y-81665D01*
X-36818Y-81663D01*
X-36818Y-81663D01*
D01*
D01*
Y-81663D01*
X-36835Y-81674D01*
X-39355Y-79155D01*
X-39834Y-78834D01*
X-40400Y-78722D01*
X-43088D01*
X-44925Y-76884D01*
X-45028Y-76366D01*
X-45444Y-75744D01*
X-46066Y-75328D01*
X-46455Y-75251D01*
X-46600Y-74772D01*
X-37414Y-65586D01*
X-36928Y-64858D01*
X-36757Y-64000D01*
Y-63800D01*
Y-60900D01*
Y-58000D01*
X-36928Y-57142D01*
X-37414Y-56414D01*
X-38142Y-55928D01*
X-39000Y-55757D01*
X-39858Y-55928D01*
X-40586Y-56414D01*
X-41072Y-57142D01*
X-41243Y-58000D01*
Y-60900D01*
Y-63071D01*
X-50719Y-72547D01*
X-51113Y-72244D01*
X-50665Y-71162D01*
X-50577Y-70500D01*
X-55000D01*
Y-70000D01*
X-55500D01*
Y-65577D01*
X-56162Y-65664D01*
X-57244Y-66113D01*
X-58174Y-66826D01*
X-58405Y-67128D01*
X-58878Y-66967D01*
Y-63828D01*
X-58430Y-63607D01*
X-57496Y-64324D01*
X-56292Y-64823D01*
X-55000Y-64993D01*
X-53708Y-64823D01*
X-52504Y-64324D01*
X-51470Y-63530D01*
X-50676Y-62496D01*
X-50177Y-61292D01*
X-50007Y-60000D01*
X-50177Y-58708D01*
X-50676Y-57504D01*
X-51470Y-56470D01*
X-52504Y-55676D01*
X-53708Y-55177D01*
X-55000Y-55007D01*
X-56292Y-55177D01*
X-57496Y-55676D01*
X-58430Y-56393D01*
X-58878Y-56172D01*
Y-53033D01*
X-58405Y-52873D01*
X-58174Y-53174D01*
X-57244Y-53887D01*
X-56162Y-54335D01*
X-55500Y-54423D01*
Y-50000D01*
Y-45577D01*
X-56162Y-45665D01*
X-57244Y-46113D01*
X-58174Y-46826D01*
X-58405Y-47128D01*
X-58878Y-46967D01*
Y-43828D01*
X-58430Y-43607D01*
X-57496Y-44324D01*
X-56292Y-44823D01*
X-55000Y-44993D01*
X-53708Y-44823D01*
X-52504Y-44324D01*
X-51470Y-43530D01*
X-50676Y-42496D01*
X-50177Y-41292D01*
X-50007Y-40000D01*
X-50177Y-38708D01*
X-50676Y-37504D01*
X-51470Y-36470D01*
X-52504Y-35676D01*
X-53532Y-35250D01*
Y-34750D01*
X-52504Y-34324D01*
X-51470Y-33530D01*
X-50676Y-32496D01*
X-50177Y-31292D01*
X-50007Y-30000D01*
X-50177Y-28708D01*
X-50676Y-27504D01*
X-51470Y-26470D01*
X-52504Y-25676D01*
X-53532Y-25250D01*
Y-24750D01*
X-52504Y-24324D01*
X-51470Y-23530D01*
X-50676Y-22496D01*
X-50177Y-21292D01*
X-50007Y-20000D01*
X-50177Y-18708D01*
X-50676Y-17504D01*
X-51470Y-16470D01*
X-52504Y-15676D01*
X-53532Y-15250D01*
Y-14750D01*
X-52504Y-14324D01*
X-51470Y-13530D01*
X-50676Y-12496D01*
X-50177Y-11292D01*
X-50007Y-10000D01*
X-50177Y-8708D01*
X-50676Y-7504D01*
X-51470Y-6470D01*
X-52504Y-5676D01*
X-53532Y-5250D01*
Y-4750D01*
X-52504Y-4324D01*
X-51470Y-3530D01*
X-50676Y-2496D01*
X-50177Y-1292D01*
X-50007Y0D01*
X-50177Y1292D01*
X-50676Y2496D01*
X-51470Y3530D01*
X-52504Y4324D01*
X-53532Y4750D01*
Y5250D01*
X-52504Y5676D01*
X-51470Y6470D01*
X-50676Y7504D01*
X-50177Y8708D01*
X-50007Y10000D01*
X-50177Y11292D01*
X-50676Y12496D01*
X-51470Y13530D01*
X-52504Y14324D01*
X-53532Y14750D01*
Y15250D01*
X-52504Y15676D01*
X-51470Y16470D01*
X-50676Y17504D01*
X-50177Y18708D01*
X-50007Y20000D01*
X-50177Y21292D01*
X-50676Y22496D01*
X-51470Y23530D01*
X-52504Y24324D01*
X-52952Y24510D01*
X-52855Y25000D01*
X-28122D01*
X-28036Y24571D01*
X-27793Y24207D01*
X-27429Y23964D01*
X-27000Y23878D01*
X27000D01*
X27429Y23964D01*
X27793Y24207D01*
X28036Y24571D01*
X28122Y25000D01*
X52855D01*
X52952Y24510D01*
D02*
G37*
%LPC*%
G36*
X-54500Y-105577D02*
Y-109500D01*
X-50577D01*
X-50665Y-108838D01*
X-51113Y-107756D01*
X-51826Y-106826D01*
X-52756Y-106113D01*
X-53838Y-105665D01*
X-54500Y-105577D01*
D02*
G37*
G36*
X54500Y-110500D02*
X50577D01*
X50665Y-111162D01*
X51113Y-112244D01*
X51826Y-113174D01*
X52756Y-113887D01*
X53838Y-114336D01*
X54500Y-114423D01*
Y-110500D01*
D02*
G37*
G36*
X-54500Y-65577D02*
Y-69500D01*
X-50577D01*
X-50665Y-68838D01*
X-51113Y-67756D01*
X-51826Y-66826D01*
X-52756Y-66113D01*
X-53838Y-65664D01*
X-54500Y-65577D01*
D02*
G37*
G36*
X54500Y-105577D02*
X53838Y-105665D01*
X52756Y-106113D01*
X51826Y-106826D01*
X51113Y-107756D01*
X50665Y-108838D01*
X50577Y-109500D01*
X54500D01*
Y-105577D01*
D02*
G37*
G36*
X33543Y-120899D02*
X32741Y-121004D01*
X31993Y-121314D01*
X31350Y-121807D01*
X30858Y-122449D01*
X30548Y-123197D01*
X30442Y-124000D01*
X30548Y-124803D01*
X30858Y-125551D01*
X31350Y-126193D01*
X31993Y-126686D01*
X32741Y-126996D01*
X33543Y-127101D01*
X34346Y-126996D01*
X35094Y-126686D01*
X35736Y-126193D01*
X36229Y-125551D01*
X36539Y-124803D01*
X36645Y-124000D01*
X36539Y-123197D01*
X36229Y-122449D01*
X35736Y-121807D01*
X35094Y-121314D01*
X34346Y-121004D01*
X33543Y-120899D01*
D02*
G37*
G36*
X26457D02*
X25654Y-121004D01*
X24906Y-121314D01*
X24264Y-121807D01*
X23771Y-122449D01*
X23461Y-123197D01*
X23355Y-124000D01*
X23461Y-124803D01*
X23771Y-125551D01*
X24264Y-126193D01*
X24906Y-126686D01*
X25654Y-126996D01*
X26457Y-127101D01*
X27259Y-126996D01*
X28007Y-126686D01*
X28650Y-126193D01*
X29142Y-125551D01*
X29452Y-124803D01*
X29558Y-124000D01*
X29452Y-123197D01*
X29142Y-122449D01*
X28650Y-121807D01*
X28007Y-121314D01*
X27259Y-121004D01*
X26457Y-120899D01*
D02*
G37*
G36*
X-50577Y-110500D02*
X-54500D01*
Y-114423D01*
X-53838Y-114336D01*
X-52756Y-113887D01*
X-51826Y-113174D01*
X-51113Y-112244D01*
X-50665Y-111162D01*
X-50577Y-110500D01*
D02*
G37*
G36*
X-42700Y-85782D02*
X-43434Y-85928D01*
X-44056Y-86344D01*
X-44472Y-86966D01*
X-44618Y-87700D01*
X-44472Y-88434D01*
X-44178Y-88873D01*
Y-89327D01*
X-44472Y-89766D01*
X-44618Y-90500D01*
X-44472Y-91234D01*
X-44056Y-91856D01*
X-43434Y-92272D01*
X-43415Y-92276D01*
X-42734Y-92957D01*
X-42728Y-92965D01*
X-42728D01*
X-42726D01*
X-33875Y-101816D01*
X-33772Y-102334D01*
X-33356Y-102956D01*
X-32734Y-103372D01*
X-32216Y-103475D01*
X-31775Y-103916D01*
X-31672Y-104434D01*
X-31256Y-105056D01*
X-30634Y-105472D01*
X-30116Y-105575D01*
X-23068Y-112623D01*
D01*
X-23076Y-112631D01*
X-23008Y-112683D01*
X-21716Y-113974D01*
X-21237Y-114295D01*
X-21143Y-114314D01*
X-21102Y-114322D01*
X-20534Y-114701D01*
X-19800Y-114847D01*
X-19066Y-114701D01*
X-18444Y-114285D01*
X-18028Y-113663D01*
X-17882Y-112929D01*
X-18028Y-112195D01*
X-18444Y-111573D01*
X-19066Y-111157D01*
X-19800Y-111011D01*
X-19848Y-111021D01*
X-20441Y-110903D01*
X-20940Y-110570D01*
X-28025Y-103484D01*
X-28128Y-102966D01*
X-28544Y-102344D01*
X-29166Y-101928D01*
X-29684Y-101825D01*
X-30125Y-101384D01*
X-30228Y-100866D01*
X-30644Y-100244D01*
X-31266Y-99828D01*
X-31784Y-99725D01*
X-40636Y-90873D01*
X-40636Y-90873D01*
X-40636Y-90873D01*
X-40670Y-90839D01*
X-40791Y-90547D01*
X-40782Y-90500D01*
X-40928Y-89766D01*
X-41222Y-89327D01*
Y-88873D01*
X-40928Y-88434D01*
X-40782Y-87700D01*
X-40928Y-86966D01*
X-41344Y-86344D01*
X-41966Y-85928D01*
X-42700Y-85782D01*
D02*
G37*
G36*
X46100Y-41682D02*
X45366Y-41828D01*
X44744Y-42244D01*
X44328Y-42866D01*
X44182Y-43600D01*
X44328Y-44334D01*
X44622Y-44773D01*
Y-57127D01*
X44328Y-57566D01*
X44182Y-58300D01*
X44328Y-59034D01*
X44744Y-59656D01*
X45366Y-60072D01*
X46100Y-60218D01*
X46834Y-60072D01*
X47456Y-59656D01*
X47872Y-59034D01*
X48018Y-58300D01*
X47872Y-57566D01*
X47578Y-57127D01*
Y-44773D01*
X47872Y-44334D01*
X48018Y-43600D01*
X47872Y-42866D01*
X47456Y-42244D01*
X46834Y-41828D01*
X46100Y-41682D01*
D02*
G37*
G36*
X-43600Y-2757D02*
X-48500D01*
X-49358Y-2928D01*
X-50086Y-3414D01*
X-50572Y-4142D01*
X-50743Y-5000D01*
X-50572Y-5858D01*
X-50086Y-6586D01*
X-49358Y-7072D01*
X-48500Y-7243D01*
X-44529D01*
X-41243Y-10529D01*
Y-27100D01*
X-41072Y-27958D01*
X-40586Y-28686D01*
X-39858Y-29172D01*
X-39000Y-29343D01*
X-38142Y-29172D01*
X-37414Y-28686D01*
X-36928Y-27958D01*
X-36757Y-27100D01*
Y-9600D01*
X-36928Y-8742D01*
X-37414Y-8014D01*
X-42014Y-3414D01*
X-42742Y-2928D01*
X-43600Y-2757D01*
D02*
G37*
G36*
X54500Y-35577D02*
X53838Y-35664D01*
X52756Y-36113D01*
X51826Y-36826D01*
X51113Y-37756D01*
X50665Y-38838D01*
X50577Y-39500D01*
X54500D01*
Y-35577D01*
D02*
G37*
G36*
X-16800Y-7282D02*
X-17534Y-7428D01*
X-18001Y-7740D01*
X-18099D01*
X-18566Y-7428D01*
X-19300Y-7282D01*
X-20034Y-7428D01*
X-20501Y-7740D01*
X-24045D01*
X-24485Y-7447D01*
X-25218Y-7300D01*
X-25953Y-7447D01*
X-26575Y-7862D01*
X-26990Y-8484D01*
X-27136Y-9218D01*
X-26990Y-9952D01*
X-26575Y-10575D01*
X-25953Y-10990D01*
X-25218Y-11136D01*
X-24485Y-10990D01*
X-24045Y-10697D01*
X-20446D01*
X-20034Y-10972D01*
X-19300Y-11118D01*
X-18566Y-10972D01*
X-18154Y-10697D01*
X-17946D01*
X-17534Y-10972D01*
X-16800Y-11118D01*
X-16066Y-10972D01*
X-15444Y-10556D01*
X-15028Y-9934D01*
X-14882Y-9200D01*
X-15028Y-8466D01*
X-15444Y-7844D01*
X-16066Y-7428D01*
X-16800Y-7282D01*
D02*
G37*
G36*
X-45600Y-7882D02*
X-46334Y-8028D01*
X-46956Y-8444D01*
X-47372Y-9066D01*
X-47518Y-9800D01*
X-47372Y-10534D01*
X-47078Y-10973D01*
Y-22227D01*
X-47372Y-22666D01*
X-47518Y-23400D01*
X-47372Y-24134D01*
X-46956Y-24756D01*
X-46334Y-25172D01*
X-45600Y-25318D01*
X-44866Y-25172D01*
X-44244Y-24756D01*
X-43828Y-24134D01*
X-43682Y-23400D01*
X-43828Y-22666D01*
X-44122Y-22227D01*
Y-10973D01*
X-43828Y-10534D01*
X-43682Y-9800D01*
X-43828Y-9066D01*
X-44244Y-8444D01*
X-44866Y-8028D01*
X-45600Y-7882D01*
D02*
G37*
G36*
X-50577Y-50500D02*
X-54500D01*
Y-54423D01*
X-53838Y-54335D01*
X-52756Y-53887D01*
X-51826Y-53174D01*
X-51113Y-52244D01*
X-50665Y-51162D01*
X-50577Y-50500D01*
D02*
G37*
G36*
X19200Y-26982D02*
X18466Y-27128D01*
X17844Y-27544D01*
X17428Y-28166D01*
X17282Y-28900D01*
X17428Y-29634D01*
X17792Y-30179D01*
X17790Y-30182D01*
X17790D01*
X17822Y-30258D01*
Y-31627D01*
X17528Y-32066D01*
X17382Y-32800D01*
X17528Y-33534D01*
X17822Y-33973D01*
Y-46876D01*
X17628Y-47166D01*
X17482Y-47900D01*
X17628Y-48634D01*
X18044Y-49256D01*
X18666Y-49672D01*
X19184Y-49775D01*
X19448Y-50039D01*
X19448Y-50039D01*
D01*
D01*
Y-50039D01*
D01*
D01*
D01*
X19448D01*
X19550Y-50141D01*
X19628Y-50534D01*
X20044Y-51156D01*
X20666Y-51572D01*
X21059Y-51650D01*
X21161Y-51752D01*
D01*
X21161Y-51752D01*
X25455Y-56045D01*
X25934Y-56366D01*
X26500Y-56478D01*
X30727D01*
X31166Y-56772D01*
X31900Y-56918D01*
X32634Y-56772D01*
X33073Y-56478D01*
X33127D01*
X33566Y-56772D01*
X34300Y-56918D01*
X35034Y-56772D01*
X35656Y-56356D01*
X36072Y-55734D01*
X36218Y-55000D01*
X36072Y-54266D01*
X35656Y-53644D01*
Y-53206D01*
X36072Y-52584D01*
X36218Y-51850D01*
X36072Y-51116D01*
X35656Y-50494D01*
X35034Y-50078D01*
X34300Y-49932D01*
X33566Y-50078D01*
X33127Y-50372D01*
X33073D01*
X32634Y-50078D01*
X31900Y-49932D01*
X31166Y-50078D01*
X30727Y-50372D01*
X27783D01*
X23578Y-46167D01*
Y-36273D01*
X23872Y-35834D01*
X24018Y-35100D01*
X23872Y-34366D01*
X23578Y-33927D01*
Y-31773D01*
X23872Y-31334D01*
X24018Y-30600D01*
X23872Y-29866D01*
X23456Y-29244D01*
X22834Y-28828D01*
X22100Y-28682D01*
X21366Y-28828D01*
X20992Y-28269D01*
X20972Y-28166D01*
X20556Y-27544D01*
X19934Y-27128D01*
X19200Y-26982D01*
D02*
G37*
G36*
X54500Y-40500D02*
X50577D01*
X50665Y-41162D01*
X51113Y-42244D01*
X51826Y-43174D01*
X52756Y-43887D01*
X53838Y-44335D01*
X54500Y-44423D01*
Y-40500D01*
D02*
G37*
G36*
X-54500Y-45577D02*
Y-49500D01*
X-50577D01*
X-50665Y-48838D01*
X-51113Y-47756D01*
X-51826Y-46826D01*
X-52756Y-46113D01*
X-53838Y-45665D01*
X-54500Y-45577D01*
D02*
G37*
%LPD*%
D10*
X-37877Y-82723D02*
G03*
X-36800Y-83169I1077J1077D01*
G01*
X19816Y-47788D02*
G03*
X20938Y-49250I2325J623D01*
G01*
X19300Y-46618D02*
G03*
X19705Y-47595I1382J0D01*
G01*
X19300Y-30182D02*
G03*
X18895Y-29205I-1382J0D01*
G01*
X20493Y-48993D02*
G03*
X21400Y-49369I907J907D01*
G01*
X21831Y-49800D02*
G03*
X22207Y-50707I1282J0D01*
G01*
X-22023Y-111577D02*
G03*
X-19800Y-112498I2223J2223D01*
G01*
X-9179Y-87592D02*
G03*
X-8384Y-90300I2876J-627D01*
G01*
X-42269Y-90500D02*
G03*
X-41681Y-91919I2006J0D01*
G01*
X-40400Y-80200D02*
X-36800Y-83800D01*
X-43700Y-80200D02*
X-40400D01*
X-46800Y-77100D02*
X-43700Y-80200D01*
X-3579Y-105700D02*
X-2679Y-104800D01*
X-8400Y-105700D02*
X-3579D01*
X-16000Y-98100D02*
X-8400Y-105700D01*
X-29900Y-103700D02*
X-20671Y-112929D01*
X16700Y-100500D02*
X19400D01*
X-9600Y-89084D02*
Y-84900D01*
X-14600Y-15100D02*
X1400D01*
X-16016Y-16516D02*
X-14600Y-15100D01*
X-16016Y-54716D02*
Y-16516D01*
X1400Y-15100D02*
X3600Y-17300D01*
X-16000Y-98100D02*
Y-88900D01*
X-19300Y-85600D02*
X-16000Y-88900D01*
X-19300Y-85600D02*
Y-58000D01*
X-9600Y-89084D02*
X-8384Y-90300D01*
X6500D02*
X16700Y-100500D01*
X-8384Y-90300D02*
X6500D01*
X-2679Y-104800D02*
X4700D01*
X-20671Y-112929D02*
X-19800D01*
X-19300Y-58000D02*
X-16016Y-54716D01*
X-4600Y-103000D02*
Y-100400D01*
X2000Y-97300D02*
X4500D01*
X-4600Y-100400D02*
X-1500Y-97300D01*
X2000D01*
X-8600Y-93329D02*
X4500D01*
X3600Y-17300D02*
X26200D01*
X400Y-21300D02*
X28700D01*
X-2600D02*
X400D01*
X46100Y-58300D02*
Y-43600D01*
X31900Y-51850D02*
X34300D01*
X22100Y-46779D02*
Y-35100D01*
X31900Y-55000D02*
X34300D01*
X19300Y-32800D02*
Y-28900D01*
X22100Y-35100D02*
Y-30600D01*
X19300Y-47800D02*
Y-32800D01*
X22100Y-46779D02*
X27171Y-51850D01*
X19300Y-47800D02*
X26500Y-55000D01*
X27171Y-51850D02*
X31900D01*
X26500Y-55000D02*
X31900D01*
X-45600Y-23400D02*
Y-9800D01*
X-25218Y-9218D02*
X-16800D01*
X-36700Y-86800D02*
Y-83800D01*
X-42700Y-90900D02*
Y-90500D01*
Y-87700D01*
Y-90900D02*
X-29900Y-103700D01*
D11*
X52550Y-120000D02*
G03*
X50818Y-115818I-5915J0D01*
G01*
D02*
G03*
X55000Y-117550I4182J4182D01*
G01*
X-10400Y-108200D02*
X43200D01*
X-23300Y-95300D02*
X-10400Y-108200D01*
X43200D02*
X55000Y-120000D01*
X-23300Y-95300D02*
Y-69400D01*
D28*
X-55000Y-78050D02*
G03*
X-51671Y-76671I0J4708D01*
G01*
D02*
G03*
X-53050Y-80000I3329J-3329D01*
G01*
X-55000D02*
X-39000Y-64000D01*
X-55000Y-120000D02*
X-18500D01*
X-39000Y-60900D02*
Y-58000D01*
Y-63800D02*
Y-60900D01*
Y-64000D02*
Y-63800D01*
X-48500Y-5000D02*
X-43600D01*
X-39000Y-27100D02*
Y-9600D01*
X-43600Y-5000D02*
X-39000Y-9600D01*
D31*
X9550Y-119000D02*
D03*
X-9550D02*
D03*
D32*
X-14300Y-129400D02*
D03*
X14300D02*
D03*
D33*
X26457Y-124000D02*
D03*
X33543D02*
D03*
X-33543D02*
D03*
X-26457D02*
D03*
D34*
X55000Y20000D02*
D03*
Y-20000D02*
D03*
Y-10000D02*
D03*
Y0D02*
D03*
Y10000D02*
D03*
Y-30000D02*
D03*
Y-40000D02*
D03*
Y-50000D02*
D03*
Y-60000D02*
D03*
Y-110000D02*
D03*
Y-100000D02*
D03*
Y-90000D02*
D03*
Y-80000D02*
D03*
Y-70000D02*
D03*
X-55000Y20000D02*
D03*
Y-20000D02*
D03*
Y-10000D02*
D03*
Y0D02*
D03*
Y10000D02*
D03*
Y-30000D02*
D03*
Y-40000D02*
D03*
Y-50000D02*
D03*
Y-60000D02*
D03*
Y-110000D02*
D03*
Y-100000D02*
D03*
Y-90000D02*
D03*
Y-80000D02*
D03*
Y-70000D02*
D03*
D35*
X55000Y-120000D02*
D03*
X-55000D02*
D03*
D36*
X-46800Y-77100D02*
D03*
X-4600Y-111800D02*
D03*
X-49300Y-104300D02*
D03*
Y-113000D02*
D03*
X-42700Y-109875D02*
D03*
Y-100825D02*
D03*
Y-105350D02*
D03*
X48400Y-106900D02*
D03*
X47400Y-117700D02*
D03*
X46150Y-124300D02*
D03*
X43000D02*
D03*
X39850D02*
D03*
X44400Y-114800D02*
D03*
X42650Y17100D02*
D03*
X45800D02*
D03*
X48950D02*
D03*
X24900Y-111800D02*
D03*
X21183D02*
D03*
X-42700Y-114400D02*
D03*
X14700Y-14200D02*
D03*
X11600Y-24700D02*
D03*
X14750D02*
D03*
X2600Y-111800D02*
D03*
X-13200Y-30750D02*
D03*
X-18800D02*
D03*
X15200Y-49700D02*
D03*
Y-54100D02*
D03*
X-18800Y-27600D02*
D03*
X-13200D02*
D03*
Y-35550D02*
D03*
X-18800D02*
D03*
X-42700Y-90500D02*
D03*
X-9600Y-84900D02*
D03*
X19400Y-100500D02*
D03*
X4700Y-104800D02*
D03*
X-9600Y-87500D02*
D03*
X-16000Y-88900D02*
D03*
X16700Y-100500D02*
D03*
X1700Y-104800D02*
D03*
X31400Y-128300D02*
D03*
X28600D02*
D03*
X-31400D02*
D03*
X-28600D02*
D03*
X5100Y-114800D02*
D03*
X7650Y-134400D02*
D03*
X4500D02*
D03*
X1350D02*
D03*
X-1800D02*
D03*
X-4950D02*
D03*
X-8100D02*
D03*
X7650Y-130500D02*
D03*
X4500D02*
D03*
X1350D02*
D03*
X-1800D02*
D03*
X-4950D02*
D03*
X-8100D02*
D03*
X5100Y-123500D02*
D03*
X-23400Y-120000D02*
D03*
X-39000Y-27100D02*
D03*
Y-21300D02*
D03*
Y-58000D02*
D03*
Y-63800D02*
D03*
X-29900Y-103700D02*
D03*
X-19800Y-112929D02*
D03*
X-12700Y-75600D02*
D03*
X-9900D02*
D03*
X26000Y-100500D02*
D03*
X-4600Y-100400D02*
D03*
Y-103000D02*
D03*
X4500Y-97300D02*
D03*
X-8600Y-93300D02*
D03*
X-6071Y-93329D02*
D03*
X4500Y-93329D02*
D03*
X2000D02*
D03*
Y-97300D02*
D03*
X26200Y-17300D02*
D03*
X23700D02*
D03*
X26200Y-21300D02*
D03*
X28700D02*
D03*
X-2600D02*
D03*
X400D02*
D03*
X46100Y-58300D02*
D03*
Y-43600D02*
D03*
X22100Y-35100D02*
D03*
X21400Y-49800D02*
D03*
X19200Y-28900D02*
D03*
X34300Y-55000D02*
D03*
X19400Y-47900D02*
D03*
X22100Y-30600D02*
D03*
X19300Y-32800D02*
D03*
X34300Y-51850D02*
D03*
X31900D02*
D03*
Y-55000D02*
D03*
X48500Y-35000D02*
D03*
X-16016Y-60100D02*
D03*
Y-62700D02*
D03*
X39500Y17100D02*
D03*
X19900Y16200D02*
D03*
X10100Y0D02*
D03*
X-1700Y-29000D02*
D03*
X-18800Y-14400D02*
D03*
X14000Y10600D02*
D03*
X-45600Y-23400D02*
D03*
X7100Y-46400D02*
D03*
X13800D02*
D03*
X-19300Y-9200D02*
D03*
X-25218Y-9218D02*
D03*
X40000Y-111600D02*
D03*
X36850D02*
D03*
X33700D02*
D03*
X33600Y-105200D02*
D03*
X36600Y-103500D02*
D03*
X48400Y-104400D02*
D03*
X-42700Y-87700D02*
D03*
X36000Y-100500D02*
D03*
X-23300Y-69400D02*
D03*
X-39000Y-60900D02*
D03*
X11000Y-59700D02*
D03*
X28500Y-37573D02*
D03*
X34416D02*
D03*
X31512D02*
D03*
X37596Y-40116D02*
D03*
X-48500Y5000D02*
D03*
Y-5000D02*
D03*
X-36800Y-83600D02*
D03*
X-45600Y-9800D02*
D03*
X-16000Y-65500D02*
D03*
X-33316Y-62500D02*
D03*
X-35900Y-68000D02*
D03*
Y-70800D02*
D03*
X-30000Y-62500D02*
D03*
X-26700D02*
D03*
X1400Y-58800D02*
D03*
X-7984Y-48504D02*
D03*
X-12244D02*
D03*
X-19724D02*
D03*
X33516Y-58504D02*
D03*
X-39000Y-24200D02*
D03*
X24800Y-74900D02*
D03*
X27900D02*
D03*
X31000D02*
D03*
X15200Y-58500D02*
D03*
X10033Y-111800D02*
D03*
X-18800Y-38700D02*
D03*
Y-41850D02*
D03*
Y-45000D02*
D03*
X-13200Y-38700D02*
D03*
Y-41850D02*
D03*
Y-45000D02*
D03*
X-5700Y-61100D02*
D03*
Y-64250D02*
D03*
Y-67400D02*
D03*
X967Y-46400D02*
D03*
X4117D02*
D03*
X-2200D02*
D03*
X-38500Y1300D02*
D03*
X-49500D02*
D03*
X11533Y-14200D02*
D03*
X8367D02*
D03*
X5200D02*
D03*
X100Y-73200D02*
D03*
X3250D02*
D03*
X6400D02*
D03*
X11600Y-76600D02*
D03*
X14750D02*
D03*
X17900D02*
D03*
X14800Y-73200D02*
D03*
X36700Y-58500D02*
D03*
X37200Y-68700D02*
D03*
Y-74900D02*
D03*
X34100D02*
D03*
X37300Y-90333D02*
D03*
X-4900Y-12200D02*
D03*
X-8050D02*
D03*
X-11200D02*
D03*
X-14350D02*
D03*
X17467Y-111800D02*
D03*
X3250Y-35550D02*
D03*
X100D02*
D03*
X-3050D02*
D03*
X-6200D02*
D03*
X-1750Y-12200D02*
D03*
X46400Y12300D02*
D03*
X42800Y9700D02*
D03*
X39400Y7000D02*
D03*
X9550Y-35550D02*
D03*
X6400D02*
D03*
X6317Y-111800D02*
D03*
X12350Y-101200D02*
D03*
X9200D02*
D03*
X6050D02*
D03*
X2900D02*
D03*
X36700Y-134400D02*
D03*
X39850D02*
D03*
X43000D02*
D03*
X46150D02*
D03*
X49300D02*
D03*
X-17200Y22500D02*
D03*
X-14050D02*
D03*
X-10900D02*
D03*
X-7750D02*
D03*
X-32950D02*
D03*
X-29800D02*
D03*
X-26650D02*
D03*
X-23500D02*
D03*
X-48700D02*
D03*
X-45550D02*
D03*
X-42400D02*
D03*
X-36100D02*
D03*
X26900D02*
D03*
X30050D02*
D03*
X33200D02*
D03*
X36350D02*
D03*
X11150D02*
D03*
X14300D02*
D03*
X17450D02*
D03*
X20600D02*
D03*
X23750D02*
D03*
X-4600D02*
D03*
X-1450D02*
D03*
X1700D02*
D03*
X8000D02*
D03*
X42650D02*
D03*
X39500D02*
D03*
X45800D02*
D03*
X48950D02*
D03*
X-17200Y450D02*
D03*
Y-2700D02*
D03*
Y6750D02*
D03*
Y3600D02*
D03*
X-20350Y22500D02*
D03*
X-17200Y9900D02*
D03*
Y13050D02*
D03*
Y16200D02*
D03*
Y19350D02*
D03*
X-5400Y-46400D02*
D03*
X10400D02*
D03*
X4850Y6750D02*
D03*
Y3600D02*
D03*
Y22500D02*
D03*
Y9900D02*
D03*
Y13050D02*
D03*
Y16200D02*
D03*
Y19350D02*
D03*
X37300Y-93767D02*
D03*
Y-86900D02*
D03*
Y-97200D02*
D03*
X13750Y-111800D02*
D03*
X-20950Y-120000D02*
D03*
X-18500D02*
D03*
X-36700Y-86800D02*
D03*
X-16800Y-9200D02*
D03*
X-35500Y-134400D02*
D03*
X-24700D02*
D03*
X-21450D02*
D03*
X-18200D02*
D03*
X18200D02*
D03*
X21300D02*
D03*
X24400D02*
D03*
X-8100Y-126600D02*
D03*
X-4950D02*
D03*
X-1800D02*
D03*
X1350D02*
D03*
X4500D02*
D03*
X7650D02*
D03*
X-32000Y-101600D02*
D03*
D37*
X50Y-131000D02*
D03*
M02*
