%FSLAX25Y25*%
%MOIN*%
G70*
G01*
G75*
G04 Layer_Physical_Order=1*
G04 Layer_Color=255*
%ADD10C,0.01500*%
%ADD11C,0.02000*%
%ADD12C,0.01000*%
%ADD13C,0.00700*%
%ADD14C,0.05000*%
%ADD15R,0.03740X0.03937*%
%ADD16R,0.02000X0.02000*%
%ADD17R,0.04724X0.03347*%
%ADD18R,0.03937X0.03937*%
%ADD19R,0.02000X0.02000*%
%ADD20R,0.02165X0.05709*%
%ADD21R,0.02165X0.05709*%
%ADD22R,0.01500X0.05400*%
%ADD23O,0.02756X0.09843*%
%ADD24R,0.07874X0.03937*%
%ADD25R,0.05906X0.04500*%
%ADD26R,0.06575X0.06693*%
%ADD27R,0.08661X0.07874*%
%ADD28C,0.03000*%
%ADD29C,0.03200*%
%ADD30R,0.44900X0.10200*%
%ADD31C,0.04724*%
%ADD32O,0.05906X0.07480*%
%ADD33C,0.03150*%
%ADD34C,0.06900*%
%ADD35R,0.06900X0.06900*%
%ADD36C,0.02362*%
G36*
X38522Y-58612D02*
Y-85000D01*
X38634Y-85566D01*
X38955Y-86045D01*
X49345Y-96436D01*
X49338Y-96443D01*
X49418Y-96509D01*
X49462Y-96553D01*
X50165Y-97469D01*
X50428Y-98103D01*
X50177Y-98708D01*
X50007Y-100000D01*
X50177Y-101292D01*
X50676Y-102496D01*
X51470Y-103530D01*
X52504Y-104324D01*
X53708Y-104823D01*
X55000Y-104993D01*
X56292Y-104823D01*
X57496Y-104324D01*
X58430Y-103607D01*
X58878Y-103829D01*
Y-106967D01*
X58405Y-107127D01*
X58174Y-106826D01*
X57244Y-106113D01*
X56162Y-105665D01*
X55500Y-105577D01*
Y-110000D01*
Y-114423D01*
X56162Y-114336D01*
X57244Y-113887D01*
X58174Y-113174D01*
X58405Y-112873D01*
X58878Y-113033D01*
Y-115050D01*
X50050D01*
Y-124950D01*
X58446D01*
X58786Y-125317D01*
X58741Y-125890D01*
X58307Y-127698D01*
X57595Y-129416D01*
X56623Y-131002D01*
X55416Y-132416D01*
X54002Y-133623D01*
X52416Y-134595D01*
X50698Y-135307D01*
X48890Y-135741D01*
X47139Y-135878D01*
X33953D01*
Y-135419D01*
X33953D01*
Y-132669D01*
X26047D01*
Y-135419D01*
X26047D01*
Y-135525D01*
X25694Y-135878D01*
X-26047D01*
Y-135419D01*
X-26047D01*
Y-132669D01*
X-33953D01*
Y-135419D01*
X-33953D01*
Y-135525D01*
X-34306Y-135878D01*
X-39482D01*
Y-135445D01*
X-39482D01*
Y-133455D01*
X-38577D01*
X-38011Y-133343D01*
X-37531Y-133022D01*
X-35655Y-131145D01*
X-35334Y-130666D01*
X-35315Y-130572D01*
X-35222Y-130100D01*
Y-127083D01*
X-34806Y-126805D01*
X-34346Y-126996D01*
X-33543Y-127101D01*
X-32741Y-126996D01*
X-31993Y-126686D01*
X-31350Y-126193D01*
X-30858Y-125551D01*
X-30548Y-124803D01*
X-30442Y-124000D01*
X-30548Y-123197D01*
X-30858Y-122449D01*
X-31350Y-121807D01*
X-31993Y-121314D01*
X-32741Y-121004D01*
X-33543Y-120899D01*
X-34346Y-121004D01*
X-34806Y-121195D01*
X-35222Y-120917D01*
Y-112700D01*
X-34806D01*
X-34453Y-113054D01*
Y-119581D01*
X-25547D01*
D01*
X-25547D01*
X-25314Y-119814D01*
Y-119979D01*
X-25318Y-120000D01*
X-25314Y-120021D01*
Y-120100D01*
X-25309Y-120125D01*
X-25312Y-120151D01*
X-25282Y-120261D01*
X-25259Y-120373D01*
X-25245Y-120394D01*
X-25238Y-120419D01*
X-25232Y-120432D01*
X-25174Y-120726D01*
X-25232Y-120774D01*
X-25606Y-121024D01*
X-25654Y-121004D01*
X-26457Y-120899D01*
X-27259Y-121004D01*
X-28007Y-121314D01*
X-28650Y-121807D01*
X-29142Y-122449D01*
X-29452Y-123197D01*
X-29558Y-124000D01*
X-29452Y-124803D01*
X-29142Y-125551D01*
X-28650Y-126193D01*
X-28007Y-126686D01*
X-27259Y-126996D01*
X-26457Y-127101D01*
X-25654Y-126996D01*
X-24906Y-126686D01*
X-24264Y-126193D01*
X-23771Y-125551D01*
X-23461Y-124803D01*
X-23355Y-124000D01*
X-23461Y-123197D01*
X-23741Y-122522D01*
X-23607Y-122316D01*
X-23436Y-122107D01*
X-23400Y-122114D01*
X-17800D01*
X-17793Y-122112D01*
X-17786Y-122114D01*
X-17657Y-122085D01*
X-17527Y-122059D01*
X-17521Y-122055D01*
X-17514Y-122054D01*
X-15914Y-121354D01*
X-15902Y-121346D01*
X-15889Y-121343D01*
X-15789Y-121267D01*
X-15686Y-121195D01*
X-15678Y-121183D01*
X-15667Y-121175D01*
X-15615Y-121086D01*
X-15555Y-121045D01*
X-9588Y-115078D01*
X-7412D01*
X-7350Y-115141D01*
Y-123200D01*
X-6176D01*
X-6145Y-123245D01*
X-5666Y-123566D01*
X-5100Y-123678D01*
X-4534Y-123566D01*
X-4055Y-123245D01*
X-3626Y-123200D01*
D01*
X-3626Y-123200D01*
X-3595Y-123245D01*
X-3116Y-123566D01*
X-2550Y-123678D01*
X-1984Y-123566D01*
X-1505Y-123245D01*
X-1076Y-123200D01*
D01*
X-1076Y-123200D01*
X-1045Y-123245D01*
X-566Y-123566D01*
X0Y-123678D01*
X566Y-123566D01*
X1045Y-123245D01*
X1474Y-123200D01*
D01*
X1474Y-123200D01*
X1505Y-123245D01*
X1984Y-123566D01*
X2550Y-123678D01*
X3116Y-123566D01*
X3595Y-123245D01*
X3626Y-123200D01*
X4800D01*
Y-122700D01*
X6850D01*
Y-119500D01*
X5100D01*
Y-118500D01*
X6850D01*
Y-115300D01*
X4800D01*
Y-114800D01*
X3626D01*
X3595Y-114755D01*
X3116Y-114434D01*
X2550Y-114322D01*
X1984Y-114434D01*
X1505Y-114755D01*
X1076Y-114800D01*
X1045Y-114755D01*
X716Y-114534D01*
X471Y-114289D01*
Y-106771D01*
X912Y-106535D01*
X966Y-106572D01*
X1700Y-106718D01*
X2434Y-106572D01*
X2873Y-106278D01*
X3527D01*
X3966Y-106572D01*
X4700Y-106718D01*
X5434Y-106572D01*
X5873Y-106278D01*
X26107D01*
X27030Y-106400D01*
X27500Y-106595D01*
Y-108700D01*
Y-112081D01*
X25547D01*
Y-119581D01*
X34453D01*
Y-112081D01*
X32500D01*
Y-108700D01*
Y-103700D01*
X29564D01*
X29166Y-103434D01*
X28600Y-103322D01*
X26064D01*
X26017Y-103317D01*
Y-103322D01*
X5873D01*
X5434Y-103028D01*
X4700Y-102882D01*
X3966Y-103028D01*
X3527Y-103322D01*
X2873D01*
X2434Y-103028D01*
X1700Y-102882D01*
X966Y-103028D01*
X912Y-103065D01*
X471Y-102829D01*
Y-99071D01*
X912Y-98835D01*
X1266Y-99072D01*
X2000Y-99218D01*
X2734Y-99072D01*
X3173Y-98778D01*
X3327D01*
X3766Y-99072D01*
X4500Y-99218D01*
X5234Y-99072D01*
X5673Y-98778D01*
X15058D01*
X15293Y-99219D01*
X14928Y-99766D01*
X14782Y-100500D01*
X14928Y-101234D01*
X15344Y-101856D01*
X15966Y-102272D01*
X16700Y-102418D01*
X17434Y-102272D01*
X17873Y-101978D01*
X18227D01*
X18666Y-102272D01*
X19400Y-102418D01*
X20134Y-102272D01*
X20756Y-101856D01*
X21172Y-101234D01*
X21275Y-100716D01*
X25640Y-96351D01*
X26000Y-96500D01*
Y-96500D01*
X26000Y-96500D01*
X26500D01*
Y-97500D01*
X30500D01*
Y-96500D01*
X31500D01*
Y-97500D01*
X35500D01*
Y-96500D01*
X36000D01*
Y-91500D01*
X34978D01*
Y-90682D01*
X35553Y-90242D01*
X36014Y-89640D01*
X36304Y-88940D01*
X36403Y-88189D01*
Y-81102D01*
X36304Y-80351D01*
X36014Y-79651D01*
X35553Y-79050D01*
X34951Y-78588D01*
X34251Y-78298D01*
X33500Y-78200D01*
X32749Y-78298D01*
X32049Y-78588D01*
X31447Y-79050D01*
X31250Y-79307D01*
X30750D01*
X30553Y-79050D01*
X29951Y-78588D01*
X29251Y-78298D01*
X28500Y-78200D01*
X27749Y-78298D01*
X27049Y-78588D01*
X26447Y-79050D01*
X26250Y-79307D01*
X25750D01*
X25553Y-79050D01*
X24951Y-78588D01*
X24251Y-78298D01*
X23500Y-78200D01*
X22749Y-78298D01*
X22049Y-78588D01*
X21447Y-79050D01*
X21250Y-79307D01*
X20750D01*
X20553Y-79050D01*
X19951Y-78588D01*
X19251Y-78298D01*
X18500Y-78200D01*
X17749Y-78298D01*
X17049Y-78588D01*
X16447Y-79050D01*
X16250Y-79307D01*
X15750D01*
X15553Y-79050D01*
X14951Y-78588D01*
X14251Y-78298D01*
X13500Y-78200D01*
X12749Y-78298D01*
X12049Y-78588D01*
X11447Y-79050D01*
X11250Y-79307D01*
X10750D01*
X10553Y-79050D01*
X9951Y-78588D01*
X9251Y-78298D01*
X8896Y-78252D01*
X8736Y-77778D01*
X12457Y-74057D01*
X12457Y-74057D01*
X12689Y-73710D01*
X12771Y-73300D01*
X12771Y-73300D01*
Y-72084D01*
X13147Y-71754D01*
X13500Y-71800D01*
X14251Y-71702D01*
X14951Y-71412D01*
X15553Y-70950D01*
X15750Y-70693D01*
X16250D01*
X16447Y-70950D01*
X17049Y-71412D01*
X17749Y-71702D01*
X18500Y-71800D01*
X19251Y-71702D01*
X19951Y-71412D01*
X20553Y-70950D01*
X20750Y-70693D01*
X21250D01*
X21447Y-70950D01*
X22049Y-71412D01*
X22749Y-71702D01*
X23500Y-71800D01*
X24251Y-71702D01*
X24951Y-71412D01*
X25553Y-70950D01*
X25750Y-70693D01*
X26250D01*
X26447Y-70950D01*
X27049Y-71412D01*
X27749Y-71702D01*
X28500Y-71800D01*
X29251Y-71702D01*
X29951Y-71412D01*
X30553Y-70950D01*
X31014Y-70349D01*
X31039Y-70288D01*
X31537Y-70239D01*
X31786Y-70612D01*
X32572Y-71138D01*
X33000Y-71223D01*
Y-65354D01*
Y-59486D01*
X32572Y-59571D01*
X31786Y-60097D01*
X31537Y-60469D01*
X31039Y-60420D01*
X31014Y-60360D01*
X30553Y-59758D01*
X29978Y-59318D01*
Y-58500D01*
X31000D01*
Y-57133D01*
X31387Y-56816D01*
X31900Y-56918D01*
X32634Y-56772D01*
X33073Y-56478D01*
X33127D01*
X33566Y-56772D01*
X34300Y-56918D01*
X35034Y-56772D01*
X35473Y-56478D01*
X36388D01*
X38522Y-58612D01*
D02*
G37*
G36*
X-47500Y-95244D02*
Y-97500D01*
X-41178D01*
Y-115888D01*
X-42945Y-117655D01*
X-43266Y-118134D01*
X-43378Y-118700D01*
Y-123300D01*
X-48400D01*
Y-124361D01*
X-48766Y-124434D01*
X-49245Y-124755D01*
X-49588Y-125097D01*
X-50050Y-124906D01*
Y-115050D01*
X-58878D01*
Y-113033D01*
X-58405Y-112873D01*
X-58174Y-113174D01*
X-57244Y-113887D01*
X-56162Y-114336D01*
X-55500Y-114423D01*
Y-110000D01*
Y-105577D01*
X-56162Y-105665D01*
X-57244Y-106113D01*
X-58174Y-106826D01*
X-58405Y-107127D01*
X-58878Y-106967D01*
Y-103829D01*
X-58430Y-103607D01*
X-57496Y-104324D01*
X-56292Y-104823D01*
X-55000Y-104993D01*
X-53708Y-104823D01*
X-52504Y-104324D01*
X-51470Y-103530D01*
X-50676Y-102496D01*
X-50177Y-101292D01*
X-50007Y-100000D01*
X-50177Y-98708D01*
X-50463Y-98018D01*
X-50379Y-97742D01*
X-50067Y-97158D01*
X-47962Y-95053D01*
X-47500Y-95244D01*
D02*
G37*
G36*
X-3071Y-104771D02*
Y-114339D01*
X-3266Y-114534D01*
X-3388Y-114616D01*
X-3878Y-114518D01*
X-4055Y-114255D01*
X-5755Y-112555D01*
X-6234Y-112234D01*
X-6800Y-112122D01*
X-10200D01*
X-10766Y-112234D01*
X-11245Y-112555D01*
X-12168Y-113477D01*
X-12630Y-113286D01*
Y-110278D01*
X-10400D01*
X-9834Y-110166D01*
X-9355Y-109845D01*
X-4384Y-104875D01*
X-3866Y-104772D01*
X-3511Y-104535D01*
X-3071Y-104771D01*
D02*
G37*
G36*
X25555Y-30445D02*
X26034Y-30766D01*
X26059Y-30771D01*
Y-36506D01*
X36933D01*
Y-34516D01*
X38425D01*
X38500Y-34591D01*
Y-37500D01*
X39522D01*
Y-38500D01*
X39634Y-39066D01*
X39955Y-39545D01*
X44225Y-43816D01*
X44245Y-43914D01*
X43891Y-44267D01*
X43700Y-44229D01*
X36433D01*
Y-44037D01*
X36433D01*
Y-41569D01*
X26373D01*
X26097Y-41683D01*
X21989Y-37575D01*
X22100Y-37018D01*
X22834Y-36872D01*
X23456Y-36456D01*
X23872Y-35834D01*
X24018Y-35100D01*
X23872Y-34366D01*
X23578Y-33927D01*
Y-31773D01*
X23872Y-31334D01*
X24018Y-30600D01*
X23872Y-29866D01*
X23638Y-29516D01*
X23783Y-29038D01*
X24040Y-28931D01*
X25555Y-30445D01*
D02*
G37*
G36*
X-22200Y-115700D02*
Y-118000D01*
X-21800Y-118400D01*
X-15400D01*
X-16200Y-120700D01*
X-17800Y-121400D01*
X-23400D01*
X-24200Y-120900D01*
X-24600Y-120100D01*
Y-115700D01*
X-24100Y-115200D01*
X-22700D01*
X-22200Y-115700D01*
D02*
G37*
G36*
X-8400Y-59200D02*
Y-64000D01*
X-9000Y-64600D01*
X-13300D01*
Y-56800D01*
X-11300D01*
X-8400Y-59200D01*
D02*
G37*
G36*
X-35831Y-61532D02*
X-25863D01*
X-25444Y-61756D01*
X-25114Y-62027D01*
Y-62968D01*
X-29500D01*
Y-67905D01*
X-30000D01*
Y-68405D01*
X-35331D01*
Y-72843D01*
X-35331D01*
Y-73312D01*
X-35473Y-73341D01*
X-35705Y-73495D01*
X-37005Y-74795D01*
X-37159Y-75027D01*
X-37214Y-75300D01*
Y-80100D01*
X-37159Y-80373D01*
X-37005Y-80605D01*
X-36320Y-81290D01*
X-36555Y-81731D01*
X-36800Y-81682D01*
X-37534Y-81828D01*
X-37781Y-81993D01*
X-38222Y-81757D01*
Y-66449D01*
X-38102Y-65846D01*
X-37414Y-65386D01*
X-36928Y-64658D01*
X-36757Y-63800D01*
Y-60914D01*
X-35831D01*
Y-61532D01*
D02*
G37*
G36*
X-18600Y-79100D02*
X-18200Y-79500D01*
Y-80300D01*
X-18800Y-80900D01*
X-20800D01*
Y-86300D01*
X-21600Y-87100D01*
X-33500D01*
X-34300Y-86300D01*
Y-82300D01*
X-36500Y-80100D01*
Y-75300D01*
X-35200Y-74000D01*
X-24400D01*
X-20800Y-70400D01*
Y-67500D01*
X-18600D01*
Y-79100D01*
D02*
G37*
G36*
X-6061Y-58635D02*
X-2978D01*
Y-59318D01*
X-3553Y-59758D01*
X-4014Y-60360D01*
X-4304Y-61060D01*
X-4403Y-61811D01*
Y-68898D01*
X-4304Y-69649D01*
X-4014Y-70349D01*
X-3553Y-70950D01*
X-2951Y-71412D01*
X-2251Y-71702D01*
X-1500Y-71800D01*
X-749Y-71702D01*
X-49Y-71412D01*
X553Y-70950D01*
X750Y-70693D01*
X1250D01*
X1447Y-70950D01*
X2049Y-71412D01*
X2749Y-71702D01*
X3500Y-71800D01*
X4251Y-71702D01*
X4951Y-71412D01*
X5553Y-70950D01*
X5750Y-70693D01*
X6250D01*
X6447Y-70950D01*
X7049Y-71412D01*
X7749Y-71702D01*
X8500Y-71800D01*
X8854Y-71754D01*
X9057Y-71933D01*
X9074Y-72432D01*
X6577Y-74929D01*
X-2580D01*
X-2990Y-75011D01*
X-3337Y-75243D01*
X-4260Y-76166D01*
X-4722Y-75974D01*
Y-72800D01*
X-4834Y-72234D01*
X-5155Y-71755D01*
X-5286Y-71623D01*
X-8303Y-67009D01*
X-8354Y-66957D01*
X-8395Y-66895D01*
X-8451Y-66858D01*
X-8498Y-66811D01*
X-8565Y-66782D01*
X-8627Y-66741D01*
X-8692Y-66728D01*
X-8754Y-66701D01*
X-8828Y-66701D01*
X-8900Y-66686D01*
X-9677D01*
Y-66122D01*
Y-65314D01*
X-9000D01*
X-8727Y-65259D01*
X-8495Y-65105D01*
X-7895Y-64505D01*
X-7741Y-64273D01*
X-7686Y-64000D01*
Y-59200D01*
X-7693Y-59167D01*
X-7689Y-59133D01*
X-7720Y-59031D01*
X-7741Y-58927D01*
X-7649Y-58866D01*
X-6426Y-58500D01*
X-6061D01*
Y-58635D01*
D02*
G37*
G36*
X-27600Y-50300D02*
X-25700Y-52200D01*
Y-56000D01*
X-18700D01*
Y-64600D01*
X-24400D01*
Y-61500D01*
X-25700Y-60200D01*
X-40500D01*
Y-40700D01*
X-38800Y-39000D01*
X-27600D01*
Y-50300D01*
D02*
G37*
G36*
X-5500Y-72600D02*
X-6900Y-73100D01*
X-13400D01*
Y-67400D01*
X-8900D01*
X-5500Y-72600D01*
D02*
G37*
G36*
X-36933Y14842D02*
Y10699D01*
X-26059D01*
Y12944D01*
X-24974D01*
X-23424Y11393D01*
Y-7569D01*
X-23843Y-7849D01*
X-23865Y-7861D01*
X-24485Y-7447D01*
X-25218Y-7300D01*
X-25673Y-7391D01*
X-26059Y-7074D01*
Y-5750D01*
X-36933D01*
Y-7910D01*
X-37010Y-7977D01*
X-37010Y-7977D01*
X-37012Y-7995D01*
X-38500D01*
Y-7500D01*
X-38500D01*
Y-4591D01*
X-37395Y-3486D01*
X-36933Y-3677D01*
Y-4931D01*
X-26059D01*
Y2006D01*
X-36933D01*
Y16D01*
X-37463D01*
X-38028Y-97D01*
X-38508Y-417D01*
X-40591Y-2500D01*
X-47500D01*
Y-2830D01*
X-47584Y-2956D01*
X-47886Y-3204D01*
X-48500Y-3082D01*
X-49234Y-3228D01*
X-49856Y-3644D01*
X-50272Y-4266D01*
X-50418Y-5000D01*
X-50272Y-5734D01*
X-49856Y-6356D01*
X-49234Y-6772D01*
X-48500Y-6918D01*
X-47886Y-6796D01*
X-47584Y-7044D01*
X-47500Y-7170D01*
Y-7500D01*
X-46230D01*
X-46181Y-7998D01*
X-46334Y-8028D01*
X-46956Y-8444D01*
X-47372Y-9066D01*
X-47518Y-9800D01*
X-47372Y-10534D01*
X-46956Y-11156D01*
X-46334Y-11572D01*
X-45600Y-11718D01*
X-44866Y-11572D01*
X-44244Y-11156D01*
X-43828Y-10534D01*
X-43682Y-9800D01*
X-43683Y-9796D01*
X-43625Y-9505D01*
X-43458Y-9256D01*
X-43466Y-9247D01*
X-41719Y-7500D01*
X-39781D01*
X-39732Y-7998D01*
X-40187Y-8088D01*
X-40584Y-8353D01*
X-48846Y-16616D01*
X-49112Y-17013D01*
X-49205Y-17481D01*
Y-24386D01*
X-49112Y-24855D01*
X-48846Y-25251D01*
X-47723Y-26374D01*
Y-64238D01*
X-48202Y-64383D01*
X-48274Y-64274D01*
X-48274Y-64274D01*
X-49592Y-62957D01*
X-49592Y-62957D01*
X-49589Y-62954D01*
X-49617Y-62931D01*
X-49695Y-62853D01*
X-50273Y-62100D01*
X-50393Y-61812D01*
X-50177Y-61292D01*
X-50007Y-60000D01*
X-50177Y-58708D01*
X-50676Y-57504D01*
X-51470Y-56470D01*
X-52504Y-55676D01*
X-53708Y-55177D01*
X-55000Y-55007D01*
X-56292Y-55177D01*
X-57496Y-55676D01*
X-58430Y-56393D01*
X-58878Y-56172D01*
Y-53033D01*
X-58405Y-52873D01*
X-58174Y-53174D01*
X-57244Y-53887D01*
X-56162Y-54335D01*
X-55500Y-54423D01*
Y-50000D01*
Y-45577D01*
X-56162Y-45665D01*
X-57244Y-46113D01*
X-58174Y-46826D01*
X-58405Y-47128D01*
X-58878Y-46967D01*
Y-43828D01*
X-58430Y-43607D01*
X-57496Y-44324D01*
X-56292Y-44823D01*
X-55000Y-44993D01*
X-53708Y-44823D01*
X-52504Y-44324D01*
X-51470Y-43530D01*
X-50676Y-42496D01*
X-50177Y-41292D01*
X-50007Y-40000D01*
X-50177Y-38708D01*
X-50676Y-37504D01*
X-51470Y-36470D01*
X-52504Y-35676D01*
X-53532Y-35250D01*
Y-34750D01*
X-52504Y-34324D01*
X-51470Y-33530D01*
X-50676Y-32496D01*
X-50177Y-31292D01*
X-50007Y-30000D01*
X-50177Y-28708D01*
X-50676Y-27504D01*
X-51470Y-26470D01*
X-52504Y-25676D01*
X-53532Y-25250D01*
Y-24750D01*
X-52504Y-24324D01*
X-51470Y-23530D01*
X-50676Y-22496D01*
X-50177Y-21292D01*
X-50007Y-20000D01*
X-50177Y-18708D01*
X-50676Y-17504D01*
X-51470Y-16470D01*
X-52504Y-15676D01*
X-53532Y-15250D01*
Y-14750D01*
X-52504Y-14324D01*
X-51470Y-13530D01*
X-50676Y-12496D01*
X-50177Y-11292D01*
X-50007Y-10000D01*
X-50177Y-8708D01*
X-50676Y-7504D01*
X-51470Y-6470D01*
X-52504Y-5676D01*
X-53532Y-5250D01*
Y-4750D01*
X-52504Y-4324D01*
X-51470Y-3530D01*
X-50676Y-2496D01*
X-50177Y-1292D01*
X-50007Y0D01*
X-50177Y1292D01*
X-50676Y2496D01*
X-51470Y3530D01*
X-52504Y4324D01*
X-53532Y4750D01*
Y5250D01*
X-52504Y5676D01*
X-51470Y6470D01*
X-50676Y7504D01*
X-50426Y8108D01*
X-49792Y8371D01*
X-48647Y8522D01*
X-48585D01*
X-48482Y8511D01*
Y8522D01*
X-46562D01*
X-45502Y7462D01*
X-45693Y7000D01*
X-47000D01*
Y5500D01*
X-45000D01*
Y5000D01*
X-44500D01*
Y3000D01*
X-43500D01*
Y2500D01*
X-38500D01*
Y3672D01*
X-36933D01*
Y2943D01*
X-26059D01*
Y9880D01*
X-36933D01*
Y7220D01*
X-37951Y6798D01*
X-38124Y6775D01*
X-38500Y7105D01*
Y7500D01*
X-41359D01*
X-43859Y10000D01*
X-41359Y12500D01*
X-38500D01*
Y15756D01*
X-38038Y15947D01*
X-36933Y14842D01*
D02*
G37*
G36*
X10651Y-31466D02*
X10460Y-31927D01*
X-25598D01*
X-25620Y-31905D01*
Y-31905D01*
Y-31905D01*
X-25620Y-31905D01*
Y-31905D01*
X-25622Y-31905D01*
Y-31905D01*
X-25683Y-31914D01*
X-26059Y-31584D01*
Y-29530D01*
X-36757D01*
Y-28632D01*
X-26059D01*
Y-26578D01*
X-25683Y-26248D01*
X-25620Y-26256D01*
Y-26234D01*
X5420D01*
X10651Y-31466D01*
D02*
G37*
G36*
X26224Y-49038D02*
X26033Y-49500D01*
X23258D01*
X23172Y-49066D01*
X22756Y-48444D01*
X22134Y-48028D01*
X21658Y-47933D01*
X21487Y-47819D01*
X21287Y-47519D01*
X21263Y-47401D01*
X21263D01*
X21212Y-47369D01*
X21172Y-47166D01*
X20756Y-46544D01*
X20134Y-46128D01*
X19400Y-45982D01*
X18666Y-46128D01*
X18044Y-46544D01*
X17628Y-47166D01*
X17482Y-47900D01*
X17628Y-48634D01*
X18044Y-49256D01*
X18441Y-49521D01*
X18296Y-50000D01*
X16500D01*
Y-51500D01*
X18500D01*
Y-52500D01*
X16500D01*
Y-53500D01*
X16000D01*
Y-58500D01*
X17022D01*
Y-59318D01*
X16447Y-59758D01*
X16250Y-60016D01*
X15750D01*
X15553Y-59758D01*
X14951Y-59297D01*
X14251Y-59007D01*
X13500Y-58908D01*
X12749Y-59007D01*
X12049Y-59297D01*
X11447Y-59758D01*
X11250Y-60016D01*
X10750D01*
X10553Y-59758D01*
X9951Y-59297D01*
X9866Y-59262D01*
X9721Y-58783D01*
X9866Y-58566D01*
X9978Y-58000D01*
X10000D01*
Y-58000D01*
X11500D01*
Y-56000D01*
X12000D01*
Y-55500D01*
X14000D01*
Y-54500D01*
X14500D01*
Y-49500D01*
X9500D01*
Y-50522D01*
X8612D01*
X8545Y-50455D01*
X8066Y-50134D01*
X8061Y-50133D01*
Y-47565D01*
X337D01*
Y-48065D01*
X-1699D01*
Y-50738D01*
X-2699D01*
Y-48065D01*
X-5561D01*
Y-50000D01*
X-6000D01*
Y-50000D01*
X-7500D01*
Y-52000D01*
X-8500D01*
Y-50000D01*
X-10000D01*
Y-50000D01*
X-10188Y-50000D01*
X-10260D01*
Y-50000D01*
X-10260D01*
X-10260D01*
X-11760D01*
Y-52000D01*
X-12260D01*
Y-52500D01*
X-14260D01*
Y-53500D01*
X-14760D01*
Y-57413D01*
X-14842D01*
Y-66122D01*
Y-66378D01*
X-15500D01*
Y-70232D01*
X-16500D01*
Y-66378D01*
X-17157D01*
Y-66122D01*
X-17157D01*
Y-57413D01*
X-17240D01*
Y-53500D01*
X-17740D01*
Y-52500D01*
X-21740D01*
Y-53500D01*
X-22240D01*
Y-54256D01*
X-22288D01*
Y-54256D01*
X-22397Y-54267D01*
X-22946D01*
X-24054Y-54121D01*
X-24169Y-54073D01*
Y-50657D01*
X-26233D01*
X-26886Y-50004D01*
Y-44380D01*
X-26059D01*
Y-37443D01*
X-36757D01*
Y-36467D01*
X-26059D01*
Y-34412D01*
X-25683Y-34082D01*
X-25620Y-34091D01*
Y-34069D01*
X11255D01*
X26224Y-49038D01*
D02*
G37*
G36*
X40205Y-31045D02*
X40685Y-31366D01*
X41251Y-31478D01*
X48482D01*
Y-31489D01*
X48585Y-31478D01*
X48647D01*
X49792Y-31629D01*
X50426Y-31892D01*
X50676Y-32496D01*
X51470Y-33530D01*
X52504Y-34324D01*
X53708Y-34823D01*
X55000Y-34993D01*
X56292Y-34823D01*
X57496Y-34324D01*
X58430Y-33607D01*
X58878Y-33828D01*
Y-36967D01*
X58405Y-37128D01*
X58174Y-36826D01*
X57244Y-36113D01*
X56162Y-35664D01*
X55500Y-35577D01*
Y-40000D01*
Y-44423D01*
X56162Y-44335D01*
X57244Y-43887D01*
X58174Y-43174D01*
X58405Y-42873D01*
X58878Y-43033D01*
Y-46172D01*
X58430Y-46393D01*
X57496Y-45676D01*
X56292Y-45177D01*
X55000Y-45007D01*
X53708Y-45177D01*
X52504Y-45676D01*
X51470Y-46470D01*
X50676Y-47504D01*
X50269Y-48486D01*
X49542Y-48787D01*
X48799Y-48885D01*
X45989Y-46075D01*
X46100Y-45518D01*
X46834Y-45372D01*
X47456Y-44956D01*
X47872Y-44334D01*
X48018Y-43600D01*
X47872Y-42866D01*
X47456Y-42244D01*
X46834Y-41828D01*
X46316Y-41725D01*
X42553Y-37962D01*
X42744Y-37500D01*
X43500D01*
Y-37000D01*
X44500D01*
Y-35000D01*
Y-33000D01*
X43500D01*
Y-32500D01*
X40591D01*
X40083Y-31992D01*
X39603Y-31672D01*
X39037Y-31559D01*
X36933D01*
Y-30878D01*
X40038D01*
X40205Y-31045D01*
D02*
G37*
G36*
X50676Y17504D02*
X51470Y16470D01*
X52504Y15676D01*
X53532Y15250D01*
Y14750D01*
X52504Y14324D01*
X51470Y13530D01*
X50676Y12496D01*
X50402Y11834D01*
X49875Y11616D01*
X48831Y11478D01*
X48778D01*
X48700Y11486D01*
Y11478D01*
X48700D01*
X48228Y11384D01*
X48134Y11366D01*
X47655Y11045D01*
X37395Y786D01*
X36933Y977D01*
Y2006D01*
X26059D01*
Y-4931D01*
X36933D01*
Y-2941D01*
X37237D01*
X37803Y-2829D01*
X38283Y-2508D01*
X49256Y8466D01*
X49875Y8384D01*
X50402Y8166D01*
X50676Y7504D01*
X51470Y6470D01*
X52504Y5676D01*
X53532Y5250D01*
Y4750D01*
X52504Y4324D01*
X51470Y3530D01*
X50676Y2496D01*
X50426Y1892D01*
X49792Y1629D01*
X48647Y1478D01*
X48585D01*
X48482Y1489D01*
Y1478D01*
X47200D01*
X46634Y1366D01*
X46155Y1045D01*
X37395Y-7714D01*
X36933Y-7523D01*
Y-5789D01*
X26059D01*
Y-12726D01*
X36933D01*
Y-10736D01*
X37942D01*
X38508Y-10624D01*
X38987Y-10303D01*
X47812Y-1478D01*
X48482D01*
Y-1489D01*
X48585Y-1478D01*
X48647D01*
X49792Y-1629D01*
X50426Y-1892D01*
X50676Y-2496D01*
X51470Y-3530D01*
X52504Y-4324D01*
X53532Y-4750D01*
Y-5250D01*
X52504Y-5676D01*
X51470Y-6470D01*
X50676Y-7504D01*
X50426Y-8108D01*
X49792Y-8371D01*
X48647Y-8522D01*
X48585D01*
X48482Y-8511D01*
Y-8522D01*
X45100D01*
X44534Y-8634D01*
X44055Y-8955D01*
X41018Y-11991D01*
X41018Y-11991D01*
X41012Y-11986D01*
X40975Y-12035D01*
X40509Y-12500D01*
X38500D01*
Y-14509D01*
X38035Y-14974D01*
X37986Y-15012D01*
X37991Y-15018D01*
X37991Y-15018D01*
X37395Y-15614D01*
X36933Y-15423D01*
Y-13900D01*
X26059D01*
Y-15410D01*
X25466Y-15528D01*
X25027Y-15822D01*
X24873D01*
X24434Y-15528D01*
X23700Y-15382D01*
X22966Y-15528D01*
X22819Y-15626D01*
X22633Y-15526D01*
X22559Y-15032D01*
X23145Y-14445D01*
X23466Y-13966D01*
X23578Y-13400D01*
Y2688D01*
X25597Y4706D01*
X26059Y4515D01*
Y3022D01*
X36933D01*
Y9959D01*
X26059D01*
Y7969D01*
X25290D01*
X24724Y7856D01*
X24245Y7536D01*
X21140Y4431D01*
X20678Y4623D01*
Y8388D01*
X25098Y12807D01*
X26059D01*
Y10817D01*
X36933D01*
Y17754D01*
X26059D01*
Y15764D01*
X24485D01*
X23920Y15651D01*
X23440Y15331D01*
X18155Y10045D01*
X17834Y9566D01*
X17722Y9000D01*
Y-11288D01*
X16755Y-12255D01*
X16434Y-12734D01*
X16322Y-13300D01*
Y-24800D01*
X16434Y-25366D01*
X16755Y-25845D01*
X17722Y-26812D01*
Y-27727D01*
X17428Y-28166D01*
X17282Y-28900D01*
X17428Y-29634D01*
X17792Y-30179D01*
X17790Y-30182D01*
X17790D01*
X17822Y-30258D01*
Y-31627D01*
X17528Y-32066D01*
X17458Y-32420D01*
X16979Y-32565D01*
X907Y-16493D01*
X560Y-16261D01*
X150Y-16179D01*
X-25598D01*
X-25620Y-16157D01*
Y-16157D01*
Y-16157D01*
X-25620Y-16157D01*
Y-16157D01*
X-25622Y-16158D01*
Y-16158D01*
X-25683Y-16165D01*
X-26059Y-15836D01*
Y-14223D01*
X-24400D01*
X-23932Y-14130D01*
X-23535Y-13865D01*
X-21335Y-11665D01*
X-21070Y-11268D01*
X-20984Y-10837D01*
X-20894Y-10800D01*
X-20291Y-10800D01*
X-20034Y-10972D01*
X-19300Y-11118D01*
X-18566Y-10972D01*
X-18154Y-10697D01*
X-17946D01*
X-17534Y-10972D01*
X-16800Y-11118D01*
X-16066Y-10972D01*
X-15654Y-10697D01*
X-3018D01*
X-2453Y-10584D01*
X-1973Y-10264D01*
X10145Y1855D01*
X10466Y2334D01*
X10578Y2900D01*
Y9488D01*
X19481Y18391D01*
X50309D01*
X50676Y17504D01*
D02*
G37*
G36*
X52711Y24410D02*
X52504Y24324D01*
X51470Y23530D01*
X50676Y22496D01*
X50200Y21347D01*
X18869D01*
X18303Y21235D01*
X17823Y20914D01*
X8055Y11145D01*
X7734Y10666D01*
X7622Y10100D01*
Y3512D01*
X-3631Y-7740D01*
X-15599D01*
X-16066Y-7428D01*
X-16800Y-7282D01*
X-17534Y-7428D01*
X-18001Y-7740D01*
X-18099D01*
X-18566Y-7428D01*
X-19300Y-7282D01*
X-20034Y-7428D01*
X-20536Y-7763D01*
X-20977Y-7527D01*
Y11900D01*
X-21070Y12368D01*
X-21335Y12765D01*
X-23602Y15033D01*
X-23999Y15298D01*
X-24467Y15391D01*
X-26059D01*
Y17636D01*
X-35545D01*
X-36800Y18891D01*
Y21800D01*
X-37300D01*
Y22800D01*
X-41300D01*
Y21800D01*
X-41800D01*
Y17500D01*
X-45409D01*
X-48955Y21045D01*
X-49434Y21366D01*
X-50000Y21478D01*
X-50000D01*
Y21491D01*
X-50078Y21481D01*
X-50271Y21519D01*
X-50676Y22496D01*
X-51470Y23530D01*
X-52504Y24324D01*
X-52711Y24410D01*
X-52613Y24900D01*
X-41300D01*
Y23800D01*
X-37300D01*
Y24900D01*
X-28102D01*
X-28036Y24571D01*
X-27793Y24207D01*
X-27429Y23964D01*
X-27000Y23878D01*
X27000D01*
X27429Y23964D01*
X27793Y24207D01*
X28036Y24571D01*
X28102Y24900D01*
X52613D01*
X52711Y24410D01*
D02*
G37*
%LPC*%
G36*
X28000Y-98500D02*
X26500D01*
Y-100000D01*
X28000D01*
Y-98500D01*
D02*
G37*
G36*
X-30500Y-128919D02*
X-33953D01*
Y-131669D01*
X-30500D01*
Y-128919D01*
D02*
G37*
G36*
X33000Y-98500D02*
X31500D01*
Y-100000D01*
X33000D01*
Y-98500D01*
D02*
G37*
G36*
X30500D02*
X29000D01*
Y-100000D01*
X30500D01*
Y-98500D01*
D02*
G37*
G36*
X33953Y-128919D02*
X30500D01*
Y-131669D01*
X33953D01*
Y-128919D01*
D02*
G37*
G36*
X-50577Y-110500D02*
X-54500D01*
Y-114423D01*
X-53838Y-114336D01*
X-52756Y-113887D01*
X-51826Y-113174D01*
X-51113Y-112244D01*
X-50665Y-111162D01*
X-50577Y-110500D01*
D02*
G37*
G36*
X33543Y-120899D02*
X32741Y-121004D01*
X31993Y-121314D01*
X31350Y-121807D01*
X30858Y-122449D01*
X30548Y-123197D01*
X30442Y-124000D01*
X30548Y-124803D01*
X30858Y-125551D01*
X31350Y-126193D01*
X31993Y-126686D01*
X32741Y-126996D01*
X33543Y-127101D01*
X34346Y-126996D01*
X35094Y-126686D01*
X35736Y-126193D01*
X36229Y-125551D01*
X36539Y-124803D01*
X36645Y-124000D01*
X36539Y-123197D01*
X36229Y-122449D01*
X35736Y-121807D01*
X35094Y-121314D01*
X34346Y-121004D01*
X33543Y-120899D01*
D02*
G37*
G36*
X26457D02*
X25654Y-121004D01*
X24906Y-121314D01*
X24264Y-121807D01*
X23771Y-122449D01*
X23461Y-123197D01*
X23355Y-124000D01*
X23461Y-124803D01*
X23771Y-125551D01*
X24264Y-126193D01*
X24906Y-126686D01*
X25654Y-126996D01*
X26457Y-127101D01*
X27259Y-126996D01*
X28007Y-126686D01*
X28650Y-126193D01*
X29142Y-125551D01*
X29452Y-124803D01*
X29558Y-124000D01*
X29452Y-123197D01*
X29142Y-122449D01*
X28650Y-121807D01*
X28007Y-121314D01*
X27259Y-121004D01*
X26457Y-120899D01*
D02*
G37*
G36*
X54500Y-110500D02*
X50577D01*
X50665Y-111162D01*
X51113Y-112244D01*
X51826Y-113174D01*
X52756Y-113887D01*
X53838Y-114336D01*
X54500Y-114423D01*
Y-110500D01*
D02*
G37*
G36*
X29500Y-128919D02*
X26047D01*
Y-131669D01*
X29500D01*
Y-128919D01*
D02*
G37*
G36*
X-26047D02*
X-29500D01*
Y-131669D01*
X-26047D01*
Y-128919D01*
D02*
G37*
G36*
X-54500Y-105577D02*
Y-109500D01*
X-50577D01*
X-50665Y-108838D01*
X-51113Y-107756D01*
X-51826Y-106826D01*
X-52756Y-106113D01*
X-53838Y-105665D01*
X-54500Y-105577D01*
D02*
G37*
G36*
X54500D02*
X53838Y-105665D01*
X52756Y-106113D01*
X51826Y-106826D01*
X51113Y-107756D01*
X50665Y-108838D01*
X50577Y-109500D01*
X54500D01*
Y-105577D01*
D02*
G37*
G36*
X35500Y-98500D02*
X34000D01*
Y-100000D01*
X35500D01*
Y-98500D01*
D02*
G37*
G36*
X30996Y-38100D02*
X26559D01*
Y-40569D01*
X30996D01*
Y-38100D01*
D02*
G37*
G36*
X36433D02*
X31996D01*
Y-40569D01*
X36433D01*
Y-38100D01*
D02*
G37*
G36*
X-54500Y-45577D02*
Y-49500D01*
X-50577D01*
X-50665Y-48838D01*
X-51113Y-47756D01*
X-51826Y-46826D01*
X-52756Y-46113D01*
X-53838Y-45665D01*
X-54500Y-45577D01*
D02*
G37*
G36*
X54500Y-40500D02*
X50577D01*
X50665Y-41162D01*
X51113Y-42244D01*
X51826Y-43174D01*
X52756Y-43887D01*
X53838Y-44335D01*
X54500Y-44423D01*
Y-40500D01*
D02*
G37*
G36*
X47000Y-33000D02*
X45500D01*
Y-34500D01*
X47000D01*
Y-33000D01*
D02*
G37*
G36*
X-45500Y4500D02*
X-47000D01*
Y3000D01*
X-45500D01*
Y4500D01*
D02*
G37*
G36*
X54500Y-35577D02*
X53838Y-35664D01*
X52756Y-36113D01*
X51826Y-36826D01*
X51113Y-37756D01*
X50665Y-38838D01*
X50577Y-39500D01*
X54500D01*
Y-35577D01*
D02*
G37*
G36*
X47000Y-35500D02*
X45500D01*
Y-37000D01*
X47000D01*
Y-35500D01*
D02*
G37*
G36*
X34000Y-59486D02*
Y-64854D01*
X35925D01*
Y-61811D01*
X35740Y-60883D01*
X35214Y-60097D01*
X34428Y-59571D01*
X34000Y-59486D01*
D02*
G37*
G36*
X14000Y-56500D02*
X12500D01*
Y-58000D01*
X14000D01*
Y-56500D01*
D02*
G37*
G36*
X35925Y-65854D02*
X34000D01*
Y-71223D01*
X34428Y-71138D01*
X35214Y-70612D01*
X35740Y-69826D01*
X35925Y-68898D01*
Y-65854D01*
D02*
G37*
G36*
X-30500Y-62968D02*
X-35331D01*
Y-67405D01*
X-30500D01*
Y-62968D01*
D02*
G37*
G36*
X-17740Y-50000D02*
X-19240D01*
Y-51500D01*
X-17740D01*
Y-50000D01*
D02*
G37*
G36*
X-12760D02*
X-14260D01*
Y-51500D01*
X-12760D01*
Y-50000D01*
D02*
G37*
G36*
X-50577Y-50500D02*
X-54500D01*
Y-54423D01*
X-53838Y-54335D01*
X-52756Y-53887D01*
X-51826Y-53174D01*
X-51113Y-52244D01*
X-50665Y-51162D01*
X-50577Y-50500D01*
D02*
G37*
G36*
X-20240Y-50000D02*
X-21740D01*
Y-51500D01*
X-20240D01*
Y-50000D01*
D02*
G37*
%LPD*%
D10*
X-36700Y-84882D02*
G03*
X-37105Y-83905I-1382J0D01*
G01*
X19826Y-47836D02*
G03*
X20693Y-49109I1754J263D01*
G01*
X19816Y-47788D02*
G03*
X20938Y-49250I2325J623D01*
G01*
X19300Y-30182D02*
G03*
X18895Y-29205I-1382J0D01*
G01*
X20493Y-48993D02*
G03*
X21400Y-49369I907J907D01*
G01*
X21831Y-49800D02*
G03*
X22207Y-50707I1282J0D01*
G01*
X25323Y-22377D02*
G03*
X25769Y-21300I-1077J1077D01*
G01*
X26416Y-16927D02*
G03*
X27574Y-17079I764J1322D01*
G01*
X-10319Y-93125D02*
G03*
X-8816Y-92927I513J1914D01*
G01*
Y-93673D02*
G03*
X-10173Y-93495I-895J-1550D01*
G01*
X-38695Y-64105D02*
G03*
X-39700Y-66531I2426J-2426D01*
G01*
X-10031Y-84900D02*
G03*
X-11326Y-81774I-4421J0D01*
G01*
X-53091Y11909D02*
G03*
X-48482Y10000I4609J4609D01*
G01*
D02*
G03*
X-53091Y8091I0J-6518D01*
G01*
X-52742Y21481D02*
G03*
X-50000Y20000I2742J1798D01*
G01*
D02*
G03*
X-52742Y18519I0J-3279D01*
G01*
X52300Y-80000D02*
G03*
X51451Y-77952I-2897J0D01*
G01*
X50391Y-76891D02*
G03*
X55000Y-78800I4609J4609D01*
G01*
X47830Y-74330D02*
G03*
X55000Y-77300I7170J7170D01*
G01*
X51244Y-88744D02*
G03*
X55000Y-90300I3756J3756D01*
G01*
X48684Y-86184D02*
G03*
X55000Y-88800I6316J6316D01*
G01*
X46123Y-83623D02*
G03*
X55000Y-87300I8877J8877D01*
G01*
X52300Y-100000D02*
G03*
X50391Y-95391I-6518J0D01*
G01*
D02*
G03*
X55000Y-97300I4609J4609D01*
G01*
X53091Y-31909D02*
G03*
X48482Y-30000I-4609J-4609D01*
G01*
D02*
G03*
X53091Y-28091I0J6518D01*
G01*
X53045Y8138D02*
G03*
X48700Y10000I-4344J-4137D01*
G01*
D02*
G03*
X53045Y11862I0J5999D01*
G01*
X53091Y-1909D02*
G03*
X48482Y0I-4609J-4609D01*
G01*
D02*
G03*
X53091Y1909I0J6518D01*
G01*
Y-11909D02*
G03*
X48482Y-10000I-4609J-4609D01*
G01*
D02*
G03*
X53091Y-8091I0J6518D01*
G01*
Y-21909D02*
G03*
X48482Y-20000I-4609J-4609D01*
G01*
D02*
G03*
X53091Y-18091I0J6518D01*
G01*
X-30427Y-77950D02*
G03*
X-25236Y-80100I5191J5191D01*
G01*
X-29366Y-76889D02*
G03*
X-21615Y-80100I7751J7751D01*
G01*
X-28306Y-75829D02*
G03*
X-17994Y-80100I10312J10312D01*
G01*
X-26029Y-75100D02*
G03*
X-30460Y-77214I0J-5700D01*
G01*
X-22885Y-75100D02*
G03*
X-29294Y-78158I0J-8246D01*
G01*
X-19741Y-75100D02*
G03*
X-28128Y-79101I0J-10791D01*
G01*
X-28452Y-95025D02*
G03*
X-30100Y-98600I3054J-3575D01*
G01*
D02*
G03*
X-31748Y-95025I-4702J0D01*
G01*
X41000Y-15250D02*
G03*
X39037Y-16063I0J-2776D01*
G01*
X42063Y-13037D02*
G03*
X41250Y-15000I1963J-1963D01*
G01*
X41722Y-23980D02*
G03*
X40736Y-24063I-443J-626D01*
G01*
X40856Y-25204D02*
G03*
X39479Y-25321I-619J-874D01*
G01*
X42275Y-22525D02*
G03*
X41250Y-25000I2475J-2475D01*
G01*
X39622Y-25321D02*
G03*
X40823Y-24823I0J1699D01*
G01*
X39622Y-25321D02*
G03*
X40823Y-24823I0J1699D01*
G01*
X29823Y-106377D02*
G03*
X26017Y-104800I-3807J-3807D01*
G01*
X-31061Y-114770D02*
G03*
X-30000Y-112209I-2561J2561D01*
G01*
D02*
G03*
X-28939Y-114770I3621J0D01*
G01*
X28939D02*
G03*
X30000Y-112209I-2561J2561D01*
G01*
D02*
G03*
X31061Y-114770I3621J0D01*
G01*
X-28666Y-8357D02*
G03*
X-26586Y-9218I2080J2080D01*
G01*
D02*
G03*
X-28666Y-10080I0J-2942D01*
G01*
X-34326Y-2324D02*
G03*
X-36406Y-1463I-2080J-2080D01*
G01*
D02*
G03*
X-34326Y-601I0J2942D01*
G01*
X-35830Y5150D02*
G03*
X-33266Y6212I0J3627D01*
G01*
X-39452Y5150D02*
G03*
X-34326Y7273I0J7248D01*
G01*
X28666Y13424D02*
G03*
X26586Y14285I-2080J-2080D01*
G01*
D02*
G03*
X28666Y15147I0J2942D01*
G01*
Y5629D02*
G03*
X26586Y6490I-2080J-2080D01*
G01*
D02*
G03*
X28666Y7352I0J2942D01*
G01*
X34326Y-601D02*
G03*
X36406Y-1463I2080J2080D01*
G01*
D02*
G03*
X34326Y-2324I0J-2942D01*
G01*
Y-8396D02*
G03*
X36406Y-9258I2080J2080D01*
G01*
D02*
G03*
X34326Y-10120I0J-2942D01*
G01*
X28666Y-18230D02*
G03*
X26421Y-17300I-2245J-2245D01*
G01*
X26750D02*
G03*
X28666Y-16507I0J2709D01*
G01*
X34326D02*
G03*
X36242Y-17300I1916J1916D01*
G01*
X36571D02*
G03*
X34326Y-18230I0J-3174D01*
G01*
Y-24459D02*
G03*
X36406Y-25321I2080J2080D01*
G01*
D02*
G03*
X34326Y-26182I0J-2942D01*
G01*
Y-32176D02*
G03*
X36406Y-33037I2080J2080D01*
G01*
D02*
G03*
X34326Y-33899I0J-2942D01*
G01*
X28056Y-61367D02*
G03*
X28500Y-60295I-1072J1072D01*
G01*
D02*
G03*
X28944Y-61367I1516J0D01*
G01*
X23056D02*
G03*
X23500Y-60295I-1072J1072D01*
G01*
D02*
G03*
X23944Y-61367I1516J0D01*
G01*
X18056D02*
G03*
X18500Y-60295I-1072J1072D01*
G01*
D02*
G03*
X18944Y-61367I1516J0D01*
G01*
X5017Y-58983D02*
G03*
X4121Y-61716I2252J-2252D01*
G01*
X-1944Y-61367D02*
G03*
X-1500Y-60295I-1072J1072D01*
G01*
D02*
G03*
X-1056Y-61367I1516J0D01*
G01*
X33944Y-88633D02*
G03*
X33500Y-89705I1072J-1072D01*
G01*
D02*
G03*
X33056Y-88633I-1516J0D01*
G01*
X23944D02*
G03*
X23500Y-89705I1072J-1072D01*
G01*
D02*
G03*
X23056Y-88633I-1516J0D01*
G01*
X18944D02*
G03*
X18500Y-89705I1072J-1072D01*
G01*
D02*
G03*
X18056Y-88633I-1516J0D01*
G01*
X-20177Y-75423D02*
G03*
X-19740Y-74369I-1054J1054D01*
G01*
X-20177Y-75777D02*
G03*
X-21811Y-75100I-1634J-1634D01*
G01*
X-32300Y-106450D02*
G03*
X-34605Y-107405I0J-3259D01*
G01*
X-50111Y-131115D02*
G03*
X-49250Y-129035I-2080J2080D01*
G01*
D02*
G03*
X-48388Y-131115I2942J0D01*
G01*
X-42089D02*
G03*
X-40009Y-131977I2080J2080D01*
G01*
D02*
G03*
X-42089Y-132838I0J-2942D01*
G01*
X-6415Y-56000D02*
G03*
X-3541Y-54809I0J4065D01*
G01*
X-857Y-56115D02*
G03*
X-1500Y-57667I1552J-1552D01*
G01*
Y-57715D02*
G03*
X-2163Y-56115I-2262J0D01*
G01*
X5729Y-50357D02*
G03*
X7500Y-51500I1771J801D01*
G01*
X-12260Y-102852D02*
G03*
X-10180Y-101991I0J2942D01*
G01*
X-10417Y-102228D02*
G03*
X-11140Y-103972I1744J-1744D01*
G01*
X-18620Y-104169D02*
G03*
X-17898Y-105913I2466J0D01*
G01*
X-17660Y-106151D02*
G03*
X-19740Y-105289I-2080J-2080D01*
G01*
X-20860Y-103972D02*
G03*
X-21583Y-102228I-2466J0D01*
G01*
X-21820Y-101991D02*
G03*
X-19740Y-102852I2080J2080D01*
G01*
X-15208Y-85361D02*
G03*
X-16000Y-87273I1912J-1912D01*
G01*
D02*
G03*
X-16792Y-85361I-2704J0D01*
G01*
X-11468Y-92537D02*
G03*
X-9556Y-93329I1912J1912D01*
G01*
D02*
G03*
X-11468Y-94121I0J-2704D01*
G01*
Y-94220D02*
G03*
X-13200Y-98401I4182J-4182D01*
G01*
X-18700Y-95021D02*
G03*
X-19471Y-93159I-2634J0D01*
G01*
X-18700Y-98643D02*
G03*
X-20532Y-94220I-6255J0D01*
G01*
X-39700Y-64500D02*
X-39000Y-63800D01*
X-41900Y-118700D02*
X-39700Y-116500D01*
X16700Y-100500D02*
X19400D01*
X-9600Y-87500D02*
Y-83500D01*
X-13000Y-80100D02*
X-9600Y-83500D01*
X-26700Y-80100D02*
X-13000D01*
X-16000Y-88900D02*
Y-84471D01*
X28600Y-104800D02*
X30000Y-106200D01*
X1700Y-104800D02*
X28600D01*
X30000Y-115831D02*
Y-110200D01*
X5100Y-123500D02*
Y-119000D01*
X-23432Y-119968D02*
Y-105268D01*
X-48200Y-125800D02*
X-45900D01*
X-49250Y-126850D02*
X-48200Y-125800D01*
X-49250Y-131977D02*
Y-126850D01*
X-41900Y-125800D02*
Y-118700D01*
X-36700Y-130100D02*
Y-109500D01*
X-38577Y-131977D02*
X-36700Y-130100D01*
X-42950Y-131977D02*
X-38577D01*
X-33400Y-106200D02*
X-32300D01*
X-36700Y-109500D02*
X-33400Y-106200D01*
X-36700Y-101800D02*
Y-83600D01*
X-19800Y-112929D02*
X-16000D01*
X-32300Y-110200D02*
X-27400D01*
X-30000Y-115831D02*
Y-110350D01*
X-36700Y-101800D02*
X-32300Y-106200D01*
X-5100Y-122200D02*
Y-119000D01*
X-30100Y-98600D02*
X-23432Y-105268D01*
X-30100Y-98600D02*
Y-93036D01*
X-8768Y-70232D02*
X-6200Y-72800D01*
X-12260Y-70232D02*
X-8768D01*
X-6200Y-76800D02*
Y-72800D01*
X-8900Y-79500D02*
X-6200Y-76800D01*
X-18200Y-79500D02*
X-8900D01*
X-29900Y-75100D02*
X-19740D01*
X-20000Y-77700D02*
X-18200Y-79500D01*
X-20000Y-77700D02*
Y-75600D01*
X23500Y-91500D02*
Y-84646D01*
X17700Y-97300D02*
X23500Y-91500D01*
X2000Y-97300D02*
X17700D01*
X19400Y-100500D02*
X25900Y-94000D01*
X28500D01*
X-4600Y-103000D02*
Y-100400D01*
X-10400Y-108800D02*
X-4600Y-103000D01*
X-15011Y-108800D02*
X-10400D01*
X-19740Y-104071D02*
X-15011Y-108800D01*
X-12260Y-93329D02*
X-6071D01*
X2000Y-93329D02*
X17071D01*
X-12260Y-104071D02*
X-9200Y-101011D01*
X-22700Y-101111D02*
X-19740Y-104071D01*
X-22700Y-101111D02*
Y-98600D01*
X-9200Y-101011D02*
Y-98600D01*
X-18700D02*
Y-93500D01*
X-13200Y-98600D02*
Y-93300D01*
X18500Y-91900D02*
Y-84646D01*
X17071Y-93329D02*
X18500Y-91900D01*
X17800Y-24800D02*
X19200Y-26200D01*
X17800Y-24800D02*
Y-13300D01*
X19200Y-28900D02*
Y-26200D01*
X17800Y-13300D02*
X19200Y-11900D01*
X20900Y-14600D02*
X22100Y-13400D01*
X20900Y-23600D02*
Y-14600D01*
Y-23600D02*
X22100Y-24800D01*
X19200Y-11900D02*
Y9000D01*
X22100Y-13400D02*
Y3300D01*
Y-30600D02*
Y-24800D01*
X24900Y-22800D02*
X26400Y-21300D01*
X-2600D02*
X400D01*
X-39000D02*
X-2600D01*
X41000Y-38500D02*
X46100Y-43600D01*
X41000Y-38500D02*
Y-35000D01*
X46100Y-72600D02*
Y-58300D01*
X22100Y-35100D02*
Y-30600D01*
X31900Y-55000D02*
X37000D01*
X24485Y14285D02*
X31496D01*
X19200Y9000D02*
X24485Y14285D01*
X25290Y6490D02*
X31496D01*
X22100Y3300D02*
X25290Y6490D01*
X19300Y-32800D02*
Y-29000D01*
X19400Y-47900D02*
X23500Y-52000D01*
X31900Y-51850D02*
X39500D01*
X28500D02*
X31900D01*
X39500Y-52000D02*
X43000Y-55500D01*
X24900Y-27700D02*
Y-22800D01*
Y-27700D02*
X26600Y-29400D01*
X40651D02*
X41251Y-30000D01*
X26600Y-29400D02*
X40651D01*
X41251Y-30000D02*
X55000D01*
X45000Y-25051D02*
Y-25000D01*
X40651Y-29400D02*
X45000Y-25051D01*
X26400Y-21300D02*
X38751D01*
X45000Y-15051D01*
X44800Y-20000D02*
X55000D01*
X39479Y-25321D02*
X44800Y-20000D01*
X31496Y-25321D02*
X39479D01*
X48700Y10000D02*
X55000D01*
X37237Y-1463D02*
X48700Y10000D01*
X31496Y-1463D02*
X37237D01*
X47200Y0D02*
X55000D01*
X37942Y-9258D02*
X47200Y0D01*
X31496Y-9258D02*
X37942D01*
X45100Y-10000D02*
X55000D01*
X37800Y-17300D02*
X45100Y-10000D01*
X23700Y-17300D02*
X37800D01*
X-19740Y-75100D02*
Y-70232D01*
X-19300Y-9218D02*
X-3018D01*
X9100Y10100D02*
X18869Y19869D01*
X9100Y2900D02*
Y10100D01*
X-3018Y-9218D02*
X9100Y2900D01*
X18869Y19869D02*
X54869D01*
X55000Y20000D01*
X-31496Y-9218D02*
X-25218D01*
X2550Y-122200D02*
Y-119000D01*
X0Y-122200D02*
Y-119000D01*
X-2550Y-122200D02*
Y-119000D01*
X2550D02*
Y-115800D01*
X-2550Y-119000D02*
Y-115800D01*
X28500Y-94000D02*
X33500D01*
Y-84646D01*
X-55000Y-100000D02*
X-42700Y-87700D01*
X0Y-119000D02*
Y-115800D01*
X5100Y-117200D02*
Y-114800D01*
X-41000Y-5051D02*
Y-5000D01*
X37000Y-55000D02*
X40000Y-58000D01*
Y-85000D02*
Y-58000D01*
X43000Y-80500D02*
Y-55500D01*
Y-80500D02*
X52500Y-90000D01*
X46100Y-72600D02*
X53500Y-80000D01*
X40000Y-85000D02*
X55000Y-100000D01*
X52500Y-90000D02*
X55000D01*
X53500Y-80000D02*
X55000D01*
X-45949Y10000D02*
X-41000Y5051D01*
X-55000Y10000D02*
X-45949D01*
X-41000Y14949D01*
X-37463Y-1463D02*
X-31496D01*
X-41000Y-5000D02*
X-37463Y-1463D01*
X-50000Y20000D02*
X-45000Y15000D01*
X-55000Y20000D02*
X-50000D01*
X-12260Y-61768D02*
Y-56000D01*
X8000Y-52000D02*
X12000D01*
X7500Y-51500D02*
X8000Y-52000D01*
X5000Y-51500D02*
X7500D01*
X-1500Y-65354D02*
Y-55000D01*
X-8000Y-56000D02*
X-2000D01*
X28500Y-65354D02*
Y-56000D01*
X23500Y-65354D02*
Y-56000D01*
X18500Y-65354D02*
Y-56000D01*
X39037Y-33037D02*
X41000Y-35000D01*
X31496Y-33037D02*
X39037D01*
X7500Y-51500D02*
X8500Y-52500D01*
Y-58000D02*
Y-52500D01*
X7517Y-58983D02*
X8500Y-58000D01*
X5017Y-58983D02*
X7517D01*
X3500Y-60500D02*
X5017Y-58983D01*
X3500Y-65354D02*
Y-60500D01*
X-41000Y5150D02*
X-32757D01*
X-31496Y6411D01*
X-23400Y-120000D02*
X-16600D01*
X-23432Y-119968D02*
X-23400Y-120000D01*
X-16600D02*
X-10200Y-113600D01*
X-6800D01*
X-5100Y-115300D01*
Y-119000D02*
Y-115300D01*
X-39700Y-116500D02*
Y-94900D01*
Y-64500D01*
X-45000Y-95000D02*
X-43450Y-93450D01*
Y-93399D01*
X-42700Y-92649D01*
Y-90500D01*
X-39300Y19300D02*
X-34167Y14167D01*
X-31496D01*
X-31296D01*
D11*
X31669Y-37663D02*
G03*
X31518Y-38811I1310J-756D01*
G01*
X10872Y-59572D02*
G03*
X12000Y-56849I-2723J2723D01*
G01*
X-55000Y-77550D02*
G03*
X-50818Y-75818I0J5915D01*
G01*
D02*
G03*
X-52550Y-80000I4182J-4182D01*
G01*
Y-60000D02*
G03*
X-50818Y-64182I5915J0D01*
G01*
D02*
G03*
X-55000Y-62450I-4182J-4182D01*
G01*
X-26669Y-56094D02*
G03*
X-25371Y-59229I4433J0D01*
G01*
X-23300Y-61300D02*
G03*
X-29398Y-59024I-5542J-5542D01*
G01*
X-27529Y-54018D02*
G03*
X-22744Y-56000I4786J4786D01*
G01*
X-22288D02*
G03*
X-27529Y-58171I0J-7413D01*
G01*
X-32780Y-69617D02*
G03*
X-35900Y-68016I-3119J-2237D01*
G01*
X-35900D02*
G03*
X-32882Y-66346I0J3561D01*
G01*
X-31609Y-65449D02*
G03*
X-30016Y-62500I-1931J2948D01*
G01*
Y-62500D02*
G03*
X-28413Y-65434I3487J0D01*
G01*
X-30048Y-131170D02*
G03*
X-28616Y-128300I-2158J2870D01*
G01*
X-31416Y-128300D02*
G03*
X-29965Y-131161I3545J0D01*
G01*
X28584Y-128300D02*
G03*
X30035Y-131161I3545J0D01*
G01*
X29952Y-131170D02*
G03*
X31384Y-128300I-2158J2870D01*
G01*
X28500Y-37573D02*
G03*
X30020Y-40235I3091J0D01*
G01*
X37596Y-40100D02*
G03*
X34209Y-41688I0J-4405D01*
G01*
X32939Y-40255D02*
G03*
X34400Y-37573I-1732J2682D01*
G01*
X30811Y-40384D02*
G03*
X31496Y-38731I-1653J1653D01*
G01*
D02*
G03*
X32181Y-40384I2338J0D01*
G01*
X1492Y-58708D02*
G03*
X2837Y-55462I-3246J3246D01*
G01*
X-55000Y-60000D02*
X-49500Y-65500D01*
Y-74500D02*
Y-65500D01*
X-55000Y-80000D02*
X-49500Y-74500D01*
X31384Y-131796D02*
Y-128300D01*
X28584Y-131796D02*
Y-128300D01*
X-31416Y-131796D02*
Y-128300D01*
X-28616Y-131796D02*
Y-128300D01*
X-32000Y-101600D02*
X-27400Y-106200D01*
X45000Y-35000D02*
X48500D01*
X33500Y-98000D02*
X36000Y-100500D01*
X26000D02*
X28500Y-98000D01*
X-23300Y-69400D02*
Y-61300D01*
X-28506Y-56094D02*
X-23300Y-61300D01*
X-30000Y-56094D02*
X-28506D01*
X-29906Y-56000D02*
X-19740D01*
X11000Y-59700D02*
X12000Y-58700D01*
Y-56000D01*
X34400Y-41100D02*
Y-37573D01*
X31496Y-41069D02*
Y-37573D01*
X28500Y-41300D02*
Y-37573D01*
X34100Y-40100D02*
X37596D01*
X-48500Y5000D02*
X-45000D01*
X-48500Y-5000D02*
X-45000D01*
X-35900Y-68016D02*
X-32404D01*
X-35900Y-70816D02*
X-32404D01*
X-30016Y-65496D02*
Y-62500D01*
X-26716Y-65496D02*
Y-62500D01*
X-33316Y-65496D02*
Y-62500D01*
X1400Y-58800D02*
X4399Y-55801D01*
X-2199Y-50738D02*
Y-46400D01*
X-8000Y-52000D02*
Y-48504D01*
X-12260Y-52000D02*
Y-48504D01*
X-19740Y-52000D02*
Y-48504D01*
Y-61768D02*
Y-56000D01*
X33500Y-62000D02*
Y-58504D01*
X-39300Y23300D02*
X-36900D01*
X-41600D02*
X-39300D01*
X-42400Y22500D02*
X-41600Y23300D01*
X-36900D02*
X-36100Y22500D01*
D12*
X-47282Y-76618D02*
G03*
X-46500Y-74731I-1887J1887D01*
G01*
X-55000Y-88050D02*
G03*
X-51671Y-86671I0J4708D01*
G01*
X-55000Y-87050D02*
G03*
X-49964Y-84964I0J7122D01*
G01*
X-51671Y-86671D02*
G03*
X-53050Y-90000I3329J-3329D01*
G01*
X-49964Y-84964D02*
G03*
X-52050Y-90000I5036J-5036D01*
G01*
X-41000Y-5500D02*
G03*
X-41767Y-5818I0J-1085D01*
G01*
X-41889Y-5940D02*
G03*
X-41500Y-5000I-940J940D01*
G01*
X-34503Y-10257D02*
G03*
X-37010Y-9218I-2507J-2507D01*
G01*
D02*
G03*
X-34503Y-8180I0J3545D01*
G01*
X-44332Y-8382D02*
G03*
X-44919Y-9800I1418J-1418D01*
G01*
X-45600Y-9119D02*
G03*
X-44692Y-8743I0J1284D01*
G01*
X-44437Y-24563D02*
G03*
X-45600Y-24081I-1163J-1163D01*
G01*
X-44919Y-23400D02*
G03*
X-44437Y-24563I1644J0D01*
G01*
X-49964Y-94964D02*
G03*
X-52050Y-100000I5036J-5036D01*
G01*
X-55000Y-97050D02*
G03*
X-49964Y-94964I0J7122D01*
G01*
X-19800Y-112929D02*
G03*
X-17560Y-111509I-215J2815D01*
G01*
X-17566Y-114392D02*
G03*
X-19800Y-112929I-2920J-2023D01*
G01*
X-37100Y17300D02*
G03*
X-33203Y15552I4000J3700D01*
G01*
X-34807Y13400D02*
G03*
X-35806Y15493I-2693J0D01*
G01*
X-46800Y-77100D02*
X-46500Y-76800D01*
X-44400Y-79400D02*
Y-24600D01*
X-55000Y-90000D02*
X-44400Y-79400D01*
X-45600Y-23400D02*
X-44400Y-24600D01*
X-46500Y-76800D02*
Y-25867D01*
X-42400Y-17100D02*
X-38300Y-13000D01*
X-42400Y-87400D02*
Y-17100D01*
X-42700Y-87700D02*
X-42400Y-87400D01*
X-47981Y-24386D02*
X-46500Y-25867D01*
X-24467Y14167D02*
X-22200Y11900D01*
Y-10800D02*
Y11900D01*
X-24400Y-13000D02*
X-22200Y-10800D01*
X-31296Y14167D02*
X-24467D01*
X-38300Y-13000D02*
X-24400D01*
X-45600Y-9651D02*
X-41000Y-5051D01*
X-39718Y-9218D02*
X-31496D01*
X-47981Y-24386D02*
Y-17481D01*
X-39718Y-9218D01*
X-41000Y-95000D02*
X-39800D01*
X-39700Y-94900D01*
D13*
X53300Y-70000D02*
G03*
X52098Y-67098I-4104J0D01*
G01*
X52600Y-70000D02*
G03*
X50903Y-65903I-5794J0D01*
G01*
X51900Y-70000D02*
G03*
X49708Y-64708I-7484J0D01*
G01*
X52098Y-67098D02*
G03*
X55000Y-68300I2902J2902D01*
G01*
X50903Y-65903D02*
G03*
X55000Y-67600I4097J4097D01*
G01*
X49708Y-64708D02*
G03*
X55000Y-66900I5292J5292D01*
G01*
X53300Y-60000D02*
G03*
X52098Y-57098I-4104J0D01*
G01*
X52600Y-60000D02*
G03*
X50903Y-55903I-5794J0D01*
G01*
X51900Y-60000D02*
G03*
X49708Y-54708I-7484J0D01*
G01*
X52098Y-57098D02*
G03*
X55000Y-58300I2902J2902D01*
G01*
X50903Y-55903D02*
G03*
X55000Y-57600I4097J4097D01*
G01*
X49708Y-54708D02*
G03*
X55000Y-56900I5292J5292D01*
G01*
X53692Y-51085D02*
G03*
X51381Y-50000I-2311J-1917D01*
G01*
X53153Y-51532D02*
G03*
X49891Y-50000I-3262J-2706D01*
G01*
X52614Y-51979D02*
G03*
X48400Y-50000I-4214J-3496D01*
G01*
X51381D02*
G03*
X53692Y-48915I0J3002D01*
G01*
X49891Y-50000D02*
G03*
X53153Y-48468I0J4239D01*
G01*
X48400Y-50000D02*
G03*
X52614Y-48021I0J5475D01*
G01*
X-28878Y-32349D02*
G03*
X-27310Y-32998I1568J1568D01*
G01*
X-28383Y-31854D02*
G03*
X-25620Y-32998I2763J2763D01*
G01*
X-27310D02*
G03*
X-28878Y-33648I0J-2217D01*
G01*
X-25620Y-32998D02*
G03*
X-28383Y-34143I0J-3907D01*
G01*
X-28878Y-24514D02*
G03*
X-27310Y-25163I1568J1568D01*
G01*
X-28383Y-24019D02*
G03*
X-25620Y-25163I2763J2763D01*
G01*
X-27310D02*
G03*
X-28878Y-25813I0J-2217D01*
G01*
X-25620Y-25163D02*
G03*
X-28383Y-26308I0J-3907D01*
G01*
X-28878Y-16601D02*
G03*
X-27310Y-17250I1568J1568D01*
G01*
X-28383Y-16105D02*
G03*
X-25620Y-17250I2763J2763D01*
G01*
X-27310D02*
G03*
X-28878Y-17899I0J-2217D01*
G01*
X-25620Y-17250D02*
G03*
X-28383Y-18395I0J-3907D01*
G01*
X13500Y-69926D02*
G03*
X12774Y-70227I0J-1027D01*
G01*
X12712Y-70288D02*
G03*
X13175Y-68938I-1148J1148D01*
G01*
X11700Y-71300D02*
G03*
X12480Y-69025I-1934J1934D01*
G01*
X8825Y-68938D02*
G03*
X9288Y-70288I1611J-202D01*
G01*
X9520Y-69025D02*
G03*
X10300Y-71300I2714J-340D01*
G01*
X9227Y-70227D02*
G03*
X8500Y-69926I-727J-727D01*
G01*
X-283Y-116767D02*
G03*
X0Y-116084I-683J683D01*
G01*
D02*
G03*
X283Y-116767I966J0D01*
G01*
X-2833D02*
G03*
X-2550Y-116084I-683J683D01*
G01*
D02*
G03*
X-2267Y-116767I966J0D01*
G01*
X-25724Y14167D02*
G03*
X-28487Y13023I0J-3907D01*
G01*
Y15312D02*
G03*
X-25724Y14167I2763J2763D01*
G01*
X-6400Y-89600D02*
Y-79820D01*
X-5000Y-89020D02*
Y-80400D01*
X-600Y-114733D02*
Y-93420D01*
X-5000Y-89020D02*
X-600Y-93420D01*
X-2000Y-114733D02*
Y-94000D01*
X-6400Y-89600D02*
X-2000Y-94000D01*
X40000Y-48500D02*
X48800Y-57300D01*
X27200Y-48500D02*
X40000D01*
X48800Y-63800D02*
Y-57300D01*
Y-63800D02*
X55000Y-70000D01*
X41800Y-46800D02*
X55000Y-60000D01*
X27500Y-46800D02*
X41800D01*
X5863Y-25163D02*
X27500Y-46800D01*
X43700Y-45300D02*
X48400Y-50000D01*
X28200Y-45300D02*
X43700D01*
X150Y-17250D02*
X28200Y-45300D01*
X-31496Y-25163D02*
X5863D01*
X-31496Y-17250D02*
X150D01*
X11698Y-32998D02*
X27200Y-48500D01*
X-31496Y-32998D02*
X11698D01*
X48400Y-50000D02*
X55000D01*
X10300Y-72720D02*
Y-71300D01*
X7020Y-76000D02*
X10300Y-72720D01*
X-2580Y-76000D02*
X7020D01*
X11700Y-73300D02*
Y-71300D01*
X7600Y-77400D02*
X11700Y-73300D01*
X-2000Y-77400D02*
X7600D01*
X13500Y-69500D02*
Y-65354D01*
X11700Y-71300D02*
X13500Y-69500D01*
X8500D02*
X10300Y-71300D01*
X8500Y-69500D02*
Y-65354D01*
X0Y-119000D02*
Y-115333D01*
X-600Y-114733D02*
X0Y-115333D01*
X-2550Y-119000D02*
Y-115333D01*
X-2000Y-114783D01*
X-6400Y-79820D02*
X-2580Y-76000D01*
X-5000Y-80400D02*
X-2000Y-77400D01*
D14*
X-31496Y-49964D02*
G03*
X-29378Y-55078I7233J0D01*
G01*
X-31496Y-54598D02*
Y-41800D01*
D15*
X-19740Y-93329D02*
D03*
X-12260Y-93329D02*
D03*
X-16000Y-84471D02*
D03*
Y-112929D02*
D03*
X-19740Y-104071D02*
D03*
X-12260Y-104071D02*
D03*
D16*
X-45000Y5000D02*
D03*
X-41000D02*
D03*
Y15000D02*
D03*
X-45000D02*
D03*
X-20000Y-75600D02*
D03*
X-16000D02*
D03*
X45000Y-35000D02*
D03*
X41000D02*
D03*
X45000Y-25000D02*
D03*
X41000D02*
D03*
X45000Y-15000D02*
D03*
X41000D02*
D03*
X-45000Y-5000D02*
D03*
X-41000D02*
D03*
X-45900Y-125800D02*
D03*
X-41900D02*
D03*
X-9200Y-98600D02*
D03*
X-13200D02*
D03*
X-18700D02*
D03*
X-22700D02*
D03*
X-41000Y-95000D02*
D03*
X-45000D02*
D03*
D17*
X-2199Y-50738D02*
D03*
X4199D02*
D03*
Y-55462D02*
D03*
X-2199D02*
D03*
D18*
X-42950Y-131977D02*
D03*
X-49250D02*
D03*
D19*
X-32300Y-110200D02*
D03*
Y-106200D02*
D03*
X-19740Y-56000D02*
D03*
Y-52000D02*
D03*
X-12260Y-56000D02*
D03*
Y-52000D02*
D03*
X28500D02*
D03*
Y-56000D02*
D03*
X23500Y-52000D02*
D03*
Y-56000D02*
D03*
X30000Y-110200D02*
D03*
Y-106200D02*
D03*
X-27400Y-110200D02*
D03*
Y-106200D02*
D03*
X33500Y-94000D02*
D03*
Y-98000D02*
D03*
X28500Y-94000D02*
D03*
Y-98000D02*
D03*
X18500Y-56000D02*
D03*
Y-52000D02*
D03*
X12000D02*
D03*
Y-56000D02*
D03*
X-8000D02*
D03*
Y-52000D02*
D03*
X-39300Y19300D02*
D03*
Y23300D02*
D03*
D20*
X-19740Y-61768D02*
D03*
X-12260D02*
D03*
Y-70232D02*
D03*
X-16000D02*
D03*
D21*
X-19740Y-70232D02*
D03*
D22*
X-2550Y-119000D02*
D03*
X0D02*
D03*
X-5100D02*
D03*
X2550D02*
D03*
X5100D02*
D03*
D23*
X8500Y-65354D02*
D03*
X13500D02*
D03*
X-1500Y-84646D02*
D03*
X3500D02*
D03*
X8500D02*
D03*
X13500D02*
D03*
X18500D02*
D03*
X23500D02*
D03*
X28500D02*
D03*
X33500D02*
D03*
X-1500Y-65354D02*
D03*
X3500D02*
D03*
X18500D02*
D03*
X23500D02*
D03*
X28500D02*
D03*
X33500D02*
D03*
D24*
X-31496Y-40911D02*
D03*
X31496Y-41069D02*
D03*
Y-33037D02*
D03*
Y-25321D02*
D03*
Y-17368D02*
D03*
Y-9258D02*
D03*
Y-1463D02*
D03*
Y6490D02*
D03*
Y14285D02*
D03*
X-31496Y14167D02*
D03*
Y6411D02*
D03*
Y-1463D02*
D03*
Y-9218D02*
D03*
Y-17250D02*
D03*
Y-25163D02*
D03*
Y-32998D02*
D03*
D25*
X30000Y-132169D02*
D03*
Y-115831D02*
D03*
X-30000Y-132169D02*
D03*
Y-115831D02*
D03*
D26*
X-30100Y-93036D02*
D03*
Y-77564D02*
D03*
D27*
X-30000Y-67905D02*
D03*
Y-56094D02*
D03*
D28*
X-39000Y-60900D02*
Y-58400D01*
Y-63800D02*
Y-60900D01*
Y-58000D02*
Y-21300D01*
X-16000Y-75600D02*
X-9900D01*
X-38289Y-40911D02*
X-31496D01*
D29*
X-16016Y-75600D02*
Y-60100D01*
D30*
X50Y-130800D02*
D03*
D31*
X9550Y-119000D02*
D03*
X-9550D02*
D03*
D32*
X-14300Y-129400D02*
D03*
X14300D02*
D03*
D33*
X26457Y-124000D02*
D03*
X33543D02*
D03*
X-33543D02*
D03*
X-26457D02*
D03*
D34*
X55000Y20000D02*
D03*
Y-20000D02*
D03*
Y-10000D02*
D03*
Y0D02*
D03*
Y10000D02*
D03*
Y-30000D02*
D03*
Y-40000D02*
D03*
Y-50000D02*
D03*
Y-60000D02*
D03*
Y-110000D02*
D03*
Y-100000D02*
D03*
Y-90000D02*
D03*
Y-80000D02*
D03*
Y-70000D02*
D03*
X-55000Y20000D02*
D03*
Y-20000D02*
D03*
Y-10000D02*
D03*
Y0D02*
D03*
Y10000D02*
D03*
Y-30000D02*
D03*
Y-40000D02*
D03*
Y-50000D02*
D03*
Y-60000D02*
D03*
Y-110000D02*
D03*
Y-100000D02*
D03*
Y-90000D02*
D03*
Y-80000D02*
D03*
Y-70000D02*
D03*
D35*
X55000Y-120000D02*
D03*
X-55000D02*
D03*
D36*
X-46800Y-77100D02*
D03*
X-4600Y-111800D02*
D03*
X-49300Y-104300D02*
D03*
Y-113000D02*
D03*
X-42700Y-109875D02*
D03*
Y-100825D02*
D03*
Y-105350D02*
D03*
X48400Y-106900D02*
D03*
X47400Y-117700D02*
D03*
X46150Y-124300D02*
D03*
X43000D02*
D03*
X39850D02*
D03*
X44400Y-114800D02*
D03*
X42650Y17100D02*
D03*
X45800D02*
D03*
X48950D02*
D03*
X24900Y-111800D02*
D03*
X21183D02*
D03*
X-42700Y-114400D02*
D03*
X14700Y-14200D02*
D03*
X11600Y-24700D02*
D03*
X14750D02*
D03*
X2600Y-111800D02*
D03*
X-13200Y-30750D02*
D03*
X-18800D02*
D03*
X15200Y-49700D02*
D03*
Y-54100D02*
D03*
X-18800Y-27600D02*
D03*
X-13200D02*
D03*
Y-35550D02*
D03*
X-18800D02*
D03*
X-42700Y-90500D02*
D03*
X-9600Y-84900D02*
D03*
X19400Y-100500D02*
D03*
X4700Y-104800D02*
D03*
X-9600Y-87500D02*
D03*
X-16000Y-88900D02*
D03*
X16700Y-100500D02*
D03*
X1700Y-104800D02*
D03*
X31400Y-128300D02*
D03*
X28600D02*
D03*
X-31400D02*
D03*
X-28600D02*
D03*
X5100Y-114800D02*
D03*
X7650Y-134400D02*
D03*
X4500D02*
D03*
X1350D02*
D03*
X-1800D02*
D03*
X-4950D02*
D03*
X-8100D02*
D03*
X7650Y-130500D02*
D03*
X4500D02*
D03*
X1350D02*
D03*
X-1800D02*
D03*
X-4950D02*
D03*
X-8100D02*
D03*
X5100Y-123500D02*
D03*
X-23400Y-120000D02*
D03*
X-39000Y-27100D02*
D03*
Y-21300D02*
D03*
Y-58000D02*
D03*
Y-63800D02*
D03*
X-29900Y-103700D02*
D03*
X-19800Y-112929D02*
D03*
X-12700Y-75600D02*
D03*
X-9900D02*
D03*
X26000Y-100500D02*
D03*
X-4600Y-100400D02*
D03*
Y-103000D02*
D03*
X4500Y-97300D02*
D03*
X-8600Y-93300D02*
D03*
X-6071Y-93329D02*
D03*
X4500Y-93329D02*
D03*
X2000D02*
D03*
Y-97300D02*
D03*
X26200Y-17300D02*
D03*
X23700D02*
D03*
X26200Y-21300D02*
D03*
X28700D02*
D03*
X-2600D02*
D03*
X400D02*
D03*
X46100Y-58300D02*
D03*
Y-43600D02*
D03*
X22100Y-35100D02*
D03*
X21400Y-49800D02*
D03*
X19200Y-28900D02*
D03*
X34300Y-55000D02*
D03*
X19400Y-47900D02*
D03*
X22100Y-30600D02*
D03*
X19300Y-32800D02*
D03*
X34300Y-51850D02*
D03*
X31900D02*
D03*
Y-55000D02*
D03*
X48500Y-35000D02*
D03*
X-16016Y-60100D02*
D03*
Y-62700D02*
D03*
X39500Y17100D02*
D03*
X19900Y16200D02*
D03*
X10100Y0D02*
D03*
X-1700Y-29000D02*
D03*
X-18800Y-14400D02*
D03*
X14000Y10600D02*
D03*
X-45600Y-23400D02*
D03*
X7100Y-46400D02*
D03*
X13800D02*
D03*
X-19300Y-9200D02*
D03*
X-25218Y-9218D02*
D03*
X40000Y-111600D02*
D03*
X36850D02*
D03*
X33700D02*
D03*
X33600Y-105200D02*
D03*
X36600Y-103500D02*
D03*
X48400Y-104400D02*
D03*
X-42700Y-87700D02*
D03*
X36000Y-100500D02*
D03*
X-23300Y-69400D02*
D03*
X-39000Y-60900D02*
D03*
X11000Y-59700D02*
D03*
X28500Y-37573D02*
D03*
X34416D02*
D03*
X31512D02*
D03*
X37596Y-40116D02*
D03*
X-48500Y5000D02*
D03*
Y-5000D02*
D03*
X-36800Y-83600D02*
D03*
X-45600Y-9800D02*
D03*
X-16000Y-65500D02*
D03*
X-33316Y-62500D02*
D03*
X-35900Y-68000D02*
D03*
Y-70800D02*
D03*
X-30000Y-62500D02*
D03*
X-26700D02*
D03*
X1400Y-58800D02*
D03*
X-7984Y-48504D02*
D03*
X-12244D02*
D03*
X-19724D02*
D03*
X33516Y-58504D02*
D03*
X-39000Y-24200D02*
D03*
X24800Y-74900D02*
D03*
X27900D02*
D03*
X31000D02*
D03*
X15200Y-58500D02*
D03*
X10033Y-111800D02*
D03*
X-18800Y-38700D02*
D03*
Y-41850D02*
D03*
Y-45000D02*
D03*
X-13200Y-38700D02*
D03*
Y-41850D02*
D03*
Y-45000D02*
D03*
X-5700Y-61100D02*
D03*
Y-64250D02*
D03*
Y-67400D02*
D03*
X967Y-46400D02*
D03*
X4117D02*
D03*
X-2200D02*
D03*
X-38500Y1300D02*
D03*
X-49500D02*
D03*
X11533Y-14200D02*
D03*
X8367D02*
D03*
X5200D02*
D03*
X100Y-73200D02*
D03*
X3250D02*
D03*
X6400D02*
D03*
X11600Y-76600D02*
D03*
X14750D02*
D03*
X17900D02*
D03*
X14800Y-73200D02*
D03*
X36700Y-58500D02*
D03*
X37200Y-68700D02*
D03*
Y-74900D02*
D03*
X34100D02*
D03*
X37300Y-90333D02*
D03*
X-4900Y-12200D02*
D03*
X-8050D02*
D03*
X-11200D02*
D03*
X-14350D02*
D03*
X17467Y-111800D02*
D03*
X3250Y-35550D02*
D03*
X100D02*
D03*
X-3050D02*
D03*
X-6200D02*
D03*
X-1750Y-12200D02*
D03*
X46400Y12300D02*
D03*
X42800Y9700D02*
D03*
X39400Y7000D02*
D03*
X9550Y-35550D02*
D03*
X6400D02*
D03*
X6317Y-111800D02*
D03*
X12350Y-101200D02*
D03*
X9200D02*
D03*
X6050D02*
D03*
X2900D02*
D03*
X36700Y-134400D02*
D03*
X39850D02*
D03*
X43000D02*
D03*
X46150D02*
D03*
X49300D02*
D03*
X-17200Y22500D02*
D03*
X-14050D02*
D03*
X-10900D02*
D03*
X-7750D02*
D03*
X-32950D02*
D03*
X-29800D02*
D03*
X-26650D02*
D03*
X-23500D02*
D03*
X-48700D02*
D03*
X-45550D02*
D03*
X-42400D02*
D03*
X-36100D02*
D03*
X26900D02*
D03*
X30050D02*
D03*
X33200D02*
D03*
X36350D02*
D03*
X11150D02*
D03*
X14300D02*
D03*
X17450D02*
D03*
X20600D02*
D03*
X23750D02*
D03*
X-4600D02*
D03*
X-1450D02*
D03*
X1700D02*
D03*
X8000D02*
D03*
X42650D02*
D03*
X39500D02*
D03*
X45800D02*
D03*
X48950D02*
D03*
X-17200Y450D02*
D03*
Y-2700D02*
D03*
Y6750D02*
D03*
Y3600D02*
D03*
X-20350Y22500D02*
D03*
X-17200Y9900D02*
D03*
Y13050D02*
D03*
Y16200D02*
D03*
Y19350D02*
D03*
X-5400Y-46400D02*
D03*
X10400D02*
D03*
X4850Y6750D02*
D03*
Y3600D02*
D03*
Y22500D02*
D03*
Y9900D02*
D03*
Y13050D02*
D03*
Y16200D02*
D03*
Y19350D02*
D03*
X37300Y-93767D02*
D03*
Y-86900D02*
D03*
Y-97200D02*
D03*
X13750Y-111800D02*
D03*
X-20950Y-120000D02*
D03*
X-18500D02*
D03*
X-36700Y-86800D02*
D03*
X-16800Y-9200D02*
D03*
X-35500Y-134400D02*
D03*
X-24700D02*
D03*
X-21450D02*
D03*
X-18200D02*
D03*
X18200D02*
D03*
X21300D02*
D03*
X24400D02*
D03*
X-8100Y-126600D02*
D03*
X-4950D02*
D03*
X-1800D02*
D03*
X1350D02*
D03*
X4500D02*
D03*
X7650D02*
D03*
X-32000Y-101600D02*
D03*
M02*
