%FSLAX25Y25*%
%MOIN*%
G70*
G01*
G75*
G04 Layer_Color=16711935*
%ADD10C,0.01500*%
%ADD11C,0.02000*%
%ADD12C,0.01000*%
%ADD13C,0.00700*%
%ADD14C,0.05000*%
%ADD15R,0.03740X0.03937*%
%ADD16R,0.02000X0.02000*%
%ADD17R,0.04724X0.03347*%
%ADD18R,0.03937X0.03937*%
%ADD19R,0.02000X0.02000*%
%ADD20R,0.02165X0.05709*%
%ADD21R,0.02165X0.05709*%
%ADD22R,0.01500X0.05400*%
%ADD23O,0.02756X0.09843*%
%ADD24R,0.07874X0.03937*%
%ADD25R,0.05906X0.04500*%
%ADD26R,0.06575X0.06693*%
%ADD27R,0.08661X0.07874*%
%ADD28C,0.03000*%
%ADD29C,0.03200*%
%ADD30R,0.44900X0.10200*%
%ADD31C,0.04724*%
%ADD32O,0.05906X0.07480*%
%ADD33C,0.03150*%
%ADD34C,0.06900*%
%ADD35R,0.06900X0.06900*%
%ADD36C,0.02362*%
%ADD37R,0.44900X0.09800*%
%ADD38C,0.00500*%
%ADD39C,0.00787*%
%ADD40C,0.00394*%
%ADD41C,0.00984*%
%ADD42C,0.01181*%
%ADD43C,0.00018*%
%ADD44C,0.00800*%
%ADD45C,0.01200*%
%ADD46R,0.09572X0.00759*%
%ADD47R,0.00900X0.40700*%
%ADD48R,0.09743X0.00900*%
%ADD49R,0.01433X0.08858*%
%ADD50R,0.01433X0.08858*%
%ADD51R,0.10236X0.04035*%
%ADD52R,0.02500X0.02900*%
%ADD53R,0.21200X0.12300*%
%ADD54R,0.04540X0.04737*%
%ADD55R,0.02800X0.02800*%
%ADD56R,0.05524X0.04147*%
%ADD57R,0.04737X0.04737*%
%ADD58R,0.02800X0.02800*%
%ADD59R,0.02965X0.06509*%
%ADD60R,0.02965X0.06509*%
%ADD61R,0.02300X0.06200*%
%ADD62O,0.03556X0.10642*%
%ADD63R,0.08674X0.04737*%
%ADD64R,0.06706X0.05300*%
%ADD65R,0.07375X0.07493*%
%ADD66R,0.09461X0.08674*%
%ADD67C,0.05524*%
%ADD68O,0.06706X0.08280*%
%ADD69C,0.03950*%
%ADD70C,0.07700*%
%ADD71R,0.07700X0.07700*%
D67*
X9550Y-119000D02*
D03*
X-9550D02*
D03*
D68*
X-14300Y-129400D02*
D03*
X14300D02*
D03*
D69*
X26457Y-124000D02*
D03*
X33543D02*
D03*
X-33543D02*
D03*
X-26457D02*
D03*
D70*
X55000Y20000D02*
D03*
Y-20000D02*
D03*
Y-10000D02*
D03*
Y0D02*
D03*
Y10000D02*
D03*
Y-30000D02*
D03*
Y-40000D02*
D03*
Y-50000D02*
D03*
Y-60000D02*
D03*
Y-110000D02*
D03*
Y-100000D02*
D03*
Y-90000D02*
D03*
Y-80000D02*
D03*
Y-70000D02*
D03*
X-55000Y20000D02*
D03*
Y-20000D02*
D03*
Y-10000D02*
D03*
Y0D02*
D03*
Y10000D02*
D03*
Y-30000D02*
D03*
Y-40000D02*
D03*
Y-50000D02*
D03*
Y-60000D02*
D03*
Y-110000D02*
D03*
Y-100000D02*
D03*
Y-90000D02*
D03*
Y-80000D02*
D03*
Y-70000D02*
D03*
D71*
X55000Y-120000D02*
D03*
X-55000D02*
D03*
M02*
